<svg width="12" height="12" viewBox="0 0 12 12" fill="none" xmlns="http://www.w3.org/2000/svg">
<g id="multiple-users-silhouette 1" clip-path="url(#clip0_1226_1656)">
<g id="Group">
<path id="Vector" d="M6.74674 2.72982C7.24902 3.04474 7.60122 3.57765 7.66534 4.19624C7.87018 4.29195 8.09753 4.34699 8.33857 4.34699C9.21853 4.34699 9.93175 3.63378 9.93175 2.75395C9.93175 1.87398 9.21853 1.16077 8.33857 1.16077C7.46701 1.16104 6.76003 1.86151 6.74674 2.72982ZM5.70301 5.99183C6.58298 5.99183 7.29619 5.27847 7.29619 4.39865C7.29619 3.51882 6.58284 2.8056 5.70301 2.8056C4.82318 2.8056 4.10956 3.51895 4.10956 4.39878C4.10956 5.27861 4.82318 5.99183 5.70301 5.99183ZM6.37881 6.10042H5.02694C3.90214 6.10042 2.98707 7.01563 2.98707 8.14043V9.79366L2.99127 9.81956L3.10514 9.85521C4.17856 10.1906 5.11113 10.3024 5.87871 10.3024C7.37794 10.3024 8.24692 9.875 8.30047 9.84775L8.40689 9.79393H8.41828V8.14043C8.41869 7.01563 7.50361 6.10042 6.37881 6.10042ZM9.01464 4.45572H7.6732C7.6587 4.99243 7.42959 5.47572 7.06722 5.82332C8.06703 6.12062 8.79854 7.04776 8.79854 8.14287V8.65233C10.123 8.60379 10.8863 8.22841 10.9366 8.20319L11.043 8.14924H11.0544V6.49546C11.0544 5.3708 10.1393 4.45572 9.01464 4.45572ZM2.90749 4.34727C3.21916 4.34727 3.50913 4.2563 3.75478 4.10135C3.83287 3.59202 4.1059 3.14696 4.49592 2.84383C4.49755 2.814 4.5004 2.78445 4.5004 2.75436C4.5004 1.87439 3.78705 1.16117 2.90749 1.16117C2.02739 1.16117 1.31431 1.87439 1.31431 2.75436C1.31431 3.63391 2.02739 4.34727 2.90749 4.34727ZM4.33826 5.82332C3.97765 5.47749 3.74936 4.99677 3.73268 4.46331C3.68293 4.45965 3.63372 4.45572 3.58302 4.45572H2.23128C1.10648 4.45572 0.191406 5.3708 0.191406 6.49546V8.14897L0.195609 8.17445L0.309485 8.21038C1.17061 8.47921 1.93913 8.60312 2.60666 8.64216V8.14287C2.60694 7.04776 3.33818 6.12089 4.33826 5.82332Z" fill="black"/>
</g>
</g>
<defs>
<clipPath id="clip0_1226_1656">
<rect width="10.863" height="10.863" fill="white" transform="translate(0.193359 0.300293)"/>
</clipPath>
</defs>
</svg>
