<svg width="345" height="193" viewBox="0 0 345 193" fill="none" xmlns="http://www.w3.org/2000/svg">
<g filter="url(#filter0_dd_1191_41483)">
<rect x="35" y="10" width="275" height="123" fill="white"/>
</g>
<path fill-rule="evenodd" clip-rule="evenodd" d="M86.5378 44.6445C92.1114 44.652 97.5577 46.3032 102.188 49.3895C106.819 52.4758 110.426 56.8586 112.554 61.9839C114.682 67.1093 115.234 72.7473 114.142 78.1852C113.05 83.6231 110.363 88.6169 106.419 92.5354C102.475 96.454 97.4524 99.1214 91.9853 100.2C86.5183 101.28 80.8524 100.722 75.7038 98.5981C70.5551 96.4743 66.1549 92.8795 63.0591 88.2682C59.9634 83.6569 58.3111 78.236 58.3111 72.6906C58.313 69.0049 59.0446 65.3556 60.4643 61.9513C61.8839 58.547 63.9638 55.4543 66.585 52.8498C69.2062 50.2454 72.3174 48.1803 75.741 46.7724C79.1645 45.3645 82.8333 44.6414 86.5378 44.6445Z" fill="white"/>
<path d="M86.5377 101.001C70.8269 101.001 58.0455 88.301 58.0455 72.691C58.0455 57.081 70.8269 44.3809 86.5377 44.3809C102.248 44.3809 115.03 57.081 115.03 72.691C115.03 88.301 102.248 101.001 86.5377 101.001ZM86.5377 44.9067C71.1185 44.9067 58.5717 57.3711 58.5717 72.691C58.5717 88.0109 71.1137 100.473 86.5377 100.473C101.962 100.473 114.504 88.0109 114.504 72.691C114.504 57.3711 101.962 44.9067 86.5377 44.9067Z" fill="#231F20"/>
<path fill-rule="evenodd" clip-rule="evenodd" d="M86.5378 50.9824C90.8514 50.988 95.0665 52.2658 98.6503 54.6542C102.234 57.0426 105.026 60.4345 106.673 64.4011C108.32 68.3677 108.748 72.7311 107.903 76.9396C107.058 81.1482 104.978 85.0131 101.925 88.0458C98.8733 91.0785 94.9861 93.143 90.755 93.9782C86.5239 94.8134 82.1389 94.3819 78.1543 92.7383C74.1696 91.0946 70.7641 88.3126 68.3682 84.7437C65.9723 81.1749 64.6935 76.9795 64.6935 72.6878C64.6986 66.9278 67.0025 61.4056 71.0989 57.3353C75.1952 53.265 80.7485 50.9799 86.5378 50.9824Z" fill="white"/>
<path fill-rule="evenodd" clip-rule="evenodd" d="M86.5378 51.5772C90.7332 51.5827 94.8328 52.8256 98.3184 55.1488C101.804 57.4719 104.519 60.771 106.121 64.629C107.723 68.4871 108.139 72.7309 107.317 76.8242C106.495 80.9175 104.472 84.6765 101.503 87.6262C98.5345 90.5758 94.7536 92.5836 90.6384 93.3959C86.5232 94.2082 82.2583 93.7885 78.3828 92.1898C74.5072 90.5911 71.195 87.8852 68.8647 84.4141C66.5345 80.943 65.2907 76.8625 65.2907 72.6883C65.2951 67.0857 67.536 61.7143 71.5204 57.7553C75.5049 53.7963 80.9067 51.574 86.5378 51.5772Z" fill="#231F20"/>
<path fill-rule="evenodd" clip-rule="evenodd" d="M71.6019 57.6748L68.2839 83.4902C65.855 79.438 64.8619 74.6925 65.4634 70.0126C66.0649 65.3326 68.2263 60.9885 71.6019 57.6748Z" fill="#F58220"/>
<path fill-rule="evenodd" clip-rule="evenodd" d="M69.2747 84.997L77.8826 53.3998C82.1214 51.528 86.8573 51.0794 91.375 52.1217L71.0641 87.1616C70.4178 86.4798 69.8169 85.7567 69.2653 84.997" fill="#F58220"/>
<path fill-rule="evenodd" clip-rule="evenodd" d="M71.8199 87.9119L97.8899 54.8457C101.589 57.173 104.479 60.5763 106.168 64.5937L73.5477 89.3928C72.9458 88.9299 72.3691 88.4356 71.8199 87.9119Z" fill="#F58220"/>
<path fill-rule="evenodd" clip-rule="evenodd" d="M74.4484 90.0592L107.74 71.3037C107.768 71.7753 107.787 72.2304 107.787 72.6996C107.793 77.0542 106.438 81.3028 103.91 84.8575L77.463 91.7759C76.4122 91.2875 75.4038 90.7133 74.4484 90.0592Z" fill="#F58220"/>
<path fill-rule="evenodd" clip-rule="evenodd" d="M80.1577 92.8306L97.5677 90.7344C94.9808 92.2915 92.0908 93.2836 89.0892 93.645C86.0877 94.0064 83.0432 93.7288 80.1577 92.8306Z" fill="#F58220"/>
<path d="M86.5378 94.0679C82.29 94.0618 78.1393 92.8031 74.6103 90.4506C71.0813 88.0982 68.3324 84.7577 66.7111 80.8514C65.0897 76.945 64.6687 72.6481 65.5011 68.5038C66.3336 64.3594 68.3821 60.5536 71.388 57.5672C74.3938 54.5809 78.2219 52.5482 82.3886 51.7259C86.5552 50.9036 90.8734 51.3287 94.7973 52.9474C98.7212 54.5662 102.075 57.3059 104.434 60.8204C106.793 64.3348 108.053 68.4663 108.053 72.6926C108.042 78.3638 105.771 83.7991 101.737 87.8063C97.704 91.8136 92.2378 94.0654 86.5378 94.0679ZM86.5378 51.8456C82.3949 51.8512 78.3466 53.0786 74.9046 55.3727C71.4626 57.6668 68.7814 60.9246 67.1999 64.7344C65.6183 68.5442 65.2074 72.7349 66.0191 76.777C66.8308 80.8191 68.8287 84.531 71.7601 87.4437C74.6916 90.3564 78.4252 92.3391 82.4889 93.1412C86.5527 93.9433 90.7642 93.5288 94.5912 91.9501C98.4182 90.3714 101.689 87.6994 103.99 84.2717C106.291 80.844 107.519 76.8146 107.519 72.6926C107.509 67.1618 105.295 61.8608 101.361 57.9526C97.4278 54.0443 92.0968 51.8481 86.5378 51.8456Z" fill="#231F20"/>
<path d="M60.7308 75.0872C61.0036 75.2425 61.3125 75.3238 61.6267 75.323C61.8593 75.3242 62.0897 75.2785 62.304 75.1885C62.5183 75.0985 62.712 74.9662 62.8733 74.7995C63.0394 74.633 63.17 74.4348 63.2572 74.2168C63.3443 73.9988 63.3863 73.7655 63.3805 73.5309C63.3799 73.2981 63.3329 73.0677 63.2421 72.8532C63.1513 72.6386 63.0187 72.444 62.8518 72.2809C62.6849 72.1177 62.4871 71.9891 62.2699 71.9025C62.0527 71.8159 61.8204 71.7731 61.5864 71.7766C61.3511 71.7735 61.1176 71.8183 60.9004 71.9084C60.6832 71.9984 60.4867 72.1317 60.3232 72.3C60.1566 72.4695 60.026 72.6706 59.9392 72.8914C59.8525 73.1122 59.8114 73.3482 59.8184 73.5851C59.8204 73.8936 59.9049 74.1959 60.0631 74.4611C60.2214 74.7263 60.4478 74.9449 60.719 75.0943M61.603 72.1868C61.8448 72.1855 62.083 72.2456 62.295 72.3613C62.5086 72.4725 62.6867 72.6407 62.8093 72.8471C62.9324 73.0567 62.997 73.2952 62.9966 73.538C62.9984 73.7167 62.9646 73.894 62.897 74.0596C62.8295 74.2252 62.7295 74.3757 62.6029 74.5026C62.4763 74.6294 62.3257 74.7299 62.1597 74.7983C61.9938 74.8667 61.8158 74.9015 61.6362 74.9009C61.3929 74.9038 61.153 74.8445 60.9394 74.7288C60.7286 74.6111 60.5535 74.4392 60.4322 74.2312C60.3074 74.029 60.241 73.7965 60.2402 73.5592C60.2378 73.3175 60.3008 73.0797 60.4227 72.8707C60.5365 72.6664 60.7025 72.4956 60.9038 72.3755C61.1151 72.2522 61.3558 72.1879 61.6006 72.1892H61.6148" fill="black"/>
<path d="M63.518 69.904L60.4275 67.9775L60.3801 67.9492L60.3161 68.3831L62.6363 69.8309L59.9914 70.5171L59.925 70.9486L63.5014 70.0219L63.518 69.904Z" fill="black"/>
<path d="M63.2123 60.1113L63.0108 60.5311L63.864 61.8374L62.3212 62.0048H62.2998L62.0984 62.4269L64.1792 62.2029L65.6368 62.8961L65.8098 62.5377L64.3523 61.8445L63.2123 60.1113Z" fill="black"/>
<path d="M64.2811 65.0865L61.4703 64.0395L61.3281 64.4168L64.5062 65.6029L65.0964 64.0372L64.729 63.9004L64.2811 65.0865Z" fill="black"/>
<path d="M63.0818 75.6507L63.269 76.9052L60.2971 77.3414L60.3587 77.7399L63.7146 77.2471L63.4705 75.5918L63.0818 75.6507Z" fill="black"/>
<path d="M63.5535 67.4748L62.3637 67.1682L62.7548 65.6686L62.3708 65.5695L61.9774 67.0692L61.0413 66.8263L61.437 65.3149L61.0507 65.2158L60.553 67.114L63.8379 67.9652L64.3332 66.0765L63.9469 65.9775L63.5535 67.4748Z" fill="black"/>
<path d="M83.2268 49.9739C83.3671 50.042 83.5211 50.0775 83.6771 50.0777C83.7221 50.0812 83.7673 50.0812 83.8122 50.0777C83.9396 50.0647 84.0631 50.0265 84.1755 49.9654C84.2878 49.9043 84.3867 49.8214 84.4664 49.7216C84.5458 49.6287 84.605 49.5203 84.6401 49.4034C84.6751 49.2865 84.6854 49.1636 84.6702 49.0425C84.6406 48.8589 84.5583 48.6878 84.4332 48.5497C84.2394 48.3491 84.0135 48.1818 83.7648 48.0545C83.6059 47.9717 83.4516 47.8804 83.3027 47.781C83.2313 47.7301 83.1695 47.667 83.1202 47.5947C83.0873 47.5363 83.0656 47.4723 83.0562 47.406C83.0488 47.3557 83.0523 47.3044 83.0666 47.2556C83.081 47.2067 83.1057 47.1615 83.1391 47.1231C83.1741 47.0801 83.2177 47.0447 83.267 47.0191C83.3163 46.9936 83.3704 46.9784 83.4259 46.9745C83.5195 46.9629 83.6145 46.9768 83.7008 47.0146C83.8323 47.0856 83.9502 47.179 84.0492 47.2905L84.0729 47.3188L84.3692 47.0311L84.3431 47.0052C84.2066 46.8471 84.0388 46.7187 83.8501 46.6279C83.7006 46.5654 83.537 46.5435 83.3761 46.5642C83.2274 46.5811 83.0855 46.6355 82.9638 46.7222C82.8454 46.8044 82.7526 46.9179 82.696 47.05C82.6388 47.1821 82.6192 47.3273 82.6391 47.4697C82.6585 47.6583 82.7422 47.8347 82.8761 47.9696C83.0509 48.1241 83.2444 48.2564 83.452 48.3634C83.6878 48.4748 83.9058 48.6202 84.099 48.7949C84.1765 48.8741 84.2271 48.9756 84.2436 49.0849C84.2515 49.1793 84.2336 49.274 84.1919 49.3591C84.1502 49.4441 84.0861 49.5164 84.0066 49.5683C83.9207 49.626 83.8225 49.6632 83.7198 49.6768C83.4828 49.7051 83.2458 49.5565 83.0088 49.2335L82.9875 49.2028L82.6699 49.4386L82.6889 49.4669C82.8247 49.6696 83.0066 49.8376 83.2197 49.9574" fill="black"/>
<path d="M80.9896 50.1121L80.7336 48.9166L82.2575 48.5936L82.1746 48.2069L80.6506 48.5299L80.4492 47.5891L81.9873 47.2637L81.9044 46.877L80.006 47.2778L79.9705 47.2849L80.6696 50.5484L80.6767 50.5837L82.5964 50.1782L82.5135 49.7891L80.9896 50.1121Z" fill="black"/>
<path d="M98.5892 53.051L98.7172 49.3536V49.33L98.6058 49.2734L95.6362 51.556L96.0367 51.7588L96.9847 51.0254L98.2218 51.6503L98.1887 52.8529L98.5892 53.051ZM98.2882 50.0327L98.2479 51.2117L97.3378 50.7401L98.2882 50.0327Z" fill="black"/>
<path d="M72.6378 54.4803L72.9696 54.2445L72.0832 52.9924L72.1946 52.9146L74.0408 53.4876H74.0574L74.4698 53.2023L72.6022 52.6246C72.771 52.5103 72.9159 52.3646 73.0288 52.1954C73.1177 52.0545 73.1615 51.8901 73.1544 51.7238C73.1407 51.5536 73.08 51.3904 72.9791 51.2522C72.8698 51.0793 72.7023 50.9507 72.5065 50.8893C72.3107 50.828 72.0993 50.8379 71.9102 50.9174C71.6818 51.0271 71.4643 51.1582 71.2608 51.3088L70.692 51.7073L72.6188 54.4544L72.6378 54.4803ZM71.249 51.8111L71.6993 51.4975C71.8262 51.3996 71.9688 51.3239 72.1211 51.2735C72.2161 51.2521 72.3154 51.2603 72.4055 51.297C72.5017 51.3314 72.5846 51.3949 72.6425 51.4786C72.7019 51.5624 72.7357 51.6615 72.7397 51.7639C72.7444 51.8652 72.7161 51.9652 72.6591 52.0492C72.56 52.1756 72.4397 52.2841 72.3036 52.3699L71.8604 52.6717L71.249 51.8111Z" fill="black"/>
<path d="M70.5141 56.2562L70.827 55.9991L69.834 54.8201L69.988 54.6904C70.2129 54.516 70.4193 54.3193 70.6042 54.1033C70.728 53.9457 70.7955 53.7516 70.7962 53.5515C70.7879 53.3442 70.7036 53.1471 70.5592 52.9974C70.4324 52.8356 70.2517 52.7244 70.0496 52.6838C69.8568 52.6498 69.6581 52.6787 69.4832 52.7663C69.2595 52.8972 69.0499 53.0505 68.8575 53.2238L68.3219 53.6694L70.481 56.2255L70.5141 56.2562ZM68.8954 53.7166L69.3173 53.3652C69.4344 53.2571 69.569 53.1695 69.7155 53.1059C69.8086 53.0751 69.9091 53.0751 70.0022 53.1059C70.0958 53.1353 70.1784 53.192 70.2392 53.2686C70.3071 53.3462 70.3501 53.4423 70.3625 53.5445C70.3745 53.6449 70.3537 53.7466 70.3032 53.8345C70.2147 53.9712 70.1024 54.091 69.9714 54.1882L69.5638 54.5207L68.8954 53.7166Z" fill="black"/>
<path d="M75.0361 52.3771C75.212 52.4345 75.396 52.464 75.5812 52.4643C75.8678 52.4621 76.1498 52.3918 76.4035 52.2592C76.7162 52.0985 76.9743 51.8495 77.1453 51.5435C77.3163 51.2374 77.3926 50.888 77.3648 50.5389C77.3369 50.1898 77.2061 49.8567 76.9887 49.5814C76.7714 49.306 76.4771 49.1006 76.1428 48.991C75.9156 48.9195 75.6763 48.8939 75.4391 48.9158C75.2018 48.9376 74.9713 49.0065 74.7611 49.1183C74.483 49.2612 74.2482 49.4753 74.0809 49.7385C73.912 49.9985 73.817 50.2992 73.806 50.6086C73.7921 50.9233 73.8607 51.2361 74.0051 51.5164C74.1084 51.7239 74.2531 51.9082 74.4303 52.0582C74.6076 52.2082 74.8137 52.3207 75.0361 52.3889M74.216 50.6204C74.23 50.3823 74.3054 50.1517 74.4349 49.951C74.5644 49.7503 74.7437 49.5862 74.9555 49.4744C75.1754 49.3642 75.4207 49.3138 75.6665 49.3282C75.9068 49.3385 76.14 49.4126 76.3419 49.5428C76.5444 49.6768 76.7078 49.8614 76.8159 50.078C76.9286 50.2965 76.9832 50.54 76.9747 50.7854C76.965 51.0236 76.8896 51.2545 76.7567 51.4528C76.6222 51.6543 76.4366 51.817 76.2187 51.9244C76.0582 52.0059 75.8831 52.0548 75.7034 52.0683C75.5237 52.0818 75.3432 52.0596 75.1722 52.0029C75.0013 51.9463 74.8434 51.8564 74.7077 51.7385C74.572 51.6205 74.4613 51.4769 74.3819 51.316C74.2681 51.0979 74.2126 50.8542 74.2208 50.6086" fill="black"/>
<path d="M93.861 48.4005L95.1314 51.3598L95.1361 51.3739L95.2593 51.414L96.3069 48.2048L95.9277 48.0822L95.1598 50.4284L93.8753 47.4196L93.7568 47.3818L92.7092 50.5887L93.105 50.7184L93.861 48.4005Z" fill="black"/>
<path d="M78.565 51.2359L78.9466 51.1133L78.4442 49.5758L79.7145 49.1656L79.5889 48.7859L78.3209 49.1962L78.0199 48.2837L79.2903 47.8734L79.167 47.4961L77.5151 48.029L78.5532 51.2029L78.565 51.2359Z" fill="black"/>
<path d="M90.3582 50.2094C90.4684 50.2299 90.5802 50.2402 90.6923 50.24C91.0157 50.2331 91.3311 50.1392 91.6051 49.9683C91.8791 49.7974 92.1015 49.5559 92.2488 49.2695C92.396 48.983 92.4626 48.6622 92.4414 48.3412C92.4203 48.0201 92.3122 47.7107 92.1286 47.4458C91.9903 47.2517 91.8141 47.0873 91.6105 46.9625C91.4069 46.8377 91.18 46.7551 90.9436 46.7196C90.6384 46.6666 90.3246 46.6942 90.0335 46.7997C89.7402 46.9047 89.4813 47.0874 89.2846 47.3279C89.0831 47.5707 88.9491 47.8617 88.8959 48.1721C88.8501 48.4022 88.8529 48.6394 88.9043 48.8683C88.9558 49.0973 89.0546 49.3131 89.1945 49.502C89.3293 49.6946 89.5019 49.858 89.7019 49.9824C89.9019 50.1068 90.1251 50.1897 90.3582 50.2259M89.313 48.2523C89.3529 48.0096 89.4568 47.7818 89.614 47.592C89.7675 47.4069 89.968 47.266 90.1946 47.1841C90.3465 47.1286 90.5069 47.0999 90.6686 47.0992C90.748 47.0993 90.8273 47.1057 90.9056 47.1181C91.1445 47.1608 91.3678 47.2658 91.5527 47.4222C91.7389 47.5728 91.8806 47.7709 91.9627 47.9952C92.0446 48.2218 92.0643 48.466 92.0195 48.7026C91.9789 48.9439 91.876 49.1706 91.7209 49.3605C91.5681 49.5442 91.3684 49.6835 91.1426 49.7637C90.9149 49.845 90.6695 49.8645 90.4316 49.8203C90.2542 49.7915 90.0843 49.7279 89.9317 49.6333C89.7792 49.5386 89.647 49.4147 89.543 49.2689C89.4389 49.123 89.365 48.958 89.3255 48.7835C89.286 48.609 89.2818 48.4284 89.313 48.2523Z" fill="black"/>
<path d="M100.535 53.8884L99.4541 53.2164L101.047 50.6863L100.701 50.4717L98.9185 53.3013L98.9019 53.3319L100.326 54.2185L100.535 53.8884Z" fill="black"/>
<path d="M86.2865 47.8843C85.9855 47.6697 85.886 47.5919 85.8552 47.5636C85.79 47.5049 85.7355 47.4355 85.694 47.3584C85.6663 47.2976 85.651 47.2319 85.649 47.1651C85.6471 47.1142 85.6561 47.0636 85.6753 47.0165C85.6945 46.9693 85.7235 46.9268 85.7604 46.8916C85.8006 46.8529 85.8481 46.8225 85.9002 46.8023C85.9522 46.7821 86.0078 46.7723 86.0637 46.7737C86.1585 46.7705 86.2522 46.7942 86.3339 46.842C86.4553 46.9243 86.5619 47.0263 86.6491 47.1439L86.6704 47.1722L86.9928 46.9198L86.9714 46.8916C86.8526 46.7192 86.6993 46.5731 86.5211 46.4624C86.3859 46.3891 86.2343 46.351 86.0803 46.3516H86.0614C85.9126 46.3528 85.7666 46.3917 85.6371 46.4648C85.5115 46.5347 85.4074 46.6374 85.3361 46.7619C85.2651 46.8885 85.2298 47.0319 85.2342 47.1769C85.2381 47.367 85.3057 47.5504 85.4262 47.698C85.5848 47.8685 85.7639 48.019 85.9594 48.146C86.1731 48.289 86.3647 48.4622 86.5282 48.6601C86.5969 48.7473 86.6366 48.8536 86.642 48.9642C86.6444 49.0547 86.6205 49.1439 86.5733 49.2213C86.5261 49.3055 86.4553 49.3744 86.3695 49.4193C86.2785 49.4687 86.1768 49.4954 86.0732 49.4971C85.8362 49.4971 85.5992 49.3297 85.4049 48.9831L85.3883 48.9501L85.047 49.1599L85.0636 49.1906C85.1752 49.4068 85.3379 49.5929 85.5376 49.7329C85.7026 49.837 85.8945 49.8911 86.0898 49.8886H86.1088C86.2366 49.889 86.3633 49.8639 86.4814 49.8149C86.5994 49.7659 86.7064 49.694 86.7961 49.6033C86.8848 49.5187 86.9551 49.4169 87.0024 49.3041C87.0497 49.1913 87.073 49.0699 87.071 48.9477C87.064 48.7638 87.003 48.5859 86.8956 48.436C86.7253 48.2158 86.5185 48.026 86.2841 47.8748" fill="black"/>
<path d="M88.3034 46.5539L88.3058 46.5185L87.9029 46.4902L87.6683 49.8221L87.6659 49.8575L88.0688 49.8858L88.3034 46.5539Z" fill="black"/>
<path d="M113.21 72.976C113.143 72.8489 113.043 72.7421 112.921 72.6671C112.796 72.5928 112.654 72.5529 112.508 72.5515H112.492C112.306 72.5527 112.125 72.614 111.977 72.726C111.799 72.8772 111.64 73.049 111.503 73.2377C111.353 73.4458 111.172 73.6309 110.968 73.7871C110.879 73.8541 110.771 73.8897 110.66 73.8885C110.568 73.8859 110.479 73.8591 110.401 73.8107C110.318 73.7606 110.252 73.6877 110.209 73.6008C110.163 73.5089 110.14 73.4067 110.143 73.3037C110.143 73.0679 110.328 72.8439 110.683 72.66L110.717 72.6435L110.515 72.2969L110.484 72.3134C110.264 72.4181 110.071 72.5732 109.923 72.7661C109.809 72.9323 109.747 73.1285 109.745 73.3297C109.741 73.4566 109.763 73.5829 109.808 73.7014C109.854 73.82 109.923 73.9285 110.01 74.0206C110.091 74.1126 110.191 74.1865 110.303 74.2373C110.415 74.2881 110.537 74.3147 110.66 74.3153H110.674C110.854 74.3103 111.03 74.2556 111.181 74.1573C111.409 73.9971 111.607 73.7984 111.766 73.5702C112.003 73.2684 112.079 73.1788 112.103 73.1552C112.164 73.0913 112.236 73.0394 112.316 73.0019C112.378 72.9728 112.445 72.9598 112.513 72.9642C112.564 72.9636 112.614 72.9738 112.661 72.9942C112.707 73.0145 112.749 73.0445 112.783 73.0821C112.821 73.1232 112.851 73.1715 112.869 73.2242C112.888 73.2769 112.896 73.3329 112.892 73.3886C112.89 73.482 112.863 73.5731 112.814 73.6527C112.724 73.7714 112.614 73.8735 112.489 73.9545L112.461 73.9781L112.698 74.3059L112.729 74.287C112.904 74.1738 113.055 74.0262 113.172 73.8532C113.255 73.7164 113.3 73.5602 113.302 73.4004C113.305 73.2521 113.271 73.1054 113.203 72.9736" fill="black"/>
<path d="M109.771 74.8418L109.742 75.2427L113.094 75.4761L113.132 75.4785L113.158 75.0776L109.809 74.8442L109.771 74.8418Z" fill="black"/>
<path d="M106.863 58.9343L108.448 57.6586L108.195 57.3474L106.607 58.6231C106.478 58.7351 106.339 58.8339 106.19 58.9178C106.092 58.9615 105.986 58.9848 105.879 58.9862C105.776 58.9838 105.675 58.9591 105.583 58.9139C105.49 58.8688 105.409 58.8041 105.344 58.7245C105.266 58.628 105.21 58.5151 105.183 58.3943C105.153 58.2847 105.153 58.1692 105.183 58.0595C105.218 57.9535 105.278 57.8574 105.358 57.7789C105.396 57.7388 105.505 57.6445 105.692 57.4936L107.278 56.2156L107.024 55.9043L105.429 57.1729C105.236 57.3133 105.063 57.4791 104.915 57.6657C104.786 57.8528 104.73 58.0797 104.756 58.3047C104.783 58.5527 104.885 58.7868 105.047 58.9768C105.192 59.1616 105.395 59.2927 105.623 59.3493C105.71 59.3697 105.799 59.38 105.889 59.38C106.007 59.3804 106.125 59.3588 106.235 59.3163C106.461 59.2189 106.671 59.0877 106.858 58.9273" fill="black"/>
<path d="M109.633 69.3162L110.027 69.2408L109.728 67.7199L110.937 67.4864L111.233 69.0073L111.624 68.9319L111.326 67.411L112.276 67.2294L112.577 68.7621L112.968 68.6843L112.591 66.7578L109.259 67.4015L109.633 69.3162Z" fill="black"/>
<path d="M110.477 61.0516L110.278 60.7074L108.129 61.9406L109.195 58.8681L109.2 58.8516L109.138 58.7432L106.228 60.4126L106.197 60.4291L106.406 60.7875L108.529 59.5708L107.474 62.6291L107.538 62.7376L110.446 61.0682L110.477 61.0516Z" fill="black"/>
<path d="M112.549 76.8571L109.629 76.3478L109.596 76.3407L109.522 76.7439L112.477 77.2603L112.349 77.9842L112.738 78.0526L113.06 76.237L113.065 76.1992L112.677 76.1309L112.549 76.8571Z" fill="black"/>
<path d="M109.695 70.2534L111.233 70.119V70.2534L109.811 71.555V71.5668L109.854 72.0667L111.29 70.7486C111.306 70.9511 111.361 71.1487 111.451 71.331C111.532 71.4804 111.656 71.602 111.807 71.68C111.964 71.7546 112.138 71.7848 112.312 71.7672C112.518 71.757 112.714 71.6733 112.864 71.5314C113.006 71.3916 113.097 71.208 113.122 71.0103C113.139 70.7587 113.133 70.5062 113.103 70.2557L113.041 69.5625L109.659 69.8572L109.695 70.2534ZM111.98 71.2956C111.889 71.2491 111.816 71.1746 111.771 71.0834C111.71 70.9333 111.675 70.7737 111.669 70.6118L111.627 70.0813L112.681 69.9893L112.729 70.5316C112.75 70.6886 112.745 70.8479 112.714 71.0032C112.686 71.0968 112.629 71.1792 112.551 71.239C112.473 71.3026 112.377 71.3398 112.276 71.3451C112.174 71.3566 112.07 71.3369 111.98 71.2886" fill="black"/>
<path d="M109.129 78.6351L109.027 79.0194L110.584 79.4345L112.025 80.9294L112.146 80.479L111.067 79.3519L112.572 78.9015L112.693 78.4512L110.688 79.0501L109.129 78.6351Z" fill="black"/>
<path d="M112.352 65.8736L112.207 65.4609L109.475 65.2416L111.482 63.4331L111.501 63.4189L111.356 63.0039L108.638 65.4539L108.621 65.4704L108.659 65.5836L112.297 65.8689L112.352 65.8736Z" fill="black"/>
<path d="M111.055 62.3245L110.887 61.959L107.842 63.3691L107.808 63.3856L107.979 63.7487L111.022 62.3386L111.055 62.3245Z" fill="black"/>
<path d="M98.4233 92.3186L98.3143 92.3823L98.6532 96.0985L99.0419 95.8627L98.9352 94.6648L100.12 93.9574L101.125 94.6294L101.502 94.4101L98.4328 92.3115L98.4233 92.3186ZM99.7742 93.7334L98.8926 94.2474L98.7859 93.0684L99.7742 93.7334Z" fill="black"/>
<path d="M88.0948 98.6992C88.0124 98.3269 87.9624 97.9482 87.9455 97.5673C87.9266 97.153 87.9537 96.7378 88.026 96.3294C88.0847 95.9655 88.1874 95.61 88.3318 95.2706L88.3555 95.2188L87.9075 95.2376V95.2588C87.768 95.6234 87.6694 96.0022 87.6137 96.3883C87.5515 96.7987 87.5301 97.2141 87.5497 97.6286C87.5651 98.0079 87.6143 98.3851 87.6966 98.7558C87.7666 99.0801 87.8707 99.3962 88.0071 99.699L88.0189 99.7202L88.4432 99.7013L88.4195 99.6541C88.2815 99.3516 88.1759 99.0354 88.1043 98.7109" fill="black"/>
<path d="M89.4537 95.2821L89.0496 95.3135L89.3139 98.6775L89.718 98.6461L89.4537 95.2821Z" fill="black"/>
<path d="M95.8353 94.373C95.5711 94.1712 95.2465 94.0633 94.9134 94.0665C94.5464 94.0935 94.1858 94.177 93.8445 94.3141L93.162 94.5499L94.2806 97.6978L94.2925 97.7308L95.3258 97.3677C95.6475 97.273 95.9423 97.1042 96.1861 96.8749C96.3717 96.6711 96.4936 96.4179 96.5369 96.1462C96.5883 95.8395 96.5573 95.5246 96.4468 95.2337C96.3352 94.8943 96.1259 94.5951 95.8448 94.373M94.5271 97.2451L93.6549 94.7951L93.8422 94.7291C94.1598 94.603 94.493 94.5197 94.8328 94.4815C95.0984 94.4648 95.3616 94.5406 95.577 94.6961C95.8001 94.8688 95.9654 95.1047 96.051 95.3728C96.1478 95.6207 96.1668 95.892 96.1055 96.1509C96.0449 96.3859 95.9052 96.5931 95.7097 96.7381C95.4407 96.9056 95.1506 97.0373 94.8471 97.1295L94.5271 97.2451Z" fill="black"/>
<path d="M92.2304 94.7892L92.7234 97.2061L90.1283 95.223L90.1164 95.2136L89.9932 95.2395L90.6615 98.5101L90.6686 98.5454L91.0763 98.4629L90.588 96.0743L93.1595 98.0314L93.1713 98.0408L93.2969 98.0149L92.6215 94.709L92.2304 94.7892Z" fill="black"/>
<path d="M71.775 91.4161C71.9181 91.2665 72.0023 91.0706 72.012 90.8643C72.0147 90.67 71.9531 90.4803 71.8366 90.3243C71.67 90.1258 71.4834 89.9449 71.2796 89.7844L70.7488 89.334L68.5423 91.8971L68.8504 92.1589L69.8363 91.0034L69.9904 91.1331C70.2005 91.3258 70.43 91.4965 70.6753 91.6425C70.8524 91.7387 71.057 91.7727 71.2559 91.7391C71.4633 91.6993 71.6482 91.5841 71.775 91.4161ZM71.583 90.8785C71.5694 90.9789 71.5266 91.0732 71.4598 91.1496C71.3931 91.2279 71.305 91.2852 71.2062 91.3147C71.11 91.3462 71.0061 91.3462 70.9099 91.3147C70.759 91.2501 70.6209 91.1591 70.5023 91.0459L70.1041 90.7016L70.7938 89.9023L71.2109 90.2583C71.3377 90.3544 71.4468 90.4717 71.5332 90.6049C71.579 90.6918 71.5964 90.7907 71.583 90.8879" fill="black"/>
<path d="M102.488 93.4886C102.142 92.7709 101.667 92.1221 101.087 91.5739C100.848 91.3456 100.585 91.1432 100.303 90.9702L100.281 90.9561L99.94 91.2084L99.985 91.2367C100.272 91.4114 100.539 91.6161 100.781 91.8474C101.06 92.1085 101.313 92.3942 101.54 92.701C101.788 93.0344 102 93.3933 102.173 93.7715C102.329 94.106 102.444 94.4584 102.514 94.8208L102.526 94.8774L102.886 94.6133V94.5897C102.798 94.2091 102.667 93.8397 102.495 93.4886" fill="black"/>
<path d="M96.6268 93.21L96.2594 93.3774L97.6648 96.4475L98.0322 96.2824L96.641 93.243L96.6268 93.21Z" fill="black"/>
<path d="M77.2355 93.5659L76.086 95.7541L75.3253 92.5897L75.3205 92.5732L75.2115 92.5166L73.6568 95.4782L73.6426 95.5089L74.0099 95.6999L75.1452 93.54L75.9036 96.6667L75.9059 96.6832L76.0197 96.7421L77.5886 93.7475L77.2355 93.5659Z" fill="black"/>
<path d="M74.2634 92.0263L73.1353 93.717C73.0468 93.8623 72.9436 93.9982 72.8272 94.1226C72.7473 94.1945 72.6527 94.2483 72.5499 94.2805C72.4528 94.3118 72.3497 94.3199 72.2489 94.3041C72.1465 94.2892 72.0487 94.2522 71.9622 94.1957C71.8578 94.1252 71.7704 94.0326 71.7062 93.9245C71.6433 93.8298 71.608 93.7196 71.6043 93.6062C71.6057 93.4952 71.6333 93.3862 71.6849 93.2878C71.7038 93.2501 71.7583 93.1558 71.9219 92.9176L73.05 91.2246L72.7063 91.0029L71.5782 92.696C71.4366 92.8871 71.3218 93.0966 71.2369 93.3185C71.1733 93.535 71.1875 93.7668 71.2772 93.974C71.3765 94.2014 71.5415 94.3943 71.7512 94.5281C71.923 94.6479 72.1269 94.7136 72.3366 94.7168H72.4125C72.6212 94.7074 72.8218 94.6332 72.986 94.5046C73.1709 94.3436 73.3307 94.156 73.46 93.9481L74.5881 92.2574L74.2634 92.0263Z" fill="black"/>
<path d="M79.0153 94.1768L78.3327 96.3273C78.2863 96.5014 78.217 96.6687 78.1266 96.8248C78.0758 96.8968 78.0037 96.9512 77.9204 96.9804C77.8388 97.0076 77.7507 97.0076 77.6691 96.9804C77.6016 96.9579 77.5395 96.9218 77.4866 96.8743C77.3658 96.7626 77.2563 96.6394 77.1596 96.5065L77.1359 96.4758L76.8349 96.7116L76.8515 96.7375C76.9432 96.8862 77.0567 97.0205 77.188 97.1361C77.297 97.2249 77.4215 97.2928 77.5554 97.3365C77.6497 97.3663 77.7479 97.3822 77.8469 97.3836C77.9141 97.3834 77.981 97.3747 78.046 97.3577C78.1907 97.319 78.3199 97.2366 78.4157 97.1219C78.5526 96.9168 78.6543 96.6905 78.7167 96.4522L79.404 94.2923L79.0153 94.1768Z" fill="black"/>
<path d="M84.9048 97.1451C84.8162 97.0487 84.7111 96.9689 84.5943 96.9093C84.7112 96.8554 84.8136 96.7746 84.8929 96.6735C84.9853 96.5581 85.0436 96.4193 85.0612 96.2727C85.0826 96.116 85.0588 95.9565 84.9925 95.8129C84.9263 95.6695 84.8181 95.5495 84.682 95.4686C84.4949 95.3709 84.2904 95.3108 84.08 95.2918L83.3927 95.2021L82.9471 98.5482L83.8951 98.6731C83.9628 98.6805 84.0309 98.6844 84.099 98.6849C84.3258 98.6907 84.5485 98.6238 84.7341 98.4939C84.8425 98.4196 84.9337 98.323 85.0015 98.2108C85.0694 98.0986 85.1123 97.9732 85.1275 97.8431C85.1462 97.7143 85.1357 97.583 85.0967 97.4588C85.0606 97.3373 84.9965 97.2259 84.9095 97.1334M83.7055 97.0437C83.9002 97.0629 84.0923 97.1016 84.2791 97.1593C84.4187 97.2078 84.5397 97.2985 84.6251 97.4187C84.6996 97.5287 84.7308 97.6621 84.7128 97.7936C84.6993 97.9019 84.652 98.0033 84.5777 98.0836C84.5029 98.168 84.4048 98.2286 84.2957 98.2581C84.1225 98.2897 83.9451 98.2897 83.7719 98.2581L83.3998 98.2086L83.5562 97.0296L83.7055 97.0437ZM84.5256 96.492C84.4561 96.5696 84.3642 96.6239 84.2625 96.6476C84.097 96.6762 83.9279 96.6762 83.7624 96.6476L83.6107 96.6287L83.7411 95.6502L84.0847 95.6973C84.2588 95.703 84.4258 95.767 84.5587 95.8789C84.6015 95.9245 84.6329 95.9793 84.6506 96.039C84.6683 96.0988 84.6717 96.1619 84.6607 96.2232C84.6483 96.3251 84.6044 96.4207 84.535 96.4967" fill="black"/>
<path d="M81.3759 94.8574L79.0201 97.7648L79.4585 97.8686L80.2193 96.9254L81.5678 97.2484L81.8191 98.4274L82.2433 98.5288L81.492 94.8881L81.3759 94.8574ZM81.4849 96.8358L80.4895 96.6L81.255 95.6709L81.4849 96.8358Z" fill="black"/>
<path fill-rule="evenodd" clip-rule="evenodd" d="M65.6439 85.4736C65.8314 85.4736 66.0146 85.529 66.1705 85.6326C66.3264 85.7362 66.4479 85.8835 66.5197 86.0559C66.5915 86.2282 66.6102 86.4179 66.5736 86.6008C66.5371 86.7838 66.4468 86.9519 66.3142 87.0838C66.1816 87.2157 66.0127 87.3055 65.8288 87.3419C65.6449 87.3783 65.4543 87.3596 65.2811 87.2882C65.1079 87.2168 64.9598 87.096 64.8556 86.9408C64.7515 86.7857 64.6959 86.6034 64.6959 86.4168C64.6959 86.1667 64.7957 85.9268 64.9735 85.7499C65.1513 85.573 65.3924 85.4736 65.6439 85.4736Z" fill="#231F20"/>
<path d="M65.6438 87.4426C65.4414 87.4421 65.2437 87.382 65.0756 87.2698C64.9076 87.1575 64.7767 86.9983 64.6996 86.8121C64.6224 86.6259 64.6025 86.4212 64.6423 86.2238C64.682 86.0263 64.7797 85.845 64.923 85.7028C65.0663 85.5606 65.2487 85.4638 65.4473 85.4247C65.6458 85.3856 65.8516 85.4059 66.0385 85.483C66.2255 85.5602 66.3852 85.6908 66.4976 85.8582C66.61 86.0257 66.67 86.2226 66.67 86.4239C66.6694 86.6943 66.561 86.9534 66.3686 87.1444C66.1762 87.3353 65.9155 87.4426 65.6438 87.4426ZM65.6438 85.5562C65.4689 85.5562 65.298 85.6078 65.1527 85.7044C65.0073 85.8011 64.894 85.9384 64.8271 86.0991C64.7602 86.2598 64.7427 86.4367 64.7768 86.6073C64.8109 86.7779 64.8951 86.9346 65.0187 87.0576C65.1423 87.1806 65.2998 87.2644 65.4713 87.2984C65.6428 87.3323 65.8205 87.3149 65.9821 87.2483C66.1436 87.1817 66.2817 87.069 66.3788 86.9244C66.4759 86.7797 66.5278 86.6097 66.5278 86.4357C66.5272 86.2026 66.4338 85.9793 66.2682 85.8145C66.1025 85.6497 65.878 85.5568 65.6438 85.5562Z" fill="#231F20"/>
<path fill-rule="evenodd" clip-rule="evenodd" d="M107.183 85.4736C107.37 85.4736 107.554 85.529 107.709 85.6326C107.865 85.7362 107.987 85.8835 108.059 86.0559C108.13 86.2282 108.149 86.4179 108.113 86.6008C108.076 86.7838 107.986 86.9519 107.853 87.0838C107.72 87.2157 107.552 87.3055 107.368 87.3419C107.184 87.3783 106.993 87.3596 106.82 87.2882C106.647 87.2168 106.499 87.096 106.395 86.9408C106.29 86.7857 106.235 86.6034 106.235 86.4168C106.235 86.1667 106.335 85.9268 106.512 85.7499C106.69 85.573 106.931 85.4736 107.183 85.4736Z" fill="#231F20"/>
<path d="M107.183 87.4426C106.98 87.4421 106.783 87.382 106.615 87.2698C106.447 87.1575 106.316 86.9983 106.239 86.8121C106.161 86.6259 106.142 86.4212 106.181 86.2238C106.221 86.0263 106.319 85.845 106.462 85.7028C106.605 85.5606 106.788 85.4638 106.986 85.4247C107.185 85.3856 107.391 85.4059 107.578 85.483C107.764 85.5602 107.924 85.6908 108.037 85.8582C108.149 86.0257 108.209 86.2226 108.209 86.4239C108.208 86.6943 108.1 86.9534 107.908 87.1444C107.715 87.3353 107.455 87.4426 107.183 87.4426ZM107.183 85.5562C107.008 85.5562 106.837 85.6078 106.692 85.7044C106.546 85.8011 106.433 85.9384 106.366 86.0991C106.299 86.2598 106.282 86.4367 106.316 86.6073C106.35 86.7779 106.434 86.9346 106.558 87.0576C106.681 87.1806 106.839 87.2644 107.01 87.2984C107.182 87.3323 107.36 87.3149 107.521 87.2483C107.683 87.1817 107.821 87.069 107.918 86.9244C108.015 86.7797 108.067 86.6097 108.067 86.4357C108.067 86.2025 107.974 85.9787 107.808 85.8138C107.642 85.6488 107.417 85.5562 107.183 85.5562Z" fill="#231F20"/>
<path d="M130.304 62.8909H139.936V68.2695H124.702V45.4512H130.304V62.8909Z" fill="#F58220"/>
<path d="M152.518 45.2578C157.958 45.2578 160.643 49.5022 160.576 53.5368C160.51 57.5123 157.823 61.4903 152.518 61.4903H148.85V68.2695H143.247V45.2578H152.518ZM152.518 56.2414C154.253 56.2414 155.106 54.8407 155.106 53.5037C155.106 52.1668 154.253 50.6741 152.518 50.6741H148.85V56.2485L152.518 56.2414Z" fill="#F58220"/>
<path d="M163.755 60.9362V45.4512H169.357V60.9031C169.357 64.327 175.844 64.2609 175.844 60.9031V45.4512H181.449V60.9362C181.449 66.086 176.991 68.6303 172.569 68.5973C168.146 68.5643 163.755 66.086 163.755 60.9362Z" fill="#F58220"/>
<path d="M197.174 45.0928C203.727 45.0928 209.067 50.179 209.067 56.8946C209.067 63.5111 203.727 68.5973 197.174 68.5973C190.621 68.5973 185.324 63.6101 185.324 56.8946C185.324 50.179 190.63 45.1046 197.174 45.1046M197.044 63.3272C200.222 63.3602 203.443 61.205 203.443 56.9064C203.443 52.537 200.231 50.3865 197.044 50.4525C193.932 50.5162 190.882 52.636 190.882 56.9064C190.882 61.1767 193.93 63.2942 197.044 63.3272Z" fill="#231F20"/>
<path d="M216.373 50.6344V52.3958C217.618 50.8301 219.715 50.375 221.616 50.375C226.662 50.441 228.039 54.1478 228.015 58.5573V68.2699H222.763V58.5903C222.763 56.2087 221.419 55.1334 220.011 55.1334C219.09 55.1649 218.218 55.5571 217.586 56.2249C216.954 56.8926 216.613 57.7818 216.637 58.6987V68.2817H211.164V50.6344H216.373Z" fill="#231F20"/>
<path d="M236.326 45.4512H231.084V68.2695H236.326V45.4512Z" fill="#231F20"/>
<path d="M242.159 43.7556C243.73 43.7249 245.368 44.6988 245.368 46.7573C245.368 48.6437 243.894 49.5869 242.387 49.6246C240.815 49.6577 239.178 48.7121 239.178 46.7573C239.178 44.8025 240.652 43.7886 242.159 43.7556ZM239.668 68.2788H244.911V50.6339H239.668V68.2788Z" fill="#231F20"/>
<path d="M253.528 50.6344V52.3958C254.772 50.8301 256.87 50.375 258.77 50.375C263.814 50.441 265.191 54.1478 265.169 58.5573V68.2699H259.915V58.5903C259.915 56.2087 258.574 55.1334 257.164 55.1334C256.243 55.1655 255.372 55.558 254.74 56.2257C254.108 56.8934 253.767 57.7822 253.791 58.6987V68.2817H248.319V50.6344H253.528Z" fill="#231F20"/>
<path d="M285.995 61.4238H273.284C273.905 63.0555 275.512 63.8691 277.076 63.9021C277.631 63.9213 278.183 63.8249 278.698 63.619C279.212 63.4131 279.678 63.1023 280.065 62.7066H285.667C284.293 66.6185 280.558 68.5426 276.823 68.4766C272.334 68.3799 267.878 65.3805 267.878 59.4148C267.878 53.3524 272.497 50.353 277.121 50.386C281.676 50.419 286.196 53.4184 286.196 59.4148C286.2 60.0933 286.134 60.7704 285.999 61.4356M280.562 57.427C280.07 55.6656 278.629 54.8521 276.958 54.8521C276.172 54.8309 275.402 55.0734 274.772 55.5405C274.142 56.0076 273.688 56.6721 273.483 57.427H280.562Z" fill="#231F20"/>
<path d="M286.689 73.4551H124.131" stroke="black" stroke-width="0.35501" stroke-miterlimit="10"/>
<path d="M129.527 80.0051C129.356 79.2388 128.522 78.9086 127.776 78.9204C127.2 78.9322 126.562 79.1279 126.221 79.5665C126.052 79.7942 125.977 80.0779 126.012 80.3588C126.074 81.236 127.041 81.3468 127.961 81.4317C129.146 81.5779 130.594 81.8821 130.925 83.2474C130.963 83.4322 130.983 83.62 130.987 83.8086C130.987 85.4592 129.345 86.4024 127.802 86.4024C126.477 86.4024 124.872 85.6242 124.721 84.0986L124.707 83.8628L125.958 83.8392L125.97 84.0208V83.9736C126.055 84.7659 127.024 85.1786 127.821 85.1786C128.738 85.1786 129.743 84.6669 129.743 83.7897C129.741 83.6913 129.729 83.5933 129.707 83.4973C129.56 82.8512 128.679 82.7404 127.811 82.6555C126.475 82.5211 124.906 82.2287 124.773 80.4508V80.4626C124.719 79.8816 124.889 79.302 125.247 78.8403C125.823 78.0975 126.851 77.7061 127.854 77.7061C129.176 77.7061 130.549 78.3899 130.769 79.9509L129.527 80.0051Z" fill="#231F20"/>
<path d="M139.28 79.7362V86.3386H138.078V85.4496C137.604 86.1688 136.535 86.4376 135.708 86.4494C133.393 86.4494 132.141 84.8271 132.141 83.0114C132.141 81.1958 133.44 79.6348 135.682 79.6348C136.504 79.6348 137.495 79.8305 138.085 80.6228L138.071 79.7432L139.28 79.7362ZM135.665 80.6794C134.22 80.7029 133.35 81.7145 133.35 83.0067C133.35 84.2989 134.243 85.4213 135.763 85.3836C136.071 85.3843 136.377 85.3234 136.662 85.2045C136.947 85.0856 137.205 84.911 137.421 84.6912C137.637 84.4713 137.806 84.2107 137.919 83.9246C138.032 83.6385 138.086 83.3328 138.078 83.0256C138.078 81.441 136.793 80.6676 135.665 80.6676" fill="#231F20"/>
<path d="M142.354 79.628V80.5547C142.557 80.2529 142.835 80.0088 143.162 79.8463C143.488 79.6839 143.852 79.6086 144.216 79.628C145.148 79.628 145.98 79.8473 146.47 80.774C146.876 80.043 147.622 79.6398 148.589 79.628C150.416 79.628 151.213 80.9084 151.213 82.5778V86.3318H150.011V82.5896C150.011 81.6629 149.774 80.7386 148.627 80.7386C147.48 80.7386 146.861 81.5427 146.861 82.625V86.3412H145.662V82.6274C145.662 81.7007 145.307 80.741 144.205 80.741C143.15 80.741 142.354 81.4484 142.354 82.75V86.3341H141.152V79.628H142.354Z" fill="#231F20"/>
<path d="M159.465 83.3205H153.843C153.843 84.6127 155.081 85.3932 156.074 85.3932C156.473 85.4128 156.87 85.3205 157.219 85.1266C157.568 84.9327 157.855 84.6452 158.048 84.2967H159.285C158.782 85.7351 157.422 86.4543 156.062 86.4543C154.358 86.4543 152.644 85.3083 152.644 83.0422C152.644 80.7762 154.334 79.6396 156.085 79.6396C157.728 79.6396 159.347 80.6772 159.479 82.7475C159.504 82.9385 159.496 83.1322 159.456 83.3205M158.218 82.3348C157.981 81.1558 157.033 80.6842 156.085 80.6842C155.137 80.6842 154.137 81.1558 153.893 82.3348H158.218Z" fill="#231F20"/>
<path d="M167.319 77.7275C170.125 77.7275 171.535 79.9441 171.535 82.078C171.535 84.212 170.125 86.3224 167.319 86.3224H164.238V77.7275H167.319ZM167.319 85.101C169.305 85.101 170.31 83.5895 170.31 82.078C170.31 80.5666 169.305 78.9584 167.319 78.9584H165.482V85.1081L167.319 85.101Z" fill="#231F20"/>
<path d="M179.473 83.3205H173.86C173.86 84.6127 175.098 85.3932 176.091 85.3932C176.49 85.4128 176.887 85.3205 177.236 85.1266C177.585 84.9327 177.872 84.6452 178.065 84.2967H179.302C178.799 85.7351 177.439 86.4543 176.079 86.4543C174.377 86.4543 172.661 85.3083 172.661 83.0422C172.661 80.7762 174.351 79.6396 176.102 79.6396C177.745 79.6396 179.361 80.6772 179.496 82.7475C179.521 82.9385 179.513 83.1322 179.473 83.3205ZM178.235 82.3348C177.998 81.1558 177.05 80.6842 176.102 80.6842C175.154 80.6842 174.154 81.1558 173.91 82.3348H178.235Z" fill="#231F20"/>
<path d="M184.042 88.9313C182.383 88.9313 180.819 88.2711 180.819 86.7714H182.004C182.004 87.6132 183.155 87.882 184.025 87.8702C185.078 87.8702 186.241 87.3562 186.241 86.09V85.3826C185.665 86.1395 184.833 86.3093 184.013 86.3093C181.783 86.3093 180.496 84.8355 180.496 83.0434C180.496 81.2513 181.722 79.6055 184.037 79.6173C184.857 79.6173 185.765 79.8978 186.255 80.6052V79.7281H187.44V86.0782C187.44 88.1249 185.677 88.9078 184.035 88.9078M186.239 82.8477C186.239 81.6687 185.528 80.6901 184.085 80.6548C182.563 80.617 181.693 81.8338 181.693 83.0316C181.689 83.3303 181.747 83.6266 181.862 83.9024C181.978 84.1782 182.148 84.4276 182.364 84.6354C182.58 84.8431 182.836 85.0049 183.117 85.1107C183.397 85.2164 183.697 85.264 183.997 85.2505C185.492 85.2505 186.239 84.0715 186.239 82.8477Z" fill="#231F20"/>
<path d="M190.498 79.7511V80.5551C191.133 79.6662 192.102 79.4587 193.155 79.7015V80.7508C192.843 80.6556 192.512 80.6357 192.191 80.6926C191.87 80.7496 191.567 80.8818 191.308 81.0784C191.048 81.2749 190.839 81.5302 190.698 81.823C190.557 82.1158 190.489 82.4377 190.498 82.7622V86.3322H189.313V79.7511H190.498Z" fill="#231F20"/>
<path d="M200.739 83.3205H195.126C195.126 84.6127 196.366 85.3932 197.357 85.3932C197.756 85.4128 198.153 85.3205 198.502 85.1266C198.851 84.9327 199.138 84.6452 199.331 84.2967H200.568C200.065 85.7351 198.705 86.4543 197.345 86.4543C195.643 86.4543 193.927 85.3083 193.927 83.0422C193.927 80.7762 195.617 79.6396 197.368 79.6396C199.011 79.6396 200.629 80.6772 200.765 82.7475C200.787 82.9386 200.779 83.1322 200.739 83.3205ZM199.501 82.3348C199.264 81.1558 198.316 80.6842 197.368 80.6842C196.42 80.6842 195.423 81.1558 195.176 82.3348H199.501Z" fill="#231F20"/>
<path d="M208.825 83.3205H203.213C203.213 84.6127 204.45 85.3932 205.443 85.3932C205.842 85.4124 206.238 85.3198 206.587 85.126C206.935 84.9321 207.222 84.6448 207.415 84.2967H208.652C208.15 85.7351 206.792 86.4543 205.431 86.4543C203.727 86.4543 202.011 85.3083 202.011 83.0422C202.011 80.7762 203.703 79.6396 205.455 79.6396C207.097 79.6396 208.714 80.6772 208.849 82.7475C208.871 82.9385 208.863 83.1319 208.825 83.3205ZM207.588 82.3348C207.351 81.1558 206.403 80.6842 205.455 80.6842C204.507 80.6842 203.507 81.1558 203.263 82.3348H207.588Z" fill="#231F20"/>
<path d="M209.399 87.551L210.294 85.3086H211.629L210.489 87.551H209.399Z" fill="#231F20"/>
<path d="M216.307 86.3315V77.7979H217.264L221.44 83.8084V77.7979H222.666V86.3315H221.687L217.547 80.3704V86.3315H216.307Z" fill="#231F20"/>
<path d="M227.911 86.4543C226.133 86.4543 224.356 85.3084 224.356 83.04C224.356 80.7716 226.145 79.6279 227.946 79.6279C229.747 79.6279 231.501 80.7739 231.501 83.04C231.501 85.306 229.712 86.4543 227.913 86.4543M227.913 85.3815C229.112 85.3815 230.314 84.601 230.314 83.04C230.314 81.479 229.129 80.682 227.944 80.682C226.759 80.682 225.555 81.4625 225.555 83.04C225.555 84.6175 226.74 85.3697 227.908 85.3815" fill="#231F20"/>
<path d="M233.826 79.7363L234.378 81.5426L235.175 84.3698L236.497 79.7363H237.564L238.898 84.3698L239.682 81.5426L240.246 79.7363H241.507L239.339 86.3812H238.422L237.613 83.7968L237.035 81.809L236.459 83.7968L235.639 86.3812H234.734L232.563 79.7363H233.826Z" fill="#231F20"/>
<path d="M249.762 77.6289C250.643 77.6275 251.505 77.8862 252.239 78.3722C252.972 78.8583 253.545 79.5499 253.883 80.3595C254.222 81.1691 254.311 82.0605 254.14 82.9207C253.97 83.781 253.546 84.5715 252.924 85.1924C252.302 85.8133 251.508 86.2366 250.644 86.4087C249.78 86.5809 248.884 86.4942 248.069 86.1596C247.254 85.825 246.558 85.2575 246.067 84.529C245.577 83.8004 245.314 82.9435 245.314 82.0667C245.311 81.4843 245.425 80.9072 245.647 80.3686C245.87 79.8299 246.197 79.3404 246.611 78.928C247.024 78.5157 247.515 78.1886 248.056 77.9657C248.597 77.7427 249.177 77.6283 249.762 77.6289ZM249.762 85.224C250.392 85.2254 251.008 85.0408 251.532 84.6937C252.056 84.3465 252.465 83.8524 252.706 83.2738C252.948 82.6953 253.011 82.0585 252.889 81.444C252.766 80.8295 252.463 80.265 252.018 79.822C251.573 79.379 251.005 79.0775 250.388 78.9556C249.77 78.8338 249.13 78.897 248.549 79.1374C247.967 79.3778 247.471 79.7845 247.122 80.3059C246.773 80.8274 246.587 81.4402 246.589 82.0667C246.588 82.4814 246.67 82.8921 246.83 83.2753C246.989 83.6585 247.223 84.0067 247.517 84.3C247.812 84.5932 248.162 84.8258 248.547 84.9843C248.932 85.1429 249.345 85.2243 249.762 85.224Z" fill="#231F20"/>
<path d="M256.844 79.7363V80.5546C257.334 79.8472 258.045 79.6396 258.879 79.6396C260.901 79.6396 261.757 80.8965 261.757 82.7852V86.3222H260.572V82.7852C260.572 81.5543 260.252 80.7125 258.844 80.689C257.557 80.6654 256.846 81.5779 256.846 82.7357V86.3199H255.647V79.7175L256.844 79.7363Z" fill="#231F20"/>
<path d="M264.783 77.7979H263.581V86.3315H264.783V77.7979Z" fill="#231F20"/>
<path d="M268.042 78.0349C268.042 78.9616 266.546 78.9616 266.546 78.0349C266.546 77.1082 268.042 77.1082 268.042 78.0349ZM267.895 79.6572H266.693V86.3232H267.895V79.6572Z" fill="#231F20"/>
<path d="M271.116 79.7363V80.5546C271.606 79.8472 272.317 79.6396 273.149 79.6396C275.171 79.6396 276.029 80.8965 276.029 82.7852V86.3222H274.844V82.7852C274.844 81.5543 274.524 80.7125 273.116 80.689C271.829 80.6654 271.118 81.5779 271.118 82.7357V86.3199H269.907V79.7175L271.116 79.7363Z" fill="#231F20"/>
<path d="M284.248 83.3205H278.638C278.638 84.6127 279.875 85.3932 280.868 85.3932C281.267 85.4124 281.663 85.3198 282.012 85.126C282.361 84.9321 282.648 84.6448 282.84 84.2967H284.077C283.575 85.7351 282.214 86.4543 280.854 86.4543C279.152 86.4543 277.437 85.3083 277.437 83.0422C277.437 80.7762 279.126 79.6396 280.88 79.6396C282.523 79.6396 284.139 80.6772 284.274 82.7475C284.297 82.9386 284.288 83.1322 284.248 83.3205ZM283.011 82.3348C282.774 81.1558 281.826 80.6842 280.878 80.6842C279.93 80.6842 278.93 81.1558 278.683 82.3348H283.011Z" fill="#231F20"/>
<path d="M286.931 85.6268C286.931 85.8257 286.851 86.0164 286.71 86.157C286.569 86.2976 286.377 86.3766 286.177 86.3766C285.977 86.3766 285.785 86.2976 285.644 86.157C285.503 86.0164 285.423 85.8257 285.423 85.6268C285.423 85.4279 285.503 85.2372 285.644 85.0966C285.785 84.956 285.977 84.877 286.177 84.877C286.377 84.877 286.569 84.956 286.71 85.0966C286.851 85.2372 286.931 85.4279 286.931 85.6268Z" fill="#231F20"/>
<path d="M224.894 98.7851H227.501V99.5915H224.076V93.9512H227.491V94.7576H224.894V96.328H227.434V97.1439H224.894V98.7851Z" fill="#231F20"/>
<path d="M229.408 95.2756V95.8108C229.728 95.3392 230.193 95.2119 230.74 95.2119C232.06 95.2119 232.622 96.0325 232.622 97.2704V99.5907H231.845V97.2775C231.845 96.4711 231.636 95.9217 230.714 95.9052C229.873 95.8887 229.408 96.4876 229.408 97.2445V99.5907H228.622V95.2756H229.408Z" fill="#231F20"/>
<path d="M234.997 94.3184V95.2757H235.945V95.8982H234.997V98.3293C234.997 98.9754 235.397 99.0013 235.976 98.9448V99.5979C234.926 99.6781 234.212 99.4635 234.212 98.3222V95.8982H233.563V95.2757H234.212V94.4693L234.997 94.3184Z" fill="#231F20"/>
<path d="M237.82 94.1674C237.82 94.7734 236.841 94.7734 236.841 94.1674C236.841 93.5614 237.82 93.5614 237.82 94.1674ZM237.722 95.2285H236.938V99.5908H237.722V95.2285Z" fill="#231F20"/>
<path d="M240.225 94.3184V95.2757H241.173V95.8982H240.225V98.3293C240.225 98.9754 240.626 99.0013 241.204 98.9448V99.5979C240.152 99.6781 239.438 99.4635 239.438 98.3222V95.8982H238.789V95.2757H239.438V94.4693L240.225 94.3184Z" fill="#231F20"/>
<path d="M242.894 94.0068H242.109V99.5906H242.894V94.0068Z" fill="#231F20"/>
<path d="M248.499 97.62H244.828C244.828 98.4665 245.638 98.9782 246.288 98.9782C246.549 98.9899 246.808 98.9287 247.035 98.8016C247.263 98.6745 247.451 98.4866 247.577 98.259H248.387C248.23 98.6858 247.942 99.0524 247.563 99.3065C247.184 99.5605 246.735 99.6891 246.278 99.6738C245.164 99.6738 244.043 98.924 244.043 97.4408C244.043 95.9576 245.148 95.2148 246.295 95.2148C247.368 95.2148 248.428 95.8916 248.515 97.2474C248.53 97.3725 248.525 97.4991 248.499 97.6224M247.688 96.9763C247.537 96.2028 246.92 95.901 246.295 95.901C245.669 95.901 245.02 96.2123 244.858 96.9763H247.688Z" fill="#231F20"/>
<path d="M253.191 94.0068H253.976V99.5906H253.191V99.0199C252.879 99.4915 252.284 99.666 251.739 99.6731C250.224 99.6731 249.43 98.7087 249.43 97.4236C249.43 96.188 250.264 95.2141 251.731 95.2141C252.267 95.2141 252.812 95.3344 253.191 95.8461V94.0068ZM251.715 95.8932C251.516 95.8945 251.319 95.9349 251.135 96.0123C250.952 96.0897 250.785 96.2024 250.646 96.344C250.506 96.4856 250.397 96.6533 250.322 96.8374C250.248 97.0214 250.212 97.2183 250.215 97.4165C250.215 98.3267 250.776 98.9964 251.772 98.9728C252.483 98.9563 253.194 98.4469 253.194 97.433C253.194 96.4191 252.454 95.8862 251.717 95.8932" fill="#231F20"/>
<path d="M258.322 95.8343C258.699 95.3226 259.244 95.2023 259.782 95.2023C261.249 95.2023 262.01 96.2493 262.01 97.4118C262.01 98.5743 261.28 99.6613 259.766 99.6613C259.228 99.6613 258.635 99.4798 258.322 99.0082V99.5906H257.536V94.0068H258.322V95.8343ZM259.744 98.9681C260.74 98.9917 261.245 98.2017 261.235 97.4118C261.226 96.6219 260.761 95.905 259.813 95.8885C259.074 95.8885 258.337 96.3908 258.337 97.4283C258.337 98.4658 259.033 98.9516 259.759 98.9681" fill="#231F20"/>
<path d="M265.129 97.1337L265.876 95.2119H266.71L264.432 100.923H263.598L264.21 99.3667L262.517 95.2119H263.352L264.136 97.1266L264.624 98.5367L265.129 97.1337Z" fill="#231F20"/>
<path d="M269.788 97.9159V93.9521H270.618V97.923C270.618 98.5361 271.284 98.8403 271.876 98.8403C272.469 98.8403 273.128 98.529 273.128 97.9159V93.9521H273.936V97.923C273.936 99.0549 272.829 99.6467 271.867 99.6467C270.905 99.6467 269.791 99.0549 269.791 97.9159" fill="#231F20"/>
<path d="M279.707 95.9684C279.47 95.0511 278.593 94.7399 277.863 94.7399C276.742 94.7399 275.875 95.61 275.875 96.8055C275.875 98.001 276.742 98.897 277.863 98.897C278.251 98.8993 278.63 98.7846 278.95 98.5683C279.271 98.3519 279.518 98.044 279.66 97.685H277.543V96.8621H280.624C280.615 97.1978 280.561 97.5309 280.463 97.8524C280.255 98.3783 279.898 98.8326 279.435 99.1601C278.972 99.4875 278.424 99.6738 277.856 99.6964C276.254 99.6964 275.043 98.4914 275.043 96.8149C275.043 95.1384 276.278 93.9287 277.856 93.9287C278.956 93.9287 280.278 94.464 280.582 95.9778L279.707 95.9684Z" fill="#231F20"/>
<path d="M282.321 94.8136C282.842 94.2793 283.554 93.9723 284.302 93.96C284.911 93.9562 285.503 94.1612 285.978 94.5404C286.452 94.9196 286.781 95.4499 286.909 96.0421H286.106C285.986 95.6612 285.744 95.3297 285.417 95.0978C285.09 94.866 284.696 94.7463 284.295 94.757C284.029 94.7622 283.766 94.8199 283.522 94.9268C283.278 95.0336 283.057 95.1875 282.873 95.3795C282.51 95.7686 282.308 96.2799 282.308 96.8108C282.308 97.3418 282.51 97.8531 282.873 98.2421C283.059 98.4291 283.281 98.5777 283.525 98.6793C283.769 98.7809 284.031 98.8334 284.295 98.834C284.708 98.8413 285.113 98.7155 285.448 98.4754C285.783 98.2353 286.032 97.8937 286.156 97.5017H286.947C286.842 97.9797 286.609 98.4205 286.273 98.7771C285.936 99.1338 285.509 99.3931 285.036 99.5273C284.563 99.6615 284.062 99.6658 283.587 99.5395C283.112 99.4133 282.68 99.1613 282.338 98.8104C281.823 98.2709 281.532 97.559 281.52 96.8155C281.519 96.0719 281.803 95.3558 282.314 94.8136" fill="#231F20"/>
<defs>
<filter id="filter0_dd_1191_41483" x="0" y="0" width="345" height="193" filterUnits="userSpaceOnUse" color-interpolation-filters="sRGB">
<feFlood flood-opacity="0" result="BackgroundImageFix"/>
<feColorMatrix in="SourceAlpha" type="matrix" values="0 0 0 0 0 0 0 0 0 0 0 0 0 0 0 0 0 0 127 0" result="hardAlpha"/>
<feOffset dy="25"/>
<feGaussianBlur stdDeviation="17.5"/>
<feColorMatrix type="matrix" values="0 0 0 0 0 0 0 0 0 0 0 0 0 0 0 0 0 0 0.03 0"/>
<feBlend mode="normal" in2="BackgroundImageFix" result="effect1_dropShadow_1191_41483"/>
<feColorMatrix in="SourceAlpha" type="matrix" values="0 0 0 0 0 0 0 0 0 0 0 0 0 0 0 0 0 0 127 0" result="hardAlpha"/>
<feOffset/>
<feGaussianBlur stdDeviation="2.5"/>
<feColorMatrix type="matrix" values="0 0 0 0 0 0 0 0 0 0 0 0 0 0 0 0 0 0 0.05 0"/>
<feBlend mode="normal" in2="effect1_dropShadow_1191_41483" result="effect2_dropShadow_1191_41483"/>
<feBlend mode="normal" in="SourceGraphic" in2="effect2_dropShadow_1191_41483" result="shape"/>
</filter>
</defs>
</svg>
