<svg width="24" height="24" viewBox="0 0 24 24" fill="none" xmlns="http://www.w3.org/2000/svg">
<path d="M22.4615 14.5943C19.2647 15.8884 15.7703 16.601 12.1094 16.601C8.44858 16.601 4.95417 15.8884 1.75732 14.5943M16.7104 6.24889V3.94842C16.7104 2.6779 15.6805 1.64795 14.4099 1.64795H9.80897C8.53845 1.64795 7.5085 2.6779 7.5085 3.94842V6.24889M12.1094 13.1503H12.1209M4.05779 22.3522H20.1611C21.4316 22.3522 22.4615 21.3223 22.4615 20.0517V8.54936C22.4615 7.27884 21.4316 6.24889 20.1611 6.24889H4.05779C2.78728 6.24889 1.75732 7.27884 1.75732 8.54936V20.0517C1.75732 21.3223 2.78728 22.3522 4.05779 22.3522Z" stroke="#828282" stroke-width="1.8023" stroke-linecap="round" stroke-linejoin="round"/>
</svg>
