<svg width="226" height="122" viewBox="0 0 226 122" fill="none" xmlns="http://www.w3.org/2000/svg">
<path d="M194.967 41.6889H116.73C115.403 41.6889 114.327 42.7649 114.327 44.0921V49.977C114.327 51.3042 115.403 52.3802 116.73 52.3802H194.967C196.295 52.3802 197.371 51.3042 197.371 49.977V44.0921C197.371 42.7649 196.295 41.6889 194.967 41.6889Z" fill="#D9DDF9"/>
<path d="M192.563 41.6889H190.16V52.3802H192.563V41.6889Z" fill="#9CACE5"/>
<path d="M188.558 41.6889H186.154V52.3802H188.558V41.6889Z" fill="#9CACE5"/>
<path d="M125.637 41.6889H123.233V52.3802H125.637V41.6889Z" fill="#9CACE5"/>
<path d="M121.63 41.6889H119.227V52.3802H121.63V41.6889Z" fill="#9CACE5"/>
<path d="M175.894 44.6081H136.076V48.099H175.894V44.6081Z" fill="#9CACE5"/>
<path d="M226 118.236C226 119.228 225.559 120.18 224.773 120.882C223.987 121.584 222.921 121.979 221.809 121.98H4.19073C3.07882 121.979 2.0129 121.584 1.22713 120.882C0.441362 120.18 -7.86044e-07 119.228 0 118.236C0 117.244 0.441522 116.293 1.22744 115.592C2.01335 114.891 3.07928 114.497 4.19073 114.497H221.809C222.921 114.497 223.987 114.891 224.773 115.592C225.558 116.293 226 117.244 226 118.236Z" fill="#EAF0FC"/>
<path d="M184.615 71.7175C183.014 71.073 181.642 69.9658 180.674 68.5374C179.706 67.109 179.187 65.4244 179.181 63.699V62.8809C179.187 61.1556 179.707 59.4713 180.675 58.043C181.643 56.6148 183.015 55.5074 184.615 54.8624V54.2349H128.425C126.134 54.241 123.939 55.1539 122.318 56.774C120.698 58.3941 119.785 60.5897 119.779 62.8809V63.699C119.785 65.9906 120.698 68.1867 122.318 69.8075C123.938 71.4284 126.134 72.3423 128.425 72.3496H184.615V71.7175Z" fill="#FDFEFF"/>
<mask id="mask0_1808_6623" style="mask-type:luminance" maskUnits="userSpaceOnUse" x="119" y="54" width="66" height="19">
<path d="M184.615 71.7175C183.014 71.073 181.642 69.9658 180.674 68.5374C179.706 67.109 179.187 65.4244 179.181 63.699V62.8809C179.187 61.1556 179.707 59.4713 180.675 58.043C181.643 56.6148 183.015 55.5074 184.615 54.8624V54.2349H128.425C126.134 54.241 123.939 55.1539 122.318 56.774C120.698 58.3941 119.785 60.5897 119.779 62.8809V63.699C119.785 65.9906 120.698 68.1867 122.318 69.8075C123.938 71.4284 126.134 72.3423 128.425 72.3496H184.615V71.7175Z" fill="white"/>
</mask>
<g mask="url(#mask0_1808_6623)">
<path d="M197.496 55.9734H109.613V56.9031H197.496V55.9734Z" fill="#E4EBF2"/>
<path d="M197.496 58.7624H109.613V59.6921H197.496V58.7624Z" fill="#E4EBF2"/>
<path d="M197.496 61.5514H109.613V62.4811H197.496V61.5514Z" fill="#E4EBF2"/>
<path d="M197.496 64.3405H109.613V65.2702H197.496V64.3405Z" fill="#E4EBF2"/>
<path d="M197.496 67.1295H109.613V68.0592H197.496V67.1295Z" fill="#E4EBF2"/>
<path d="M197.496 69.9185H109.613V70.8482H197.496V69.9185Z" fill="#E4EBF2"/>
</g>
<path d="M184.615 71.7175V70.4949H128.426C126.624 70.4925 124.897 69.7757 123.623 68.5017C122.349 67.2278 121.632 65.5006 121.63 63.699V62.8809C121.632 61.0797 122.349 59.353 123.623 58.0798C124.897 56.8066 126.624 56.0908 128.426 56.0896H184.615V52.3709H128.426C125.642 52.3746 122.973 53.4821 121.004 55.4505C119.036 57.419 117.928 60.0878 117.925 62.8716V63.6897C117.928 66.4735 119.036 69.1423 121.004 71.1107C122.973 73.0792 125.642 74.1867 128.426 74.1904H184.615V71.7175Z" fill="#A4B2E6"/>
<path d="M198.207 74.1997H113.044C110.733 74.1997 108.86 76.0727 108.86 78.3832V88.619C108.86 90.9295 110.733 92.8025 113.044 92.8025H198.207C200.517 92.8025 202.39 90.9295 202.39 88.619V78.3832C202.39 76.0727 200.517 74.1997 198.207 74.1997Z" fill="#D9DDF9"/>
<path d="M194.037 74.1997H189.854V92.8025H194.037V74.1997Z" fill="#A4B2E6"/>
<path d="M187.064 74.1997H182.881V92.8025H187.064V74.1997Z" fill="#A4B2E6"/>
<path d="M128.542 74.1997H124.358V92.8025H128.542V74.1997Z" fill="#A7C2FF"/>
<path d="M121.569 74.1997H117.386V92.8025H121.569V74.1997Z" fill="#A7C2FF"/>
<path d="M117.679 95.2848C119.279 95.9293 120.651 97.0365 121.619 98.4648C122.587 99.8932 123.107 101.578 123.113 103.303V104.121C123.107 105.847 122.587 107.531 121.619 108.96C120.651 110.388 119.279 111.495 117.679 112.14V112.767H192.439C194.73 112.761 196.925 111.848 198.546 110.228C200.166 108.608 201.079 106.413 201.085 104.121V103.303C201.079 101.012 200.166 98.8165 198.546 97.1964C196.925 95.5763 194.73 94.6634 192.439 94.6572H117.679V95.2848Z" fill="#FDFEFF"/>
<mask id="mask1_1808_6623" style="mask-type:luminance" maskUnits="userSpaceOnUse" x="117" y="94" width="85" height="19">
<path d="M117.679 95.2848C119.279 95.9293 120.651 97.0365 121.619 98.4648C122.587 99.8932 123.107 101.578 123.113 103.303V104.121C123.107 105.847 122.587 107.531 121.619 108.96C120.651 110.388 119.279 111.495 117.679 112.14V112.767H192.439C194.73 112.761 196.925 111.848 198.546 110.228C200.166 108.608 201.079 106.413 201.085 104.121V103.303C201.079 101.012 200.166 98.8165 198.546 97.1964C196.925 95.5763 194.73 94.6634 192.439 94.6572H117.679V95.2848Z" fill="white"/>
</mask>
<g mask="url(#mask1_1808_6623)">
<path d="M211.25 110.099H104.774V111.029H211.25V110.099Z" fill="#E4EBF2"/>
<path d="M211.25 107.31H104.774V108.24H211.25V107.31Z" fill="#E4EBF2"/>
<path d="M211.25 104.521H104.774V105.451H211.25V104.521Z" fill="#E4EBF2"/>
<path d="M211.25 101.732H104.774V102.662H211.25V101.732Z" fill="#E4EBF2"/>
<path d="M211.25 98.9431H104.774V99.8727H211.25V98.9431Z" fill="#E4EBF2"/>
<path d="M211.25 96.154H104.774V97.0837H211.25V96.154Z" fill="#E4EBF2"/>
</g>
<path d="M117.679 95.2848V96.5073H192.439C194.24 96.511 195.965 97.2283 197.238 98.5021C198.511 99.7759 199.228 101.502 199.23 103.303V104.121C199.228 105.922 198.511 107.649 197.238 108.922C195.965 110.196 194.24 110.914 192.439 110.917H117.679V114.636H192.439C195.222 114.632 197.891 113.525 199.86 111.556C201.828 109.588 202.936 106.919 202.939 104.135V103.317C202.936 100.533 201.828 97.8646 199.86 95.8961C197.891 93.9277 195.222 92.8202 192.439 92.8165H117.679V95.2848Z" fill="#9CACE5"/>
<path d="M68.4052 19.0838C68.404 19.2942 68.3198 19.4957 68.171 19.6445C68.0222 19.7933 67.8207 19.8775 67.6103 19.8787C67.3999 19.8775 67.1984 19.7933 67.0496 19.6445C66.9008 19.4957 66.8166 19.2942 66.8154 19.0838V6.83531C66.8166 6.62487 66.9008 6.4234 67.0496 6.2746C67.1984 6.12579 67.3999 6.04166 67.6103 6.04044C67.8207 6.04166 68.0222 6.12579 68.171 6.2746C68.3198 6.4234 68.404 6.62487 68.4052 6.83531V19.0838Z" fill="#C7CFF2"/>
<path d="M74.0947 13.5383H68.3818V7.67667H74.0947L72.412 10.6098L74.0947 13.5383Z" fill="#D9DDF9"/>
<path d="M116.103 44.0131H19.0723V106.362H116.103V44.0131Z" fill="#D9DDF9"/>
<path d="M118.557 106.362H16.6133V115.208H118.557V106.362Z" fill="#BBC5EA"/>
<path d="M118.557 35.1672H16.6133V44.0131H118.557V35.1672Z" fill="#BBC5EA"/>
<path d="M31.8504 44.0131H23.9854V106.362H31.8504V44.0131Z" fill="#C5CCEF"/>
<path d="M33.608 45.2217C33.6068 45.5414 33.4789 45.8476 33.2524 46.0733C33.0259 46.2989 32.7192 46.4256 32.3994 46.4256H23.4373C23.2792 46.4256 23.1227 46.3945 22.9766 46.334C22.8305 46.2735 22.6978 46.1848 22.586 46.073C22.4742 45.9612 22.3856 45.8285 22.3251 45.6824C22.2645 45.5363 22.2334 45.3798 22.2334 45.2217C22.2328 45.0632 22.2635 44.9061 22.3237 44.7595C22.3839 44.6129 22.4725 44.4796 22.5844 44.3674C22.6962 44.2551 22.8292 44.166 22.9755 44.1052C23.1219 44.0444 23.2788 44.0131 23.4373 44.0131H32.3994C32.72 44.0131 33.0274 44.1404 33.254 44.3671C33.4807 44.5937 33.608 44.9011 33.608 45.2217Z" fill="#9CACE5"/>
<path d="M33.608 105.153C33.608 105.312 33.5767 105.469 33.516 105.616C33.4553 105.762 33.3662 105.896 33.254 106.008C33.1418 106.12 33.0086 106.209 32.8619 106.27C32.7153 106.331 32.5581 106.362 32.3994 106.362H23.4373C23.2788 106.362 23.1219 106.331 22.9755 106.27C22.8292 106.209 22.6962 106.12 22.5844 106.008C22.4725 105.895 22.3839 105.762 22.3237 105.615C22.2635 105.469 22.2328 105.312 22.2334 105.153C22.2334 104.834 22.3603 104.528 22.586 104.302C22.8118 104.076 23.118 103.949 23.4373 103.949H32.3994C32.7192 103.949 33.0259 104.076 33.2524 104.302C33.4789 104.527 33.6068 104.834 33.608 105.153Z" fill="#9CACE5"/>
<path d="M48.701 44.0131H40.8359V106.362H48.701V44.0131Z" fill="#C5CCEF"/>
<path d="M50.4576 45.2217C50.4564 45.5414 50.3285 45.8476 50.102 46.0733C49.8755 46.2989 49.5688 46.4256 49.249 46.4256H40.287C40.1288 46.4256 39.9723 46.3945 39.8262 46.334C39.6802 46.2735 39.5474 46.1848 39.4356 46.073C39.3238 45.9612 39.2352 45.8285 39.1747 45.6824C39.1142 45.5363 39.083 45.3798 39.083 45.2217C39.0824 45.0632 39.1131 44.9061 39.1733 44.7595C39.2336 44.6129 39.3221 44.4796 39.434 44.3674C39.5458 44.2551 39.6788 44.166 39.8251 44.1052C39.9715 44.0444 40.1285 44.0131 40.287 44.0131H49.249C49.5696 44.0131 49.877 44.1404 50.1036 44.3671C50.3303 44.5937 50.4576 44.9011 50.4576 45.2217Z" fill="#9CACE5"/>
<path d="M50.4576 105.153C50.4576 105.312 50.4264 105.469 50.3656 105.616C50.3049 105.762 50.2159 105.896 50.1036 106.008C49.9914 106.12 49.8582 106.209 49.7115 106.27C49.5649 106.331 49.4077 106.362 49.249 106.362H40.287C40.1285 106.362 39.9715 106.331 39.8251 106.27C39.6788 106.209 39.5458 106.12 39.434 106.008C39.3221 105.895 39.2336 105.762 39.1733 105.615C39.1131 105.469 39.0824 105.312 39.083 105.153C39.083 104.834 39.2099 104.528 39.4356 104.302C39.6614 104.076 39.9676 103.949 40.287 103.949H49.249C49.5688 103.949 49.8755 104.076 50.102 104.302C50.3285 104.527 50.4564 104.834 50.4576 105.153Z" fill="#9CACE5"/>
<path d="M94.3387 44.0131H86.4736V106.362H94.3387V44.0131Z" fill="#C5CCEF"/>
<path d="M96.0914 45.2217C96.0932 45.3798 96.0639 45.5367 96.0051 45.6835C95.9463 45.8302 95.8592 45.964 95.7487 46.0771C95.6382 46.1902 95.5065 46.2804 95.3611 46.3426C95.2157 46.4048 95.0595 46.4377 94.9014 46.4395H85.9254C85.6056 46.4395 85.2989 46.3129 85.0724 46.0872C84.8459 45.8616 84.718 45.5553 84.7168 45.2356C84.7168 44.9151 84.8441 44.6077 85.0708 44.381C85.2974 44.1544 85.6048 44.027 85.9254 44.027H94.9014C95.0599 44.027 95.2168 44.0583 95.3632 44.1191C95.5096 44.1799 95.6425 44.269 95.7544 44.3813C95.8662 44.4936 95.9548 44.6269 96.015 44.7735C96.0753 44.9201 96.106 45.0771 96.1053 45.2356L96.0914 45.2217Z" fill="#9CACE5"/>
<path d="M96.0914 105.153C96.092 105.312 96.0613 105.469 96.0011 105.615C95.9409 105.762 95.8523 105.895 95.7404 106.008C95.6286 106.12 95.4956 106.209 95.3493 106.27C95.2029 106.331 95.046 106.362 94.8875 106.362H85.9254C85.7667 106.362 85.6095 106.331 85.4629 106.27C85.3162 106.209 85.183 106.12 85.0708 106.008C84.9586 105.896 84.8695 105.762 84.8088 105.616C84.7481 105.469 84.7168 105.312 84.7168 105.153C84.718 104.834 84.8459 104.527 85.0724 104.302C85.2989 104.076 85.6056 103.949 85.9254 103.949H94.9014C95.2207 103.949 95.5269 104.076 95.7527 104.302C95.9785 104.528 96.1053 104.834 96.1053 105.153H96.0914Z" fill="#9CACE5"/>
<path d="M111.189 44.0131H103.324V106.362H111.189V44.0131Z" fill="#C5CCEF"/>
<path d="M112.941 45.2217C112.941 45.3798 112.91 45.5363 112.85 45.6824C112.789 45.8285 112.7 45.9612 112.589 46.073C112.477 46.1848 112.344 46.2735 112.198 46.334C112.052 46.3945 111.895 46.4256 111.737 46.4256H102.775C102.617 46.4256 102.461 46.3945 102.315 46.334C102.168 46.2735 102.036 46.1848 101.924 46.073C101.812 45.9612 101.723 45.8285 101.663 45.6824C101.602 45.5363 101.571 45.3798 101.571 45.2217C101.571 45.0632 101.601 44.9061 101.662 44.7595C101.722 44.6129 101.81 44.4796 101.922 44.3674C102.034 44.2551 102.167 44.166 102.313 44.1052C102.46 44.0444 102.617 44.0131 102.775 44.0131H111.737C111.896 44.0131 112.053 44.0444 112.199 44.1052C112.345 44.166 112.478 44.2551 112.59 44.3674C112.702 44.4796 112.791 44.6129 112.851 44.7595C112.911 44.9061 112.942 45.0632 112.941 45.2217Z" fill="#9CACE5"/>
<path d="M112.941 105.153C112.942 105.312 112.911 105.469 112.851 105.615C112.791 105.762 112.702 105.895 112.59 106.008C112.478 106.12 112.345 106.209 112.199 106.27C112.053 106.331 111.896 106.362 111.737 106.362H102.775C102.617 106.362 102.46 106.331 102.313 106.27C102.167 106.209 102.034 106.12 101.922 106.008C101.81 105.895 101.722 105.762 101.662 105.615C101.601 105.469 101.571 105.312 101.571 105.153C101.571 104.834 101.698 104.528 101.924 104.302C102.15 104.076 102.456 103.949 102.775 103.949H111.737C112.057 103.949 112.363 104.076 112.589 104.302C112.814 104.528 112.941 104.834 112.941 105.153Z" fill="#9CACE5"/>
<path d="M78.1212 106.362V81.5953C78.1212 78.8017 77.0114 76.1225 75.0361 74.1472C73.0607 72.1718 70.3815 71.062 67.5879 71.062C64.7943 71.062 62.1152 72.1718 60.1398 74.1472C58.1644 76.1225 57.0547 78.8017 57.0547 81.5953V106.362H78.1212Z" fill="#C5CCEF"/>
<path d="M67.5875 18.1309L19.0723 35.1672H67.5875H116.103L67.5875 18.1309Z" fill="#C7CFF2"/>
<path d="M67.587 20.2366L31.0693 33.0615H67.587H104.109L67.587 20.2366Z" fill="#D9DDF9"/>
<path d="M151.259 83.3384H67.5879V114.92H151.259V83.3384Z" fill="#6672C9"/>
<path d="M109.535 99.7054C109.535 99.7054 111.259 99.0825 113.365 98.3481L159.626 82.2321C161.731 81.4977 161.676 80.4053 159.505 79.8056L113.486 67.1016C111.31 66.502 109.535 66.0046 109.535 65.9953C109.535 65.986 109.535 65.9953 109.507 65.9953H109.451H109.423C109.423 65.9953 107.643 66.502 105.472 67.1016L59.4529 79.8056C57.2821 80.4053 57.2263 81.4977 59.332 82.2321L105.593 98.3481C107.698 99.0825 109.423 99.6914 109.423 99.7054C109.423 99.7193 109.423 99.7054 109.451 99.7054H109.507C109.507 99.7054 109.535 99.7147 109.535 99.7054Z" fill="#7B85FF"/>
<path d="M113.839 81.9207C113.839 83.0363 111.863 83.9381 109.423 83.9381C106.982 83.9381 105.007 83.0363 105.007 81.9207C105.007 80.8051 106.987 79.9079 109.423 79.9079C111.859 79.9079 113.839 80.8097 113.839 81.9207Z" fill="#A7C2FF"/>
<path d="M157.831 82.2646L109.423 81.335C109.269 81.335 109.121 81.3962 109.012 81.5051C108.903 81.6141 108.842 81.7619 108.842 81.916C108.842 82.0701 108.903 82.2179 109.012 82.3269C109.121 82.4358 109.269 82.4971 109.423 82.4971L157.25 83.4267V101.755C157.25 101.909 157.311 102.057 157.42 102.166C157.529 102.275 157.677 102.336 157.831 102.336C157.985 102.336 158.133 102.275 158.242 102.166C158.351 102.057 158.412 101.909 158.412 101.755V82.8457C158.411 82.692 158.349 82.5449 158.241 82.4362C158.132 82.3275 157.985 82.2659 157.831 82.2646Z" fill="#A7C2FF"/>
<path d="M160.308 100.328C160.308 100.804 160.167 101.268 159.903 101.663C159.639 102.059 159.264 102.367 158.825 102.549C158.386 102.73 157.903 102.778 157.436 102.685C156.97 102.593 156.542 102.364 156.206 102.028C155.87 101.692 155.641 101.263 155.548 100.797C155.455 100.331 155.503 99.8477 155.685 99.4086C155.867 98.9695 156.175 98.5941 156.57 98.3301C156.965 98.066 157.43 97.9251 157.905 97.9251C158.221 97.9244 158.534 97.9862 158.826 98.1067C159.117 98.2273 159.383 98.4043 159.606 98.6276C159.829 98.8509 160.006 99.116 160.127 99.4079C160.247 99.6997 160.309 100.013 160.308 100.328Z" fill="#A7C2FF"/>
<path d="M156.864 100.575C155.912 103.983 154.958 107.381 154 110.769C153.988 110.84 154.003 110.914 154.042 110.975C154.081 111.037 154.142 111.082 154.212 111.101C154.282 111.12 154.357 111.112 154.422 111.079C154.487 111.046 154.537 110.99 154.563 110.922C155.139 108.864 155.719 106.803 156.301 104.74C156.01 106.859 155.72 108.977 155.432 111.094C155.386 111.461 155.943 111.619 155.994 111.252C156.472 107.744 156.949 104.236 157.426 100.728C157.477 100.361 156.971 100.203 156.864 100.575Z" fill="#A7C2FF"/>
<path d="M161.554 110.764C160.6 107.355 159.645 103.957 158.691 100.57C158.584 100.198 158.082 100.365 158.128 100.723C158.128 100.723 158.128 100.756 158.128 100.77C158.093 100.721 158.043 100.685 157.986 100.666C157.929 100.648 157.867 100.647 157.81 100.665C157.753 100.683 157.702 100.718 157.666 100.766C157.63 100.814 157.609 100.872 157.608 100.933C157.276 104.341 156.945 107.75 156.613 111.159C156.576 111.531 157.157 111.531 157.194 111.159C157.414 108.878 157.636 106.594 157.859 104.307C158.023 106.517 158.187 108.723 158.352 110.927C158.379 111.294 158.96 111.298 158.933 110.927L158.235 101.541C158.672 104.774 159.112 108.004 159.555 111.233C159.602 111.605 160.164 111.447 160.113 111.08L159.249 104.721C159.831 106.779 160.411 108.839 160.987 110.903C161.006 110.979 161.053 111.043 161.12 111.083C161.186 111.124 161.265 111.136 161.34 111.117C161.416 111.099 161.48 111.051 161.521 110.985C161.561 110.919 161.573 110.839 161.554 110.764Z" fill="#A7C2FF"/>
<path d="M142.065 0.862821C146.008 2.03642 149.516 4.35308 152.143 7.51988C154.77 10.6867 156.4 14.5614 156.825 18.6541C157.25 22.7469 156.453 26.8738 154.533 30.5132C152.612 34.1525 149.656 37.1409 146.038 39.1003C142.42 41.0598 138.302 41.9024 134.205 41.5215C130.108 41.1407 126.215 39.5536 123.02 36.9609C119.825 34.3681 117.47 30.8862 116.254 26.9553C115.038 23.0244 115.014 18.8211 116.187 14.8769C117.76 9.58727 121.371 5.13932 126.224 2.51127C131.077 -0.116785 136.775 -0.709735 142.065 0.862821Z" fill="#2B63E1"/>
<path d="M140.963 4.56809C144.175 5.52369 147.03 7.41008 149.17 9.98873C151.309 12.5674 152.636 15.7225 152.982 19.0552C153.329 22.3878 152.679 25.7483 151.115 28.7117C149.552 31.6752 147.145 34.1085 144.199 35.704C141.252 37.2994 137.899 37.9855 134.563 37.6753C131.227 37.3651 128.057 36.0726 125.456 33.9613C122.854 31.8499 120.937 29.0146 119.946 25.8137C118.956 22.6128 118.937 19.1901 119.892 15.9785C121.174 11.6717 124.114 8.05038 128.065 5.91067C132.016 3.77095 136.656 3.28803 140.963 4.56809Z" fill="#DAE5FF"/>
<path d="M153.951 24.1027L152.854 27.7898L178.851 35.5198L179.947 31.8327L153.951 24.1027Z" fill="#2B63E1"/>
<path d="M162.187 23.9202L159.651 32.4463L191.469 41.9073L194.004 33.3812L162.187 23.9202Z" fill="#2B63E1"/>
<path d="M124.863 18.2876C125.886 15.0133 128.146 12.2672 131.163 10.6335C134.179 8.99984 137.714 8.60749 141.015 9.53989C141.195 9.5768 141.381 9.54502 141.538 9.45084C141.695 9.35666 141.811 9.20694 141.863 9.03135C141.915 8.85575 141.899 8.66708 141.819 8.50271C141.738 8.33833 141.598 8.21023 141.428 8.14378C137.757 7.1146 133.83 7.55492 130.478 9.37145C127.127 11.188 124.614 14.238 123.473 17.8753C123.184 18.7648 124.574 19.1713 124.863 18.2876Z" fill="white"/>
</svg>
