<svg width="144" height="39" viewBox="0 0 144 39" fill="none" xmlns="http://www.w3.org/2000/svg">
<path d="M10.016 31.384C8.24533 31.384 6.528 31.1493 4.864 30.68C3.22133 30.1893 1.89867 29.56 0.896 28.792L2.656 24.888C3.616 25.592 4.75733 26.1573 6.08 26.584C7.40267 27.0107 8.72533 27.224 10.048 27.224C11.52 27.224 12.608 27.0107 13.312 26.584C14.016 26.136 14.368 25.5493 14.368 24.824C14.368 24.2907 14.1547 23.8533 13.728 23.512C13.3227 23.1493 12.7893 22.8613 12.128 22.648C11.488 22.4347 10.6133 22.2 9.504 21.944C7.79733 21.5387 6.4 21.1333 5.312 20.728C4.224 20.3227 3.28533 19.672 2.496 18.776C1.728 17.88 1.344 16.6853 1.344 15.192C1.344 13.8907 1.696 12.7173 2.4 11.672C3.104 10.6053 4.16 9.76267 5.568 9.144C6.99733 8.52533 8.736 8.216 10.784 8.216C12.2133 8.216 13.6107 8.38667 14.976 8.728C16.3413 9.06933 17.536 9.56 18.56 10.2L16.96 14.136C14.8907 12.9627 12.8213 12.376 10.752 12.376C9.30133 12.376 8.224 12.6107 7.52 13.08C6.83733 13.5493 6.496 14.168 6.496 14.936C6.496 15.704 6.89067 16.28 7.68 16.664C8.49067 17.0267 9.71733 17.3893 11.36 17.752C13.0667 18.1573 14.464 18.5627 15.552 18.968C16.64 19.3733 17.568 20.0133 18.336 20.888C19.1253 21.7627 19.52 22.9467 19.52 24.44C19.52 25.72 19.1573 26.8933 18.432 27.96C17.728 29.0053 16.6613 29.8373 15.232 30.456C13.8027 31.0747 12.064 31.384 10.016 31.384ZM30.1023 24.248L27.7023 26.616V31H22.7103V7.256H27.7023V20.696L34.9983 13.784H40.9503L33.7823 21.08L41.5903 31H35.5423L30.1023 24.248ZM51.2773 31.256C49.4639 31.256 47.8319 30.8827 46.3813 30.136C44.9519 29.368 43.8319 28.312 43.0213 26.968C42.2106 25.624 41.8053 24.0987 41.8053 22.392C41.8053 20.6853 42.2106 19.16 43.0213 17.816C43.8319 16.472 44.9519 15.4267 46.3813 14.68C47.8319 13.912 49.4639 13.528 51.2773 13.528C53.0906 13.528 54.7119 13.912 56.1413 14.68C57.5706 15.4267 58.6906 16.472 59.5013 17.816C60.3119 19.16 60.7173 20.6853 60.7173 22.392C60.7173 24.0987 60.3119 25.624 59.5013 26.968C58.6906 28.312 57.5706 29.368 56.1413 30.136C54.7119 30.8827 53.0906 31.256 51.2773 31.256ZM51.2773 27.16C52.5573 27.16 53.6026 26.7333 54.4133 25.88C55.2453 25.0053 55.6613 23.8427 55.6613 22.392C55.6613 20.9413 55.2453 19.7893 54.4133 18.936C53.6026 18.0613 52.5573 17.624 51.2773 17.624C49.9973 17.624 48.9413 18.0613 48.1093 18.936C47.2773 19.7893 46.8613 20.9413 46.8613 22.392C46.8613 23.8427 47.2773 25.0053 48.1093 25.88C48.9413 26.7333 49.9973 27.16 51.2773 27.16ZM64.054 7.256H69.046V31H64.054V7.256ZM73.679 7.256H78.671V31H73.679V7.256ZM100.168 22.456C100.168 22.52 100.136 22.968 100.072 23.8H87.048C87.2827 24.8667 87.8373 25.7093 88.712 26.328C89.5867 26.9467 90.6747 27.256 91.976 27.256C92.872 27.256 93.6613 27.128 94.344 26.872C95.048 26.5947 95.6987 26.168 96.296 25.592L98.952 28.472C97.3307 30.328 94.9627 31.256 91.848 31.256C89.9067 31.256 88.1893 30.8827 86.696 30.136C85.2027 29.368 84.0507 28.312 83.24 26.968C82.4293 25.624 82.024 24.0987 82.024 22.392C82.024 20.7067 82.4187 19.192 83.208 17.848C84.0187 16.4827 85.1173 15.4267 86.504 14.68C87.912 13.912 89.48 13.528 91.208 13.528C92.8933 13.528 94.4187 13.8907 95.784 14.616C97.1493 15.3413 98.216 16.3867 98.984 17.752C99.7733 19.096 100.168 20.664 100.168 22.456ZM91.24 17.304C90.1093 17.304 89.16 17.624 88.392 18.264C87.624 18.904 87.1547 19.7787 86.984 20.888H95.464C95.2933 19.8 94.824 18.936 94.056 18.296C93.288 17.6347 92.3493 17.304 91.24 17.304ZM121.252 13.784V28.12C121.252 31.2773 120.43 33.624 118.788 35.16C117.145 36.696 114.745 37.464 111.588 37.464C109.924 37.464 108.345 37.2613 106.852 36.856C105.358 36.4507 104.121 35.864 103.14 35.096L105.124 31.512C105.849 32.1093 106.766 32.5787 107.876 32.92C108.985 33.2827 110.094 33.464 111.204 33.464C112.932 33.464 114.201 33.0693 115.012 32.28C115.844 31.512 116.26 30.3387 116.26 28.76V28.024C114.958 29.4533 113.145 30.168 110.82 30.168C109.241 30.168 107.79 29.8267 106.468 29.144C105.166 28.44 104.132 27.4587 103.364 26.2C102.596 24.9413 102.212 23.4907 102.212 21.848C102.212 20.2053 102.596 18.7547 103.364 17.496C104.132 16.2373 105.166 15.2667 106.468 14.584C107.79 13.88 109.241 13.528 110.82 13.528C113.316 13.528 115.214 14.3493 116.516 15.992V13.784H121.252ZM111.812 26.072C113.134 26.072 114.212 25.688 115.044 24.92C115.897 24.1307 116.324 23.1067 116.324 21.848C116.324 20.5893 115.897 19.576 115.044 18.808C114.212 18.0187 113.134 17.624 111.812 17.624C110.489 17.624 109.401 18.0187 108.548 18.808C107.694 19.576 107.268 20.5893 107.268 21.848C107.268 23.1067 107.694 24.1307 108.548 24.92C109.401 25.688 110.489 26.072 111.812 26.072ZM142.762 22.456C142.762 22.52 142.73 22.968 142.666 23.8H129.642C129.876 24.8667 130.431 25.7093 131.306 26.328C132.18 26.9467 133.268 27.256 134.57 27.256C135.466 27.256 136.255 27.128 136.938 26.872C137.642 26.5947 138.292 26.168 138.89 25.592L141.546 28.472C139.924 30.328 137.556 31.256 134.442 31.256C132.5 31.256 130.783 30.8827 129.29 30.136C127.796 29.368 126.644 28.312 125.834 26.968C125.023 25.624 124.618 24.0987 124.618 22.392C124.618 20.7067 125.012 19.192 125.802 17.848C126.612 16.4827 127.711 15.4267 129.098 14.68C130.506 13.912 132.074 13.528 133.802 13.528C135.487 13.528 137.012 13.8907 138.378 14.616C139.743 15.3413 140.81 16.3867 141.578 17.752C142.367 19.096 142.762 20.664 142.762 22.456ZM133.834 17.304C132.703 17.304 131.754 17.624 130.986 18.264C130.218 18.904 129.748 19.7787 129.578 20.888H138.058C137.887 19.8 137.418 18.936 136.65 18.296C135.882 17.6347 134.943 17.304 133.834 17.304Z" fill="#2B63E1"/>
</svg>
