<svg width="55" height="19" viewBox="0 0 55 19" fill="none" xmlns="http://www.w3.org/2000/svg">
<g id="Logo">
<path id="Vector" fill-rule="evenodd" clip-rule="evenodd" d="M7.64199 3.65625C8.90965 3.65795 10.1484 4.0335 11.2015 4.73544C12.2547 5.43739 13.0751 6.43421 13.5591 7.59993C14.043 8.76565 14.1687 10.0479 13.9204 11.2847C13.672 12.5215 13.0607 13.6573 12.1638 14.5486C11.2668 15.4398 10.1244 16.0465 8.88098 16.2919C7.63755 16.5373 6.3489 16.4105 5.1779 15.9275C4.0069 15.4444 3.0061 14.6268 2.302 13.578C1.59791 12.5292 1.22211 11.2963 1.22211 10.0351C1.22253 9.19677 1.38894 8.36679 1.71183 7.59251C2.03471 6.81823 2.50775 6.11482 3.10392 5.52247C3.70009 4.93011 4.40771 4.46042 5.18636 4.14021C5.96502 3.82 6.79945 3.65555 7.64199 3.65625Z" fill="white"/>
<path id="Vector_2" d="M7.64206 16.4734C4.06881 16.4734 1.1618 13.5849 1.1618 10.0346C1.1618 6.48424 4.06881 3.5957 7.64206 3.5957C11.2153 3.5957 14.1223 6.48424 14.1223 10.0346C14.1223 13.5849 11.2153 16.4734 7.64206 16.4734ZM7.64206 3.7153C4.13511 3.7153 1.28147 6.5502 1.28147 10.0346C1.28147 13.5189 4.13403 16.3533 7.64206 16.3533C11.1501 16.3533 14.0027 13.5189 14.0027 10.0346C14.0027 6.5502 11.1501 3.7153 7.64206 3.7153Z" fill="#231F20"/>
<path id="Vector_3" fill-rule="evenodd" clip-rule="evenodd" d="M7.64198 5.09766C8.62305 5.09893 9.58173 5.38954 10.3968 5.93276C11.212 6.47599 11.8469 7.24743 12.2215 8.14961C12.596 9.05178 12.6934 10.0442 12.5012 11.0014C12.309 11.9586 11.8359 12.8376 11.1417 13.5274C10.4476 14.2171 9.56345 14.6867 8.60113 14.8766C7.63881 15.0666 6.64149 14.9685 5.73522 14.5946C4.82894 14.2208 4.0544 13.588 3.50947 12.7763C2.96455 11.9646 2.67371 11.0104 2.67371 10.0343C2.67485 8.72428 3.19886 7.4683 4.13053 6.54256C5.0622 5.61681 6.32525 5.09709 7.64198 5.09766Z" fill="white"/>
<path id="Vector_4" fill-rule="evenodd" clip-rule="evenodd" d="M7.642 5.23242C8.59621 5.2337 9.52863 5.51638 10.3214 6.04475C11.1142 6.57312 11.7317 7.32347 12.096 8.20094C12.4603 9.07842 12.5549 10.0436 12.368 10.9746C12.181 11.9056 11.7209 12.7606 11.0457 13.4314C10.3705 14.1023 9.51063 14.5589 8.57466 14.7437C7.63869 14.9284 6.66868 14.833 5.78723 14.4694C4.90578 14.1058 4.15244 13.4903 3.62245 12.7009C3.09245 11.9114 2.80957 10.9833 2.80957 10.034C2.81057 8.7597 3.32023 7.53801 4.22645 6.63758C5.13268 5.73715 6.36126 5.23171 7.642 5.23242Z" fill="#231F20"/>
<path id="Vector_5" fill-rule="evenodd" clip-rule="evenodd" d="M4.24492 6.62109L3.49027 12.4926C2.93783 11.5709 2.71196 10.4916 2.84876 9.4272C2.98557 8.36278 3.47716 7.37475 4.24492 6.62109Z" fill="#F58220"/>
<path id="Vector_6" fill-rule="evenodd" clip-rule="evenodd" d="M3.71584 12.8326L5.67361 5.64612C6.63769 5.2204 7.71482 5.11837 8.74233 5.35544L4.12281 13.3249C3.97581 13.1698 3.83914 13.0054 3.71368 12.8326" fill="#F58220"/>
<path id="Vector_7" fill-rule="evenodd" clip-rule="evenodd" d="M4.29462 13.4972L10.224 5.97656C11.0654 6.50589 11.7227 7.27992 12.1068 8.19364L4.68757 13.834C4.55069 13.7287 4.41952 13.6163 4.29462 13.4972Z" fill="#F58220"/>
<path id="Vector_8" fill-rule="evenodd" clip-rule="evenodd" d="M4.89252 13.9884L12.4643 9.72266C12.4708 9.82992 12.4751 9.93342 12.4751 10.0401C12.4764 11.0305 12.1682 11.9968 11.5932 12.8053L5.57817 14.3788C5.33917 14.2678 5.10983 14.1372 4.89252 13.9884Z" fill="#F58220"/>
<path id="Vector_9" fill-rule="evenodd" clip-rule="evenodd" d="M6.19098 14.6174L10.1507 14.1406C9.56236 14.4948 8.90505 14.7204 8.22237 14.8026C7.5397 14.8848 6.84726 14.8217 6.19098 14.6174Z" fill="#F58220"/>
<path id="Vector_10" d="M7.64203 14.9009C6.6759 14.8995 5.73187 14.6132 4.92924 14.0782C4.1266 13.5432 3.5014 12.7834 3.13264 11.895C2.76388 11.0065 2.66811 10.0292 2.85744 9.08661C3.04677 8.14401 3.5127 7.27841 4.19635 6.5992C4.87999 5.91999 5.75067 5.45766 6.69833 5.27064C7.646 5.08362 8.62812 5.1803 9.52057 5.54847C10.413 5.91664 11.1758 6.53976 11.7124 7.3391C12.249 8.13843 12.5354 9.07809 12.5354 10.0393C12.5329 11.3292 12.0164 12.5654 11.099 13.4768C10.1817 14.3882 8.93844 14.9004 7.64203 14.9009ZM7.64203 5.29786C6.69976 5.29914 5.77902 5.5783 4.99617 6.10007C4.21332 6.62184 3.60351 7.3628 3.24381 8.2293C2.8841 9.0958 2.79065 10.049 2.97526 10.9683C3.15987 11.8876 3.61426 12.7319 4.281 13.3943C4.94774 14.0568 5.79689 14.5077 6.72115 14.6902C7.64541 14.8726 8.60328 14.7783 9.4737 14.4193C10.3441 14.0602 11.088 13.4525 11.6114 12.6729C12.1348 11.8933 12.4141 10.9768 12.4141 10.0393C12.4118 8.7814 11.9081 7.57573 11.0135 6.68684C10.1188 5.79795 8.90636 5.29843 7.64203 5.29786Z" fill="#231F20"/>
<path id="Vector_11" d="M1.77252 10.5792C1.83455 10.6145 1.90481 10.633 1.97627 10.6328C2.02917 10.6331 2.08158 10.6227 2.13032 10.6022C2.17905 10.5818 2.22311 10.5517 2.25981 10.5138C2.29759 10.4759 2.32729 10.4308 2.34711 10.3812C2.36693 10.3316 2.37647 10.2786 2.37516 10.2252C2.37502 10.1723 2.36432 10.1199 2.34368 10.0711C2.32304 10.0223 2.29287 9.97803 2.25491 9.94091C2.21695 9.9038 2.17197 9.87455 2.12257 9.85486C2.07316 9.83517 2.02032 9.82543 1.96711 9.82622C1.91359 9.82552 1.8605 9.83572 1.81109 9.85619C1.76168 9.87667 1.717 9.90698 1.67981 9.94527C1.64191 9.98382 1.61221 10.0296 1.59248 10.0798C1.57275 10.13 1.5634 10.1837 1.56499 10.2376C1.56545 10.3077 1.58466 10.3765 1.62066 10.4368C1.65666 10.4971 1.70814 10.5468 1.76983 10.5808M1.97088 9.91953C2.02589 9.91923 2.08006 9.93289 2.12828 9.95922C2.17685 9.98449 2.21736 10.0228 2.24525 10.0697C2.27324 10.1174 2.28794 10.1716 2.28784 10.2268C2.28826 10.2675 2.28057 10.3078 2.2652 10.3455C2.24983 10.3831 2.22709 10.4174 2.1983 10.4462C2.16951 10.4751 2.13525 10.4979 2.09751 10.5135C2.05976 10.529 2.01929 10.537 1.97843 10.5368C1.92311 10.5375 1.86855 10.524 1.81996 10.4977C1.77202 10.4709 1.73219 10.4318 1.7046 10.3845C1.67622 10.3385 1.66111 10.2856 1.66094 10.2317C1.66037 10.1767 1.67471 10.1226 1.70245 10.0751C1.72833 10.0286 1.76607 9.98975 1.81187 9.96244C1.85991 9.9344 1.91465 9.91977 1.97035 9.92007H1.97358" fill="black"/>
<path id="Vector_12" d="M2.40635 9.40358L1.70345 8.96542L1.69267 8.95898L1.67811 9.05766L2.20583 9.38696L1.60427 9.54302L1.58917 9.64116L2.40257 9.4304L2.40635 9.40358Z" fill="black"/>
<path id="Vector_13" d="M2.33684 7.17578L2.29102 7.27124L2.48508 7.56836L2.13417 7.60643H2.12931L2.0835 7.70243L2.55677 7.65148L2.88827 7.80916L2.92762 7.72764L2.59612 7.56996L2.33684 7.17578Z" fill="black"/>
<path id="Vector_14" d="M2.57996 8.30492L1.94067 8.0668L1.90833 8.15261L2.63117 8.42237L2.76539 8.06626L2.68184 8.03516L2.57996 8.30492Z" fill="black"/>
<path id="Vector_15" d="M2.30738 10.7107L2.34996 10.996L1.67401 11.0952L1.68803 11.1858L2.4513 11.0738L2.39578 10.6973L2.30738 10.7107Z" fill="black"/>
<path id="Vector_16" d="M2.41447 8.84972L2.14388 8.78L2.23282 8.43891L2.14549 8.41638L2.05601 8.75747L1.8431 8.70223L1.93312 8.35846L1.84525 8.33594L1.73206 8.76766L2.47916 8.96127L2.59181 8.53169L2.50395 8.50916L2.41447 8.84972Z" fill="black"/>
<path id="Vector_17" d="M6.88894 4.87097C6.92083 4.88647 6.95586 4.89454 6.99135 4.89457C7.00158 4.89537 7.01185 4.89537 7.02208 4.89457C7.05105 4.89163 7.07914 4.88295 7.10469 4.86904C7.13024 4.85513 7.15274 4.83628 7.17085 4.81359C7.18892 4.79245 7.20238 4.7678 7.21036 4.74121C7.21834 4.71462 7.22067 4.68667 7.21721 4.65913C7.21048 4.61738 7.19176 4.57846 7.16331 4.54704C7.11922 4.50142 7.06786 4.46337 7.0113 4.43442C6.97515 4.41559 6.94006 4.39483 6.90619 4.37221C6.88995 4.36063 6.87589 4.34629 6.86468 4.32984C6.85721 4.31656 6.85228 4.30201 6.85013 4.28694C6.84844 4.27549 6.84925 4.26382 6.8525 4.25271C6.85576 4.2416 6.86138 4.23133 6.86899 4.22258C6.87695 4.2128 6.88685 4.20475 6.89807 4.19894C6.90929 4.19312 6.9216 4.18967 6.93422 4.18879C6.9555 4.18615 6.97711 4.1893 6.99674 4.19791C7.02664 4.21405 7.05347 4.23529 7.07598 4.26066L7.08137 4.26709L7.14875 4.20166L7.14282 4.19577C7.11176 4.15981 7.0736 4.1306 7.0307 4.10996C6.99668 4.09575 6.95949 4.09076 6.9229 4.09548C6.88907 4.09931 6.85678 4.11168 6.8291 4.13141C6.80218 4.15009 6.78108 4.17592 6.76819 4.20596C6.7552 4.236 6.75073 4.26902 6.75526 4.30142C6.75968 4.34432 6.7787 4.38443 6.80916 4.41511C6.84892 4.45026 6.89292 4.48034 6.94015 4.50468C6.99377 4.53003 7.04336 4.5631 7.0873 4.60282C7.10493 4.62084 7.11643 4.64392 7.12018 4.66879C7.12198 4.69024 7.11792 4.71178 7.10843 4.73113C7.09894 4.75048 7.08438 4.76693 7.06628 4.77873C7.04675 4.79185 7.02442 4.8003 7.00106 4.8034C6.94715 4.80983 6.89325 4.77605 6.83935 4.70257L6.83449 4.6956L6.76226 4.74923L6.76658 4.75567C6.79748 4.80175 6.83884 4.83996 6.88732 4.86722" fill="black"/>
<path id="Vector_18" d="M6.38022 4.89987L6.32201 4.62797L6.6686 4.55449L6.64974 4.46654L6.30314 4.54001L6.25732 4.32603L6.60715 4.25202L6.58829 4.16406L6.15652 4.25523L6.14844 4.25684L6.30745 4.99909L6.30907 5.00713L6.74569 4.91489L6.72682 4.8264L6.38022 4.89987Z" fill="black"/>
<path id="Vector_19" d="M10.3831 5.56814L10.4122 4.72722V4.72186L10.3868 4.70898L9.71143 5.22813L9.80252 5.27425L10.0181 5.10746L10.2995 5.24958L10.292 5.52309L10.3831 5.56814ZM10.3146 4.88167L10.3054 5.14983L10.0985 5.04257L10.3146 4.88167Z" fill="black"/>
<path id="Vector_20" d="M4.48057 5.89413L4.55604 5.8405L4.35444 5.55572L4.37977 5.53803L4.79968 5.66835H4.80345L4.89724 5.60346L4.47249 5.47206C4.51087 5.44607 4.54382 5.41293 4.56951 5.37445C4.58971 5.3424 4.59967 5.305 4.59808 5.26719C4.59495 5.22847 4.58115 5.19136 4.55819 5.15993C4.53334 5.1206 4.49525 5.09135 4.45071 5.0774C4.40617 5.06344 4.3581 5.06571 4.31509 5.08378C4.26314 5.10874 4.21368 5.13855 4.16739 5.1728L4.03802 5.26344L4.47626 5.88823L4.48057 5.89413ZM4.1647 5.28704L4.26711 5.21571C4.29598 5.19346 4.32842 5.17623 4.36306 5.16476C4.38467 5.15989 4.40725 5.16177 4.42775 5.17012C4.44961 5.17794 4.46847 5.19238 4.48165 5.21142C4.49516 5.23047 4.50284 5.25301 4.50375 5.27631C4.50481 5.29934 4.49838 5.32209 4.48542 5.3412C4.46287 5.36995 4.43552 5.39462 4.40457 5.41414L4.30377 5.48279L4.1647 5.28704Z" fill="black"/>
<path id="Vector_21" d="M3.99763 6.29612L4.06878 6.23766L3.84293 5.96951L3.87796 5.94002C3.9291 5.90034 3.97606 5.85559 4.01811 5.80648C4.04627 5.77063 4.06163 5.72648 4.06177 5.68098C4.05989 5.63383 4.04072 5.58899 4.00787 5.55495C3.97905 5.51816 3.93793 5.49286 3.89198 5.48362C3.84812 5.47589 3.80293 5.48247 3.76315 5.50239C3.71228 5.53216 3.6646 5.56702 3.62084 5.60643L3.49902 5.7078L3.99008 6.28915L3.99763 6.29612ZM3.62947 5.71852L3.72542 5.63861C3.75206 5.61403 3.78267 5.59408 3.81597 5.57962C3.83715 5.57263 3.86003 5.57263 3.8812 5.57962C3.90248 5.58631 3.92126 5.5992 3.9351 5.61662C3.95055 5.63428 3.96031 5.65614 3.96313 5.67937C3.96587 5.70223 3.96115 5.72536 3.94966 5.74534C3.92953 5.77642 3.90397 5.80367 3.87419 5.82578L3.78148 5.9014L3.62947 5.71852Z" fill="black"/>
<path id="Vector_22" d="M5.02607 5.41396C5.06609 5.42703 5.10793 5.43373 5.15005 5.43381C5.21524 5.4333 5.27937 5.41731 5.33709 5.38715C5.40821 5.3506 5.46689 5.29397 5.50579 5.22436C5.54468 5.15476 5.56205 5.07528 5.55572 4.99589C5.54939 4.9165 5.51963 4.84073 5.47019 4.7781C5.42075 4.71547 5.35382 4.66876 5.2778 4.64383C5.22612 4.62757 5.1717 4.62175 5.11773 4.62672C5.06376 4.6317 5.01134 4.64736 4.96354 4.67279C4.90029 4.70529 4.84689 4.75398 4.80884 4.81384C4.77042 4.87298 4.74881 4.94136 4.74631 5.01174C4.74315 5.0833 4.75875 5.15446 4.79159 5.21821C4.81508 5.2654 4.84799 5.30732 4.8883 5.34144C4.92862 5.37555 4.97549 5.40114 5.02607 5.41665M4.83956 5.01442C4.84274 4.96026 4.85989 4.90783 4.88934 4.86218C4.9188 4.81653 4.95957 4.77919 5.00774 4.75377C5.05776 4.72872 5.11355 4.71725 5.16945 4.72052C5.22412 4.72287 5.27716 4.73972 5.32308 4.76933C5.36912 4.7998 5.4063 4.84178 5.43088 4.89107C5.45651 4.94076 5.46894 4.99614 5.467 5.05196C5.4648 5.10612 5.44764 5.15864 5.41741 5.20373C5.38682 5.24958 5.34461 5.28658 5.29505 5.31099C5.25855 5.32953 5.21871 5.34066 5.17785 5.34373C5.13699 5.3468 5.09592 5.34175 5.05704 5.32887C5.01816 5.31599 4.98225 5.29555 4.95139 5.26872C4.92053 5.2419 4.89534 5.20923 4.8773 5.17263C4.8514 5.12302 4.83877 5.06761 4.84064 5.01174" fill="black"/>
<path id="Vector_23" d="M9.30762 4.51098L9.59655 5.18404L9.59762 5.18726L9.62565 5.19638L9.86391 4.46647L9.77766 4.43858L9.60301 4.9722L9.31086 4.28788L9.28391 4.2793L9.04565 5.00867L9.13567 5.03817L9.30762 4.51098Z" fill="black"/>
<path id="Vector_24" d="M5.8287 5.15722L5.91548 5.12933L5.80121 4.77966L6.09013 4.68634L6.06156 4.6L5.77318 4.69332L5.70472 4.48577L5.99364 4.39245L5.96561 4.30664L5.5899 4.42785L5.826 5.14971L5.8287 5.15722Z" fill="black"/>
<path id="Vector_25" d="M8.51103 4.92273C8.53609 4.9274 8.56153 4.92973 8.58703 4.92971C8.66057 4.92812 8.7323 4.90677 8.79462 4.8679C8.85695 4.82904 8.90754 4.77411 8.94103 4.70896C8.97451 4.6438 8.98966 4.57085 8.98484 4.49782C8.98003 4.4248 8.95544 4.35443 8.91368 4.29419C8.88224 4.25003 8.84216 4.21264 8.79585 4.18426C8.74954 4.15588 8.69795 4.13708 8.64417 4.129C8.57476 4.11696 8.50338 4.12325 8.43718 4.14724C8.37047 4.17112 8.31158 4.21266 8.26684 4.26737C8.22102 4.32259 8.19054 4.38878 8.17844 4.45937C8.16802 4.51171 8.16867 4.56565 8.18037 4.61773C8.19206 4.66981 8.21454 4.71889 8.24636 4.76184C8.27702 4.80565 8.31627 4.84282 8.36176 4.87111C8.40725 4.89941 8.45802 4.91825 8.51103 4.92649M8.27331 4.4776C8.28239 4.42241 8.30601 4.37059 8.34177 4.32744C8.37668 4.28534 8.42228 4.2533 8.47383 4.23466C8.50837 4.22203 8.54485 4.2155 8.58164 4.21535C8.59969 4.21539 8.61771 4.21682 8.63554 4.21964C8.68987 4.22937 8.74065 4.25324 8.7827 4.28882C8.82505 4.32308 8.85728 4.36812 8.87595 4.41915C8.8946 4.47067 8.89906 4.52622 8.88889 4.58004C8.87963 4.63492 8.85623 4.68647 8.82097 4.72967C8.78622 4.77145 8.74078 4.80313 8.68945 4.82137C8.63764 4.83985 8.58183 4.84429 8.52774 4.83424C8.48738 4.82769 8.44873 4.81323 8.41403 4.7917C8.37934 4.77017 8.34928 4.742 8.32562 4.70882C8.30195 4.67564 8.28514 4.63812 8.27616 4.59843C8.26718 4.55874 8.26621 4.51767 8.27331 4.4776Z" fill="black"/>
<path id="Vector_26" d="M10.8256 5.75953L10.5798 5.60668L10.942 5.03123L10.8633 4.98242L10.458 5.62599L10.4542 5.63296L10.7782 5.83461L10.8256 5.75953Z" fill="black"/>
<path id="Vector_27" d="M7.58514 4.39547C7.51668 4.34667 7.49404 4.32897 7.48703 4.32254C7.47222 4.30919 7.45982 4.2934 7.45038 4.27588C7.44407 4.26204 7.44059 4.24709 7.44014 4.2319C7.43971 4.22034 7.44175 4.20882 7.44612 4.1981C7.45048 4.18738 7.45708 4.1777 7.46547 4.16969C7.47461 4.16089 7.48542 4.15399 7.49726 4.14939C7.50911 4.14479 7.52175 4.14257 7.53447 4.14287C7.55602 4.14216 7.57733 4.14755 7.59592 4.15843C7.62353 4.17713 7.64777 4.20034 7.66761 4.22707L7.67246 4.23351L7.74577 4.17613L7.74092 4.16969C7.71389 4.13049 7.67903 4.09726 7.6385 4.07208C7.60775 4.05542 7.57326 4.04675 7.53824 4.04688H7.53393C7.50009 4.04715 7.46688 4.05601 7.43744 4.07262C7.40887 4.08853 7.3852 4.11189 7.36898 4.14019C7.35282 4.16899 7.34481 4.20161 7.34581 4.23458C7.34668 4.27783 7.36205 4.31954 7.38947 4.35311C7.42554 4.3919 7.46627 4.42612 7.51075 4.455C7.55934 4.48753 7.60292 4.52692 7.64012 4.57192C7.65573 4.59176 7.66477 4.61593 7.66599 4.6411C7.66653 4.66168 7.6611 4.68197 7.65036 4.69956C7.63963 4.71873 7.62352 4.73438 7.604 4.74461C7.58331 4.75583 7.56019 4.7619 7.53662 4.76231C7.48272 4.76231 7.42882 4.72423 7.38462 4.64539L7.38084 4.63788L7.30322 4.68561L7.307 4.69259C7.33239 4.74177 7.36938 4.78409 7.4148 4.81594C7.45233 4.8396 7.49597 4.8519 7.5404 4.85133H7.54471C7.5738 4.85142 7.60261 4.84573 7.62945 4.83458C7.6563 4.82344 7.68063 4.80707 7.70103 4.78644C7.72122 4.76722 7.7372 4.74405 7.74796 4.7184C7.75872 4.69274 7.76403 4.66514 7.76356 4.63735C7.76196 4.59551 7.74809 4.55506 7.72367 4.52097C7.68493 4.47088 7.6379 4.42771 7.5846 4.39333" fill="black"/>
<path id="Vector_28" d="M8.04368 4.09065L8.04422 4.08261L7.95258 4.07617L7.89922 4.83397L7.89868 4.84201L7.99032 4.84845L8.04368 4.09065Z" fill="black"/>
<path id="Vector_29" d="M13.7084 10.1017C13.6933 10.0728 13.6705 10.0485 13.6426 10.0315C13.6143 10.0146 13.5819 10.0055 13.5488 10.0052H13.5451C13.5028 10.0055 13.4617 10.0194 13.4281 10.0449C13.3876 10.0793 13.3514 10.1183 13.3203 10.1613C13.286 10.2086 13.245 10.2507 13.1985 10.2862C13.1783 10.3014 13.1537 10.3095 13.1284 10.3093C13.1076 10.3087 13.0873 10.3026 13.0696 10.2916C13.0508 10.2802 13.0356 10.2636 13.026 10.2438C13.0153 10.2229 13.0101 10.1997 13.0109 10.1763C13.0109 10.1226 13.0529 10.0717 13.1338 10.0299L13.1413 10.0261L13.0955 9.94727L13.0885 9.95102C13.0383 9.97483 12.9946 10.0101 12.9607 10.054C12.9348 10.0918 12.9207 10.1364 12.9203 10.1822C12.9195 10.211 12.9244 10.2398 12.9348 10.2667C12.9451 10.2937 12.9607 10.3184 12.9807 10.3393C12.9991 10.3602 13.0218 10.377 13.0473 10.3886C13.0728 10.4001 13.1004 10.4062 13.1284 10.4063H13.1316C13.1727 10.4052 13.2126 10.3928 13.247 10.3704C13.2988 10.334 13.3439 10.2888 13.3801 10.2369C13.434 10.1682 13.4513 10.1478 13.4567 10.1425C13.4705 10.128 13.487 10.1161 13.5052 10.1076C13.5191 10.101 13.5345 10.098 13.5499 10.099C13.5615 10.0989 13.5729 10.1012 13.5835 10.1059C13.5941 10.1105 13.6036 10.1173 13.6114 10.1259C13.62 10.1352 13.6267 10.1462 13.6309 10.1582C13.6352 10.1702 13.637 10.1829 13.6362 10.1956C13.6357 10.2168 13.6295 10.2375 13.6184 10.2556C13.598 10.2826 13.573 10.3059 13.5445 10.3243L13.538 10.3297L13.592 10.4042L13.599 10.3999C13.6389 10.3742 13.6732 10.3406 13.6998 10.3012C13.7186 10.2701 13.7289 10.2346 13.7294 10.1983C13.7301 10.1645 13.7223 10.1312 13.7068 10.1012" fill="black"/>
<path id="Vector_30" d="M12.9262 10.5293L12.9197 10.6205L13.6819 10.6736L13.6906 10.6741L13.6965 10.5829L12.9348 10.5298L12.9262 10.5293Z" fill="black"/>
<path id="Vector_31" d="M12.2648 6.9079L12.6254 6.61776L12.5677 6.54697L12.2066 6.83711C12.1773 6.86259 12.1455 6.88505 12.1117 6.90415C12.0895 6.91409 12.0654 6.91938 12.0411 6.9197C12.0177 6.91915 11.9946 6.91355 11.9736 6.90327C11.9526 6.89299 11.934 6.87828 11.9193 6.86017C11.9015 6.83824 11.8889 6.81256 11.8826 6.78509C11.8759 6.76014 11.8759 6.73388 11.8826 6.70893C11.8907 6.68482 11.9043 6.66295 11.9225 6.64511C11.9311 6.636 11.9559 6.61454 11.9985 6.58022L12.3591 6.28954L12.3014 6.21875L11.9387 6.50728C11.8948 6.53921 11.8554 6.57692 11.8217 6.61937C11.7925 6.66193 11.7797 6.71352 11.7856 6.76471C11.7918 6.82111 11.8149 6.87435 11.8519 6.91755C11.8848 6.95958 11.9309 6.98942 11.9829 7.00229C12.0027 7.00693 12.0229 7.00927 12.0432 7.00926C12.0702 7.00936 12.0968 7.00445 12.1219 6.99478C12.1734 6.97263 12.2212 6.94279 12.2637 6.90629" fill="black"/>
<path id="Vector_32" d="M12.8949 9.26744L12.9843 9.25028L12.9164 8.90436L13.1913 8.85127L13.2587 9.19718L13.3476 9.18002L13.2797 8.8341L13.4959 8.79281L13.5643 9.14141L13.6533 9.12371L13.5676 8.68555L12.8097 8.83196L12.8949 9.26744Z" fill="black"/>
<path id="Vector_33" d="M13.0869 7.39028L13.0416 7.31198L12.5527 7.59246L12.7953 6.89366L12.7964 6.8899L12.7823 6.86523L12.1204 7.24494L12.1134 7.24869L12.1608 7.33021L12.6438 7.05348L12.4039 7.74906L12.4185 7.77373L13.0799 7.39403L13.0869 7.39028Z" fill="black"/>
<path id="Vector_34" d="M13.558 10.9835L12.8939 10.8677L12.8863 10.8661L12.8696 10.9578L13.5418 11.0752L13.5127 11.2399L13.6011 11.2554L13.6744 10.8425L13.6755 10.8339L13.5871 10.8184L13.558 10.9835Z" fill="black"/>
<path id="Vector_35" d="M12.909 9.48136L13.2588 9.45079V9.48136L12.9354 9.7774V9.78008L12.9451 9.89377L13.2717 9.59398C13.2754 9.64004 13.2879 9.68499 13.3084 9.72645C13.3267 9.76042 13.3549 9.78809 13.3892 9.80582C13.425 9.82279 13.4647 9.82966 13.5041 9.82566C13.551 9.82334 13.5956 9.80431 13.6297 9.77203C13.6621 9.74024 13.6828 9.69847 13.6884 9.65351C13.6923 9.59629 13.6908 9.53885 13.6841 9.48189L13.6701 9.32422L12.9009 9.39126L12.909 9.48136ZM13.4286 9.7184C13.408 9.70781 13.3913 9.69088 13.3812 9.67013C13.3672 9.63599 13.3594 9.59969 13.358 9.56287L13.3483 9.44221L13.5881 9.42129L13.5989 9.54464C13.6038 9.58033 13.6027 9.61656 13.5957 9.6519C13.5892 9.67318 13.5762 9.69192 13.5585 9.70553C13.5408 9.71998 13.5189 9.72844 13.496 9.72966C13.4727 9.73227 13.4492 9.72778 13.4286 9.71679" fill="black"/>
<path id="Vector_36" d="M12.7802 11.3875L12.757 11.475L13.1112 11.5693L13.4389 11.9094L13.4664 11.8069L13.2211 11.5506L13.5634 11.4481L13.5909 11.3457L13.1349 11.4819L12.7802 11.3875Z" fill="black"/>
<path id="Vector_37" d="M13.5131 8.48667L13.4802 8.39281L12.8587 8.34294L13.3153 7.93159L13.3196 7.92837L13.2867 7.83398L12.6684 8.3912L12.6647 8.39496L12.6733 8.4207L13.5007 8.48559L13.5131 8.48667Z" fill="black"/>
<path id="Vector_38" d="M13.2185 7.67883L13.1802 7.5957L12.4875 7.91641L12.48 7.92017L12.5188 8.00276L13.2109 7.68205L13.2185 7.67883Z" fill="black"/>
<path id="Vector_39" d="M10.3453 14.5016L10.3205 14.5161L10.3976 15.3613L10.486 15.3077L10.4617 15.0352L10.7312 14.8743L10.9598 15.0272L11.0455 14.9773L10.3474 14.5L10.3453 14.5016ZM10.6525 14.8234L10.452 14.9403L10.4278 14.6722L10.6525 14.8234Z" fill="black"/>
<path id="Vector_40" d="M7.99618 15.9517C7.97743 15.8671 7.96607 15.7809 7.96222 15.6943C7.95794 15.6001 7.96409 15.5057 7.98055 15.4128C7.99389 15.33 8.01723 15.2491 8.05008 15.172L8.05547 15.1602L7.9536 15.1644V15.1693C7.92186 15.2522 7.89944 15.3383 7.88675 15.4262C7.87262 15.5195 7.86775 15.614 7.8722 15.7083C7.87571 15.7945 7.8869 15.8803 7.90562 15.9646C7.92154 16.0384 7.94521 16.1103 7.97623 16.1791L7.97893 16.184L8.07542 16.1797L8.07003 16.1689C8.03866 16.1001 8.01463 16.0282 7.99833 15.9544" fill="black"/>
<path id="Vector_41" d="M8.30527 15.1745L8.21338 15.1816L8.2735 15.9468L8.36539 15.9396L8.30527 15.1745Z" fill="black"/>
<path id="Vector_42" d="M9.75665 14.9682C9.69655 14.9223 9.62273 14.8977 9.54697 14.8985C9.46349 14.9046 9.38148 14.9236 9.30386 14.9548L9.14862 15.0084L9.40304 15.7244L9.40574 15.7319L9.64076 15.6493C9.71393 15.6277 9.78097 15.5893 9.83643 15.5372C9.87864 15.4908 9.90637 15.4333 9.9162 15.3715C9.92791 15.3017 9.92085 15.2301 9.89572 15.1639C9.87034 15.0867 9.82273 15.0187 9.75881 14.9682M9.4591 15.6214L9.26074 15.0642L9.30332 15.0492C9.37557 15.0205 9.45135 15.0015 9.52864 14.9928C9.58904 14.989 9.64889 15.0063 9.69789 15.0416C9.74864 15.0809 9.78623 15.1346 9.8057 15.1956C9.82772 15.252 9.83204 15.3137 9.8181 15.3725C9.80432 15.426 9.77255 15.4731 9.72808 15.5061C9.66689 15.5442 9.60092 15.5741 9.53187 15.5951L9.4591 15.6214Z" fill="black"/>
<path id="Vector_43" d="M8.93683 15.0612L9.04895 15.6109L8.4587 15.1599L8.45601 15.1577L8.42798 15.1636L8.57999 15.9075L8.5816 15.9155L8.67432 15.8968L8.56328 15.3535L9.14813 15.7986L9.15082 15.8008L9.17939 15.7949L9.02577 15.043L8.93683 15.0612Z" fill="black"/>
<path id="Vector_44" d="M4.28444 14.2939C4.31699 14.2599 4.33613 14.2153 4.33834 14.1684C4.33897 14.1242 4.32495 14.081 4.29845 14.0456C4.26057 14.0004 4.21812 13.9593 4.17178 13.9227L4.05103 13.8203L3.54919 14.4033L3.61927 14.4628L3.84351 14.2L3.87854 14.2295C3.92634 14.2733 3.97854 14.3122 4.03432 14.3454C4.07461 14.3672 4.12113 14.375 4.16639 14.3673C4.21354 14.3583 4.25561 14.3321 4.28444 14.2939ZM4.24077 14.1716C4.23769 14.1944 4.22794 14.2159 4.21274 14.2333C4.19757 14.2511 4.17754 14.2641 4.15507 14.2708C4.13318 14.278 4.10957 14.278 4.08769 14.2708C4.05335 14.2561 4.02195 14.2354 3.99497 14.2097L3.90442 14.1314L4.06128 13.9496L4.15615 14.0305C4.18499 14.0524 4.2098 14.0791 4.22945 14.1094C4.23986 14.1291 4.24382 14.1516 4.24077 14.1737" fill="black"/>
<path id="Vector_45" d="M11.2698 14.7654C11.1911 14.6022 11.0831 14.4547 10.9512 14.33C10.8968 14.278 10.837 14.232 10.7728 14.1927L10.7679 14.1895L10.6903 14.2468L10.7005 14.2533C10.7657 14.293 10.8265 14.3396 10.8817 14.3922C10.9449 14.4516 11.0027 14.5166 11.0542 14.5863C11.1107 14.6622 11.1589 14.7438 11.1981 14.8298C11.2337 14.9059 11.2598 14.986 11.2757 15.0685L11.2784 15.0813L11.3603 15.0213V15.0159C11.3403 14.9293 11.3105 14.8453 11.2714 14.7654" fill="black"/>
<path id="Vector_46" d="M9.93676 14.7012L9.85321 14.7393L10.1729 15.4375L10.2564 15.4L9.93999 14.7087L9.93676 14.7012Z" fill="black"/>
<path id="Vector_47" d="M5.52634 14.7855L5.26491 15.2832L5.09188 14.5635L5.0908 14.5597L5.06601 14.5469L4.7124 15.2205L4.70917 15.2274L4.79272 15.2709L5.05091 14.7796L5.22341 15.4908L5.22394 15.4945L5.24982 15.5079L5.60666 14.8268L5.52634 14.7855Z" fill="black"/>
<path id="Vector_48" d="M4.85046 14.4359L4.59388 14.8204C4.57375 14.8535 4.55027 14.8844 4.5238 14.9127C4.50562 14.929 4.48411 14.9413 4.46073 14.9486C4.43866 14.9557 4.4152 14.9575 4.39228 14.954C4.36899 14.9505 4.34673 14.9421 4.32705 14.9293C4.30332 14.9132 4.28344 14.8922 4.26884 14.8676C4.25452 14.8461 4.2465 14.821 4.24566 14.7952C4.24598 14.77 4.25226 14.7452 4.26399 14.7228C4.2683 14.7142 4.2807 14.6928 4.31789 14.6386L4.57447 14.2535L4.49631 14.2031L4.23973 14.5882C4.20753 14.6317 4.18141 14.6793 4.16211 14.7298C4.14763 14.779 4.15087 14.8317 4.17127 14.8789C4.19385 14.9306 4.23138 14.9745 4.27908 15.0049C4.31814 15.0321 4.36452 15.0471 4.41222 15.0478H4.42947C4.47695 15.0457 4.52257 15.0288 4.55992 14.9995C4.60198 14.9629 4.63832 14.9203 4.66772 14.873L4.9243 14.4884L4.85046 14.4359Z" fill="black"/>
<path id="Vector_49" d="M5.93115 14.9219L5.77591 15.411C5.76535 15.4506 5.74959 15.4886 5.72902 15.5241C5.71747 15.5405 5.70108 15.5529 5.68212 15.5595C5.66358 15.5657 5.64352 15.5657 5.62498 15.5595C5.60963 15.5544 5.5955 15.5462 5.58348 15.5354C5.55599 15.51 5.53108 15.482 5.50909 15.4517L5.5037 15.4448L5.43524 15.4984L5.43901 15.5043C5.45988 15.5381 5.48568 15.5687 5.51556 15.5949C5.54034 15.6151 5.56867 15.6306 5.59911 15.6405C5.62056 15.6473 5.6429 15.6509 5.66541 15.6512C5.68069 15.6512 5.69591 15.6492 5.71069 15.6454C5.74361 15.6366 5.77299 15.6178 5.79478 15.5917C5.82591 15.5451 5.84905 15.4936 5.86323 15.4394L6.01955 14.9482L5.93115 14.9219Z" fill="black"/>
<path id="Vector_50" d="M7.27062 15.6001C7.25049 15.5782 7.22657 15.56 7.20001 15.5465C7.2266 15.5342 7.24988 15.5158 7.26793 15.4929C7.28895 15.4666 7.3022 15.435 7.3062 15.4017C7.31107 15.3661 7.30565 15.3298 7.29056 15.2971C7.27552 15.2645 7.2509 15.2372 7.21995 15.2188C7.17741 15.1966 7.13089 15.1829 7.08304 15.1786L6.92672 15.1582L6.82538 15.9192L7.04099 15.9476C7.05639 15.9493 7.07186 15.9502 7.08735 15.9503C7.13894 15.9516 7.18959 15.9364 7.23181 15.9069C7.25646 15.89 7.27719 15.868 7.29262 15.8425C7.30806 15.817 7.31783 15.7885 7.32129 15.7589C7.32554 15.7296 7.32314 15.6997 7.31428 15.6714C7.30606 15.6438 7.29148 15.6185 7.2717 15.5974M6.99787 15.5771C7.04213 15.5814 7.08584 15.5902 7.12832 15.6033C7.16008 15.6144 7.18759 15.635 7.20701 15.6623C7.22397 15.6873 7.23106 15.7177 7.22696 15.7476C7.22388 15.7722 7.21314 15.7953 7.19623 15.8136C7.17921 15.8328 7.15691 15.8465 7.13209 15.8533C7.09271 15.8604 7.05234 15.8604 7.01296 15.8533L6.92833 15.842L6.96391 15.5738L6.99787 15.5771ZM7.18437 15.4516C7.16857 15.4692 7.14767 15.4816 7.12454 15.487C7.08691 15.4935 7.04844 15.4935 7.01081 15.487L6.97631 15.4827L7.00595 15.2601L7.08411 15.2708C7.1237 15.2721 7.16169 15.2867 7.19192 15.3121C7.20163 15.3225 7.20879 15.335 7.21281 15.3485C7.21683 15.3621 7.21762 15.3765 7.2151 15.3904C7.21229 15.4136 7.20231 15.4353 7.18653 15.4526" fill="black"/>
<path id="Vector_51" d="M6.46799 15.0762L5.93219 15.7374L6.03191 15.761L6.20494 15.5465L6.51165 15.62L6.56879 15.8881L6.66528 15.9112L6.4944 15.0831L6.46799 15.0762ZM6.49278 15.5261L6.26639 15.4725L6.4405 15.2612L6.49278 15.5261Z" fill="black"/>
<path id="Vector_52" fill-rule="evenodd" clip-rule="evenodd" d="M2.88999 12.9414C2.93264 12.9414 2.97432 12.954 3.00978 12.9776C3.04524 13.0011 3.07287 13.0346 3.08919 13.0738C3.10551 13.113 3.10978 13.1562 3.10146 13.1978C3.09314 13.2394 3.07261 13.2776 3.04245 13.3076C3.0123 13.3376 2.97388 13.3581 2.93205 13.3663C2.89023 13.3746 2.84688 13.3704 2.80748 13.3541C2.76808 13.3379 2.73441 13.3104 2.71071 13.2751C2.68702 13.2398 2.67438 13.1984 2.67438 13.1559C2.67438 13.099 2.69709 13.0445 2.73753 13.0042C2.77796 12.964 2.83281 12.9414 2.88999 12.9414Z" fill="#231F20"/>
<path id="Vector_53" d="M2.89004 13.3911C2.84401 13.391 2.79904 13.3773 2.76081 13.3518C2.72259 13.3263 2.69283 13.2901 2.67529 13.2477C2.65774 13.2054 2.65321 13.1588 2.66226 13.1139C2.6713 13.069 2.69352 13.0278 2.72611 12.9954C2.7587 12.9631 2.80019 12.941 2.84535 12.9321C2.8905 12.9233 2.9373 12.9279 2.97981 12.9454C3.02233 12.963 3.05867 12.9927 3.08423 13.0308C3.1098 13.0688 3.12344 13.1136 3.12344 13.1594C3.1233 13.2209 3.09864 13.2798 3.05489 13.3233C3.01113 13.3667 2.95185 13.3911 2.89004 13.3911ZM2.89004 12.9621C2.85027 12.9621 2.8114 12.9738 2.77834 12.9958C2.74527 13.0178 2.7195 13.049 2.70428 13.0855C2.68907 13.1221 2.68508 13.1623 2.69284 13.2011C2.7006 13.2399 2.71975 13.2756 2.74787 13.3036C2.77599 13.3315 2.81181 13.3506 2.85081 13.3583C2.88982 13.366 2.93024 13.3621 2.96698 13.3469C3.00372 13.3318 3.03512 13.3061 3.05721 13.2732C3.07931 13.2403 3.0911 13.2017 3.0911 13.1621C3.09096 13.1091 3.06973 13.0583 3.03205 13.0208C2.99438 12.9833 2.94332 12.9622 2.89004 12.9621Z" fill="#231F20"/>
<path id="Vector_54" fill-rule="evenodd" clip-rule="evenodd" d="M12.3376 12.9414C12.3802 12.9414 12.4219 12.954 12.4574 12.9776C12.4928 13.0011 12.5204 13.0346 12.5368 13.0738C12.5531 13.113 12.5574 13.1562 12.549 13.1978C12.5407 13.2394 12.5202 13.2776 12.49 13.3076C12.4599 13.3376 12.4215 13.3581 12.3796 13.3663C12.3378 13.3746 12.2944 13.3704 12.2551 13.3541C12.2157 13.3379 12.182 13.3104 12.1583 13.2751C12.1346 13.2398 12.1219 13.1984 12.1219 13.1559C12.1219 13.099 12.1447 13.0445 12.1851 13.0042C12.2255 12.964 12.2804 12.9414 12.3376 12.9414Z" fill="#231F20"/>
<path id="Vector_55" d="M12.3375 13.3911C12.2915 13.391 12.2465 13.3773 12.2083 13.3518C12.1701 13.3263 12.1403 13.2901 12.1228 13.2477C12.1053 13.2054 12.1007 13.1588 12.1098 13.1139C12.1188 13.069 12.141 13.0278 12.1736 12.9954C12.2062 12.9631 12.2477 12.941 12.2929 12.9321C12.338 12.9233 12.3848 12.9279 12.4273 12.9454C12.4698 12.963 12.5062 12.9927 12.5317 13.0308C12.5573 13.0688 12.5709 13.1136 12.5709 13.1594C12.5708 13.2209 12.5462 13.2798 12.5024 13.3233C12.4586 13.3667 12.3994 13.3911 12.3375 13.3911ZM12.3375 12.9621C12.2978 12.9621 12.2589 12.9738 12.2258 12.9958C12.1928 13.0178 12.167 13.049 12.1518 13.0855C12.1366 13.1221 12.1326 13.1623 12.1404 13.2011C12.1481 13.2399 12.1673 13.2756 12.1954 13.3036C12.2235 13.3315 12.2593 13.3506 12.2983 13.3583C12.3373 13.366 12.3778 13.3621 12.4145 13.3469C12.4512 13.3318 12.4826 13.3061 12.5047 13.2732C12.5268 13.2403 12.5386 13.2017 12.5386 13.1621C12.5386 13.109 12.5174 13.0582 12.4797 13.0206C12.442 12.9831 12.3909 12.9621 12.3375 12.9621Z" fill="#231F20"/>
<path id="Vector_56" d="M17.5962 7.80635H19.7869V9.02966H16.322V3.83984H17.5962V7.80635Z" fill="#F58220"/>
<path id="Vector_57" d="M22.6487 3.79688C23.8858 3.79688 24.4965 4.76222 24.4814 5.67984C24.4663 6.58405 23.855 7.48879 22.6487 7.48879H21.8143V9.03067H20.54V3.79688H22.6487ZM22.6487 6.29498C23.0432 6.29498 23.2373 5.97641 23.2373 5.67233C23.2373 5.36825 23.0432 5.02877 22.6487 5.02877H21.8143V6.29659L22.6487 6.29498Z" fill="#F58220"/>
<path id="Vector_58" d="M25.2044 7.36175V3.83984H26.4787V7.35424C26.4787 8.13296 27.954 8.11794 27.954 7.35424V3.83984H29.2288V7.36175C29.2288 8.53304 28.2149 9.11171 27.2091 9.1042C26.2032 9.0967 25.2044 8.53304 25.2044 7.36175Z" fill="#F58220"/>
<path id="Vector_59" d="M32.8053 3.75977C34.2958 3.75977 35.5102 4.91657 35.5102 6.44397C35.5102 7.94884 34.2958 9.10564 32.8053 9.10564C31.3149 9.10564 30.1102 7.97136 30.1102 6.44397C30.1102 4.91657 31.3171 3.76245 32.8053 3.76245M32.7757 7.90701C33.4985 7.91451 34.2311 7.42433 34.2311 6.44665C34.2311 5.45288 33.5007 4.96377 32.7757 4.97878C32.0679 4.99326 31.3742 5.4754 31.3742 6.44665C31.3742 7.4179 32.0674 7.8995 32.7757 7.90701Z" fill="#231F20"/>
<path id="Vector_60" d="M37.172 5.01993V5.42055C37.455 5.06444 37.932 4.96094 38.3643 4.96094C39.5119 4.97595 39.8251 5.81902 39.8197 6.82191V9.03095H38.6252V6.82942C38.6252 6.28775 38.3196 6.0432 37.9994 6.0432C37.7898 6.05034 37.5916 6.13957 37.4478 6.29144C37.3041 6.44331 37.2264 6.64554 37.2318 6.85409V9.03363H35.9872V5.01993H37.172Z" fill="#231F20"/>
<path id="Vector_61" d="M41.7099 3.83984H40.5176V9.02966H41.7099V3.83984Z" fill="#231F20"/>
<path id="Vector_62" d="M43.0366 3.45524C43.3939 3.44827 43.7664 3.66976 43.7664 4.13795C43.7664 4.567 43.4311 4.78152 43.0883 4.7901C42.7309 4.79761 42.3585 4.58255 42.3585 4.13795C42.3585 3.69336 42.6937 3.46275 43.0366 3.45524ZM42.47 9.0328H43.6624V5.01964H42.47V9.0328Z" fill="#231F20"/>
<path id="Vector_63" d="M45.6224 5.01993V5.42055C45.9054 5.06444 46.3824 4.96094 46.8147 4.96094C47.9618 4.97595 48.2749 5.81902 48.2701 6.82191V9.03095H47.0751V6.82942C47.0751 6.28775 46.77 6.0432 46.4492 6.0432C46.2398 6.05048 46.0417 6.13976 45.898 6.29162C45.7544 6.44348 45.6768 6.64563 45.6822 6.85409V9.03363H44.4376V5.01993H45.6224Z" fill="#231F20"/>
<path id="Vector_64" d="M53.0065 7.47339H50.1157C50.2569 7.84451 50.6224 8.02954 50.9782 8.03705C51.1043 8.04143 51.2299 8.01951 51.3469 7.97268C51.464 7.92585 51.5699 7.85515 51.6579 7.76514H52.9322C52.6195 8.65487 51.77 9.09249 50.9205 9.07748C49.8996 9.05549 48.8862 8.37331 48.8862 7.01646C48.8862 5.63762 49.9367 4.95544 50.9884 4.96295C52.0244 4.97046 53.0524 5.65264 53.0524 7.01646C53.0532 7.17078 53.0382 7.32478 53.0076 7.47607M51.7711 6.56436C51.659 6.16374 51.3312 5.97871 50.9512 5.97871C50.7725 5.97391 50.5974 6.02906 50.4541 6.13529C50.3108 6.24152 50.2075 6.39265 50.161 6.56436H51.7711Z" fill="#231F20"/>
<path id="Vector_65" d="M53.1646 10.209H16.1923" stroke="black" stroke-width="0.0807436" stroke-miterlimit="10"/>
<path id="Vector_66" d="M17.4196 11.7006C17.3808 11.5263 17.1911 11.4512 17.0213 11.4539C16.8903 11.4566 16.7453 11.5011 16.6677 11.6009C16.6292 11.6527 16.6122 11.7172 16.6203 11.7811C16.6343 11.9806 16.8542 12.0058 17.0633 12.0251C17.3329 12.0583 17.6622 12.1275 17.7377 12.438C17.7462 12.4801 17.7508 12.5228 17.7517 12.5657C17.7517 12.9411 17.3781 13.1556 17.0272 13.1556C16.7259 13.1556 16.361 12.9786 16.3265 12.6317L16.3232 12.578L16.6079 12.5727L16.6105 12.614V12.6032C16.63 12.7834 16.8504 12.8773 17.0315 12.8773C17.2401 12.8773 17.4687 12.7609 17.4687 12.5614C17.4683 12.539 17.4656 12.5167 17.4606 12.4949C17.4272 12.3479 17.2267 12.3227 17.0294 12.3034C16.7254 12.2729 16.3685 12.2064 16.3383 11.802V11.8047C16.3261 11.6725 16.3646 11.5407 16.4461 11.4357C16.5771 11.2668 16.8111 11.1777 17.0391 11.1777C17.3399 11.1777 17.652 11.3333 17.7021 11.6883L17.4196 11.7006Z" fill="#231F20"/>
<path id="Vector_67" d="M19.6377 11.6383V13.1399H19.3644V12.9378C19.2566 13.1013 19.0135 13.1625 18.8254 13.1652C18.2988 13.1652 18.0142 12.7962 18.0142 12.3832C18.0142 11.9703 18.3096 11.6152 18.8195 11.6152C19.0065 11.6152 19.2318 11.6597 19.3661 11.8399L19.3628 11.6399L19.6377 11.6383ZM18.8157 11.8528C18.4869 11.8582 18.2891 12.0883 18.2891 12.3821C18.2891 12.676 18.4923 12.9313 18.8378 12.9227C18.9081 12.9229 18.9776 12.9091 19.0424 12.882C19.1072 12.855 19.1659 12.8153 19.215 12.7653C19.2641 12.7153 19.3026 12.656 19.3283 12.5909C19.3539 12.5258 19.3662 12.4563 19.3644 12.3864C19.3644 12.026 19.0723 11.8501 18.8157 11.8501" fill="#231F20"/>
<path id="Vector_68" d="M20.3369 11.614V11.8247C20.3831 11.7561 20.4464 11.7006 20.5207 11.6636C20.595 11.6267 20.6776 11.6096 20.7606 11.614C20.9724 11.614 21.1616 11.6638 21.2732 11.8746C21.3654 11.7083 21.5352 11.6166 21.7551 11.614C22.1707 11.614 22.3518 11.9052 22.3518 12.2849V13.1387H22.0785V12.2876C22.0785 12.0768 22.0246 11.8666 21.7637 11.8666C21.5028 11.8666 21.3621 12.0494 21.3621 12.2956V13.1408H21.0894V12.2961C21.0894 12.0854 21.0085 11.8671 20.7579 11.8671C20.518 11.8671 20.3369 12.028 20.3369 12.324V13.1392H20.0636V11.614H20.3369Z" fill="#231F20"/>
<path id="Vector_69" d="M24.2286 12.4524H22.95C22.95 12.7463 23.2314 12.9238 23.4572 12.9238C23.548 12.9283 23.6383 12.9073 23.7177 12.8632C23.7971 12.8191 23.8624 12.7537 23.9062 12.6744H24.1876C24.0733 13.0016 23.7639 13.1652 23.4545 13.1652C23.067 13.1652 22.6772 12.9045 22.6772 12.3891C22.6772 11.8737 23.0616 11.6152 23.4599 11.6152C23.8335 11.6152 24.2016 11.8512 24.2318 12.3221C24.2374 12.3655 24.2356 12.4096 24.2264 12.4524M23.9451 12.2282C23.8911 11.9601 23.6755 11.8528 23.4599 11.8528C23.2443 11.8528 23.0168 11.9601 22.9613 12.2282H23.9451Z" fill="#231F20"/>
<path id="Vector_70" d="M26.0151 11.1816C26.6533 11.1816 26.974 11.6858 26.974 12.1711C26.974 12.6565 26.6533 13.1365 26.0151 13.1365H25.3143V11.1816H26.0151ZM26.0151 12.8587C26.4668 12.8587 26.6953 12.5149 26.6953 12.1711C26.6953 11.8274 26.4668 11.4616 26.0151 11.4616H25.5973V12.8603L26.0151 12.8587Z" fill="#231F20"/>
<path id="Vector_71" d="M28.7792 12.4524H27.5028C27.5028 12.7463 27.7842 12.9238 28.01 12.9238C28.1008 12.9283 28.1911 12.9073 28.2705 12.8632C28.3499 12.8191 28.4152 12.7537 28.459 12.6744H28.7404C28.6261 13.0016 28.3167 13.1652 28.0073 13.1652C27.6203 13.1652 27.23 12.9045 27.23 12.3891C27.23 11.8737 27.6144 11.6152 28.0127 11.6152C28.3863 11.6152 28.7539 11.8512 28.7846 12.3221C28.7902 12.3655 28.7884 12.4096 28.7792 12.4524ZM28.4978 12.2282C28.4439 11.9601 28.2283 11.8528 28.0127 11.8528C27.7971 11.8528 27.5696 11.9601 27.5141 12.2282H28.4978Z" fill="#231F20"/>
<path id="Vector_72" d="M29.8185 13.7297C29.4412 13.7297 29.0854 13.5796 29.0854 13.2385H29.3549C29.3549 13.4299 29.6169 13.4911 29.8147 13.4884C30.054 13.4884 30.3187 13.3715 30.3187 13.0835V12.9226C30.1877 13.0948 29.9985 13.1334 29.812 13.1334C29.3048 13.1334 29.0121 12.7982 29.0121 12.3906C29.0121 11.983 29.2908 11.6087 29.8174 11.6113C30.0039 11.6113 30.2104 11.6752 30.3219 11.8361V11.6365H30.5915V13.0808C30.5915 13.5463 30.1904 13.7244 29.8169 13.7244M30.3182 12.3461C30.3182 12.0779 30.1565 11.8554 29.8282 11.8473C29.4821 11.8387 29.2843 12.1155 29.2843 12.3879C29.2834 12.4558 29.2965 12.5232 29.3227 12.586C29.349 12.6487 29.3878 12.7054 29.4369 12.7527C29.4859 12.7999 29.5442 12.8367 29.608 12.8608C29.6719 12.8848 29.74 12.8956 29.8082 12.8926C30.1484 12.8926 30.3182 12.6244 30.3182 12.3461Z" fill="#231F20"/>
<path id="Vector_73" d="M31.2867 11.642V11.8249C31.4312 11.6227 31.6517 11.5755 31.891 11.6308V11.8694C31.82 11.8478 31.7449 11.8432 31.6719 11.8562C31.5988 11.8691 31.5299 11.8992 31.4709 11.9439C31.4118 11.9886 31.3643 12.0467 31.3323 12.1133C31.3003 12.1799 31.2847 12.2531 31.2867 12.3269V13.1389H31.0172V11.642H31.2867Z" fill="#231F20"/>
<path id="Vector_74" d="M33.616 12.4524H32.3396C32.3396 12.7463 32.6215 12.9238 32.8468 12.9238C32.9376 12.9283 33.0279 12.9073 33.1073 12.8632C33.1867 12.8191 33.252 12.7537 33.2958 12.6744H33.5772C33.4629 13.0016 33.1535 13.1652 32.8441 13.1652C32.4571 13.1652 32.0668 12.9045 32.0668 12.3891C32.0668 11.8737 32.4512 11.6152 32.8495 11.6152C33.2231 11.6152 33.5912 11.8512 33.6219 12.3221C33.6271 12.3656 33.6251 12.4096 33.616 12.4524ZM33.3346 12.2282C33.2807 11.9601 33.0651 11.8528 32.8495 11.8528C32.6339 11.8528 32.407 11.9601 32.3509 12.2282H33.3346Z" fill="#231F20"/>
<path id="Vector_75" d="M35.4552 12.4524H34.1788C34.1788 12.7463 34.4602 12.9238 34.686 12.9238C34.7768 12.9282 34.8669 12.9071 34.9462 12.863C35.0255 12.819 35.0907 12.7536 35.1345 12.6744H35.4159C35.3016 13.0016 34.9927 13.1652 34.6833 13.1652C34.2958 13.1652 33.9055 12.9045 33.9055 12.3891C33.9055 11.8737 34.2904 11.6152 34.6887 11.6152C35.0623 11.6152 35.4299 11.8512 35.4606 12.3221C35.4657 12.3655 35.4639 12.4095 35.4552 12.4524ZM35.1739 12.2282C35.12 11.9601 34.9043 11.8528 34.6887 11.8528C34.4731 11.8528 34.2456 11.9601 34.1901 12.2282H35.1739Z" fill="#231F20"/>
<path id="Vector_76" d="M35.5856 13.4163L35.7894 12.9062H36.0929L35.8336 13.4163H35.5856Z" fill="#231F20"/>
<path id="Vector_77" d="M37.1569 13.1382V11.1973H37.3746L38.3244 12.5643V11.1973H38.6031V13.1382H38.3805L37.4388 11.7824V13.1382H37.1569Z" fill="#231F20"/>
<path id="Vector_78" d="M39.7959 13.1659C39.3916 13.1659 38.9874 12.9052 38.9874 12.3893C38.9874 11.8734 39.3943 11.6133 39.804 11.6133C40.2137 11.6133 40.6126 11.8739 40.6126 12.3893C40.6126 12.9047 40.2056 13.1659 39.7965 13.1659M39.7965 12.9219C40.0692 12.9219 40.3425 12.7443 40.3425 12.3893C40.3425 12.0343 40.073 11.853 39.8035 11.853C39.5339 11.853 39.2601 12.0305 39.2601 12.3893C39.2601 12.7481 39.5296 12.9192 39.7954 12.9219" fill="#231F20"/>
<path id="Vector_79" d="M41.1414 11.6387L41.267 12.0495L41.4481 12.6925L41.7489 11.6387H41.9915L42.295 12.6925L42.4734 12.0495L42.6017 11.6387H42.8884L42.3952 13.15H42.1866L42.0028 12.5622L41.8713 12.1101L41.7403 12.5622L41.5538 13.15H41.3479L40.8541 11.6387H41.1414Z" fill="#231F20"/>
<path id="Vector_80" d="M44.7658 11.1602C44.9663 11.1598 45.1623 11.2187 45.3291 11.3292C45.496 11.4398 45.6261 11.5971 45.7031 11.7812C45.7801 11.9653 45.8004 12.1681 45.7616 12.3637C45.7228 12.5594 45.6265 12.7392 45.4849 12.8804C45.3434 13.0216 45.1629 13.1179 44.9664 13.157C44.7698 13.1962 44.566 13.1765 44.3807 13.1004C44.1954 13.0243 44.037 12.8952 43.9255 12.7295C43.8139 12.5638 43.7542 12.3689 43.754 12.1695C43.7535 12.037 43.7794 11.9058 43.83 11.7833C43.8806 11.6608 43.9551 11.5494 44.0491 11.4556C44.1431 11.3618 44.2548 11.2875 44.3778 11.2368C44.5008 11.186 44.6327 11.16 44.7658 11.1602ZM44.7658 12.8876C44.909 12.8879 45.0491 12.8459 45.1683 12.767C45.2875 12.688 45.3805 12.5756 45.4354 12.444C45.4904 12.3125 45.5048 12.1676 45.477 12.0279C45.4491 11.8881 45.3802 11.7597 45.2789 11.659C45.1777 11.5582 45.0486 11.4896 44.9081 11.4619C44.7677 11.4342 44.6221 11.4486 44.4898 11.5032C44.3576 11.5579 44.2446 11.6504 44.1653 11.769C44.0859 11.8876 44.0437 12.027 44.044 12.1695C44.044 12.2638 44.0626 12.3572 44.0988 12.4444C44.1351 12.5315 44.1882 12.6107 44.2553 12.6774C44.3223 12.7441 44.4019 12.797 44.4895 12.8331C44.5771 12.8691 44.671 12.8877 44.7658 12.8876Z" fill="#231F20"/>
<path id="Vector_81" d="M46.3764 11.6372V11.8233C46.488 11.6624 46.6497 11.6152 46.8394 11.6152C47.2992 11.6152 47.4938 11.9011 47.4938 12.3307V13.1351H47.2243V12.3307C47.2243 12.0507 47.1515 11.8593 46.8313 11.8539C46.5386 11.8485 46.3769 12.0561 46.3769 12.3194V13.1346H46.1042V11.6329L46.3764 11.6372Z" fill="#231F20"/>
<path id="Vector_82" d="M48.1822 11.1973H47.9089V13.1382H48.1822V11.1973Z" fill="#231F20"/>
<path id="Vector_83" d="M48.9233 11.2518C48.9233 11.4626 48.5831 11.4626 48.5831 11.2518C48.5831 11.0411 48.9233 11.0411 48.9233 11.2518ZM48.8898 11.6208H48.6165V13.1369H48.8898V11.6208Z" fill="#231F20"/>
<path id="Vector_84" d="M49.6226 11.6372V11.8233C49.7341 11.6624 49.8959 11.6152 50.0851 11.6152C50.5448 11.6152 50.74 11.9011 50.74 12.3307V13.1351H50.4705V12.3307C50.4705 12.0507 50.3977 11.8593 50.0775 11.8539C49.7848 11.8485 49.6231 12.0561 49.6231 12.3194V13.1346H49.3477V11.6329L49.6226 11.6372Z" fill="#231F20"/>
<path id="Vector_85" d="M52.6094 12.4524H51.3335C51.3335 12.7463 51.6148 12.9238 51.8407 12.9238C51.9314 12.9282 52.0216 12.9071 52.1008 12.863C52.1801 12.819 52.2454 12.7536 52.2892 12.6744H52.5706C52.4563 13.0016 52.1469 13.1652 51.8375 13.1652C51.4504 13.1652 51.0602 12.9045 51.0602 12.3891C51.0602 11.8737 51.4445 11.6152 51.8434 11.6152C52.2169 11.6152 52.5846 11.8512 52.6153 12.3221C52.6205 12.3656 52.6185 12.4096 52.6094 12.4524ZM52.328 12.2282C52.2741 11.9601 52.0585 11.8528 51.8429 11.8528C51.6272 11.8528 51.3998 11.9601 51.3437 12.2282H52.328Z" fill="#231F20"/>
<path id="Vector_86" d="M53.2195 12.9772C53.2195 13.0224 53.2014 13.0658 53.1693 13.0978C53.1371 13.1298 53.0935 13.1477 53.0481 13.1477C53.0026 13.1477 52.959 13.1298 52.9269 13.0978C52.8947 13.0658 52.8766 13.0224 52.8766 12.9772C52.8766 12.932 52.8947 12.8886 52.9269 12.8566C52.959 12.8246 53.0026 12.8066 53.0481 12.8066C53.0935 12.8066 53.1371 12.8246 53.1693 12.8566C53.2014 12.8886 53.2195 12.932 53.2195 12.9772Z" fill="#231F20"/>
<path id="Vector_87" d="M39.1097 15.9725H39.7027V16.1559H38.9238V14.873H39.7005V15.0565H39.1097V15.4136H39.6876V15.5992H39.1097V15.9725Z" fill="#231F20"/>
<path id="Vector_88" d="M40.1365 15.1727V15.2944C40.2093 15.1872 40.315 15.1582 40.4395 15.1582C40.7397 15.1582 40.8675 15.3448 40.8675 15.6264V16.1541H40.6907V15.628C40.6907 15.4446 40.6432 15.3196 40.4335 15.3159C40.2422 15.3121 40.1365 15.4483 40.1365 15.6205V16.1541H39.9576V15.1727H40.1365Z" fill="#231F20"/>
<path id="Vector_89" d="M41.4077 14.9551V15.1728H41.6233V15.3144H41.4077V15.8673C41.4077 16.0143 41.4988 16.0202 41.6303 16.0073V16.1559C41.3915 16.1741 41.2293 16.1253 41.2293 15.8657V15.3144H41.0816V15.1728H41.2293V14.9894L41.4077 14.9551Z" fill="#231F20"/>
<path id="Vector_90" d="M42.0496 14.9217C42.0496 15.0596 41.827 15.0596 41.827 14.9217C41.827 14.7839 42.0496 14.7839 42.0496 14.9217ZM42.0275 15.1631H41.8491V16.1552H42.0275V15.1631Z" fill="#231F20"/>
<path id="Vector_91" d="M42.5968 14.9551V15.1728H42.8124V15.3144H42.5968V15.8673C42.5968 16.0143 42.6879 16.0202 42.8194 16.0073V16.1559C42.5801 16.1741 42.4178 16.1253 42.4178 15.8657V15.3144H42.2701V15.1728H42.4178V14.9894L42.5968 14.9551Z" fill="#231F20"/>
<path id="Vector_92" d="M43.2037 14.8848H43.0253V16.1547H43.2037V14.8848Z" fill="#231F20"/>
<path id="Vector_93" d="M44.4784 15.7052H43.6434C43.6434 15.8978 43.8278 16.0141 43.9755 16.0141C44.0348 16.0168 44.0937 16.0029 44.1456 15.974C44.1974 15.9451 44.24 15.9023 44.2687 15.8506H44.4531C44.4174 15.9476 44.3518 16.031 44.2656 16.0888C44.1795 16.1466 44.0772 16.1758 43.9733 16.1724C43.72 16.1724 43.465 16.0018 43.465 15.6645C43.465 15.3271 43.7162 15.1582 43.9771 15.1582C44.2213 15.1582 44.4622 15.3121 44.4822 15.6205C44.4856 15.6489 44.4843 15.6777 44.4784 15.7058M44.2941 15.5588C44.2596 15.3829 44.1194 15.3143 43.9771 15.3143C43.8348 15.3143 43.6871 15.3851 43.6505 15.5588H44.2941Z" fill="#231F20"/>
<path id="Vector_94" d="M45.5459 14.8848H45.7243V16.1547H45.5459V16.0249C45.4747 16.1322 45.3394 16.1719 45.2155 16.1735C44.871 16.1735 44.6904 15.9542 44.6904 15.6619C44.6904 15.3808 44.8802 15.1594 45.2138 15.1594C45.3357 15.1594 45.4596 15.1867 45.5459 15.3031V14.8848ZM45.2101 15.3138C45.1647 15.3141 45.1199 15.3233 45.0782 15.3409C45.0365 15.3585 44.9987 15.3841 44.9669 15.4163C44.9352 15.4485 44.9102 15.4867 44.8934 15.5285C44.8765 15.5704 44.8682 15.6152 44.8688 15.6603C44.8688 15.8673 44.9966 16.0196 45.223 16.0142C45.3847 16.0105 45.5464 15.8946 45.5464 15.664C45.5464 15.4334 45.3782 15.3122 45.2106 15.3138" fill="#231F20"/>
<path id="Vector_95" d="M46.7128 15.3004C46.7985 15.184 46.9225 15.1567 47.0448 15.1567C47.3785 15.1567 47.5515 15.3948 47.5515 15.6592C47.5515 15.9236 47.3855 16.1708 47.041 16.1708C46.9187 16.1708 46.7839 16.1295 46.7128 16.0223V16.1547H46.5338V14.8848H46.7128V15.3004ZM47.0362 16.0131C47.2626 16.0185 47.3774 15.8389 47.3752 15.6592C47.3731 15.4795 47.2674 15.3165 47.0518 15.3127C46.8836 15.3127 46.716 15.427 46.716 15.6629C46.716 15.8989 46.8745 16.0094 47.0394 16.0131" fill="#231F20"/>
<path id="Vector_96" d="M48.2609 15.5953L48.4307 15.1582H48.6204L48.1024 16.4571H47.9127L48.0517 16.1032L47.6669 15.1582H47.8566L48.035 15.5937L48.1461 15.9144L48.2609 15.5953Z" fill="#231F20"/>
<path id="Vector_97" d="M49.3206 15.7746V14.873H49.5093V15.7762C49.5093 15.9156 49.6607 15.9848 49.7955 15.9848C49.9303 15.9848 50.0801 15.914 50.0801 15.7746V14.873H50.2639V15.7762C50.2639 16.0336 50.0122 16.1682 49.7934 16.1682C49.5745 16.1682 49.3212 16.0336 49.3212 15.7746" fill="#231F20"/>
<path id="Vector_98" d="M51.5766 15.3311C51.5227 15.1225 51.3232 15.0517 51.1572 15.0517C50.9022 15.0517 50.7049 15.2496 50.7049 15.5215C50.7049 15.7934 50.9022 15.9972 51.1572 15.9972C51.2453 15.9977 51.3315 15.9716 51.4045 15.9224C51.4774 15.8732 51.5337 15.8032 51.5658 15.7215H51.0844V15.5343H51.7852C51.783 15.6107 51.7707 15.6865 51.7485 15.7596C51.7012 15.8792 51.62 15.9825 51.5147 16.057C51.4094 16.1315 51.2847 16.1739 51.1556 16.179C50.7912 16.179 50.5157 15.9049 50.5157 15.5236C50.5157 15.1423 50.7966 14.8672 51.1556 14.8672C51.4057 14.8672 51.7065 14.9889 51.7755 15.3332L51.5766 15.3311Z" fill="#231F20"/>
<path id="Vector_99" d="M52.171 15.0692C52.2895 14.9476 52.4515 14.8778 52.6217 14.875C52.7601 14.8742 52.8947 14.9208 53.0027 15.007C53.1106 15.0933 53.1855 15.2139 53.2146 15.3486H53.0319C53.0045 15.2619 52.9495 15.1865 52.8752 15.1338C52.8008 15.0811 52.7113 15.0538 52.62 15.0563C52.5594 15.0575 52.4996 15.0706 52.4441 15.0949C52.3886 15.1192 52.3385 15.1542 52.2966 15.1979C52.214 15.2864 52.1681 15.4026 52.1681 15.5234C52.1681 15.6442 52.214 15.7605 52.2966 15.8489C52.339 15.8915 52.3893 15.9253 52.4448 15.9484C52.5003 15.9715 52.5599 15.9834 52.62 15.9836C52.714 15.9852 52.806 15.9566 52.8822 15.902C52.9585 15.8474 53.0149 15.7697 53.0432 15.6805H53.2232C53.1994 15.7893 53.1463 15.8895 53.0698 15.9706C52.9932 16.0517 52.896 16.1107 52.7885 16.1412C52.6809 16.1718 52.567 16.1727 52.459 16.144C52.3509 16.1153 52.2527 16.058 52.1748 15.9782C52.0579 15.8555 51.9915 15.6936 51.9888 15.5245C51.9885 15.3553 52.0531 15.1925 52.1694 15.0692" fill="#231F20"/>
</g>
</svg>
