<svg width="79" height="22" viewBox="0 0 79 22" fill="none" xmlns="http://www.w3.org/2000/svg">
<g id="LPU-Online-Logo 1" clip-path="url(#clip0_577_3575)">
<g id="Group">
<path id="Vector" d="M10.2086 21.0541C15.495 21.0541 19.7805 16.6312 19.7805 11.1754C19.7805 5.71949 15.495 1.29663 10.2086 1.29663C4.92221 1.29663 0.636719 5.71949 0.636719 11.1754C0.636719 16.6312 4.92221 21.0541 10.2086 21.0541Z" fill="white"/>
<path id="Vector_2" d="M10.2083 21.1542C4.87756 21.1542 0.552604 16.6578 0.586131 11.1585C0.619658 5.67586 4.91109 1.17944 10.2419 1.17944C15.5726 1.17944 19.8976 5.64243 19.8976 11.1752C19.8641 16.6912 15.5391 21.1542 10.2083 21.1542ZM10.2083 1.39674C4.97814 1.39674 0.737002 5.77615 0.737002 11.1919C0.737002 16.6077 5.01167 20.9703 10.2419 20.9703C15.472 20.9703 19.7132 16.5909 19.7132 11.1585C19.6797 5.77615 15.4385 1.39674 10.2083 1.39674Z" fill="#1D1D1B"/>
<path id="Vector_3" fill-rule="evenodd" clip-rule="evenodd" d="M10.2083 3.51978C14.2985 3.51978 17.6009 6.96312 17.6009 11.1754C17.6009 15.3876 14.265 18.831 10.1915 18.831C6.11798 18.831 2.79883 15.4043 2.79883 11.1754C2.79883 6.94641 6.13475 3.51978 10.2083 3.51978Z" fill="white"/>
<path id="Vector_4" fill-rule="evenodd" clip-rule="evenodd" d="M10.2083 3.72021C14.1812 3.72021 17.4165 7.06327 17.383 11.1585C17.383 15.2872 14.1644 18.5968 10.1747 18.5968C6.21857 18.5968 3 15.2538 3 11.1585C3 7.06327 6.23534 3.72021 10.2083 3.72021Z" fill="#1D1D1B"/>
<path id="Vector_5" fill-rule="evenodd" clip-rule="evenodd" d="M5.14492 5.87646L4.02177 14.9863C2.32866 12.0277 2.79804 8.28347 5.14492 5.87646Z" fill="#EF7D00"/>
<path id="Vector_6" fill-rule="evenodd" clip-rule="evenodd" d="M4.3584 15.5045L7.27523 4.37211C8.21398 3.95423 9.20302 3.72021 10.2088 3.72021C10.762 3.72021 11.2985 3.77036 11.8516 3.90408L4.96188 16.2734C4.74396 16.0561 4.5428 15.7887 4.3584 15.5045Z" fill="#EF7D00"/>
<path id="Vector_7" fill-rule="evenodd" clip-rule="evenodd" d="M5.21289 16.5412L14.064 4.89062C15.3212 5.72639 16.2935 6.91318 16.8802 8.33397L5.78285 17.0594C5.61521 16.9089 5.39729 16.725 5.21289 16.5412Z" fill="#EF7D00"/>
<path id="Vector_8" fill-rule="evenodd" clip-rule="evenodd" d="M6.10156 17.2928L17.4001 10.6736C17.4001 10.824 17.4336 11.0079 17.4336 11.1583C17.4336 12.6961 16.9643 14.2005 16.1093 15.4374L7.14089 17.8779C6.7721 17.7274 6.43683 17.5269 6.10156 17.2928Z" fill="#EF7D00"/>
<path id="Vector_9" fill-rule="evenodd" clip-rule="evenodd" d="M8.0459 18.2794L13.9472 17.5605C12.1869 18.6471 10.0242 18.9313 8.0459 18.2794Z" fill="#EF7D00"/>
<path id="Vector_10" d="M10.2081 18.7139C6.16812 18.7139 2.91602 15.3374 2.91602 11.1586C2.91602 7.01321 6.20164 3.63672 10.2249 3.63672C14.2481 3.63672 17.5169 7.01321 17.5169 11.192C17.5002 15.3541 14.2481 18.7139 10.2081 18.7139ZM10.2081 3.82059C6.28546 3.82059 3.10041 7.1135 3.10041 11.192C3.10041 15.2371 6.30222 18.53 10.2249 18.53C14.1475 18.53 17.3325 15.2371 17.3325 11.192C17.3158 7.13021 14.1475 3.82059 10.2081 3.82059Z" fill="#1D1D1B"/>
<path id="Vector_11" d="M1.47446 12.028C1.57505 12.0781 1.67564 12.1116 1.793 12.1116C1.94388 12.1116 2.11153 12.028 2.21212 11.9277C2.31271 11.7939 2.39654 11.6435 2.39654 11.493C2.39654 11.1587 2.1283 10.8745 1.793 10.8745C1.64211 10.8745 1.47446 10.9247 1.37387 11.0584C1.27328 11.1921 1.18945 11.3426 1.18945 11.493C1.18945 11.5933 1.22298 11.6936 1.27328 11.8107C1.29004 11.8942 1.37387 11.9778 1.47446 12.028ZM1.75947 10.9915C1.84329 10.9915 1.91035 11.025 1.99418 11.0417C2.078 11.0918 2.1283 11.142 2.17859 11.2256C2.22889 11.3092 2.22889 11.376 2.22889 11.493C2.22889 11.7605 2.02771 11.9611 1.793 11.9778C1.70917 11.9778 1.64211 11.9444 1.55829 11.9277C1.47446 11.8775 1.42416 11.8274 1.4074 11.7438C1.3571 11.6602 1.3571 11.5933 1.3571 11.5098C1.3571 11.4262 1.39063 11.3259 1.4074 11.2423C1.45769 11.1587 1.50799 11.1085 1.55829 11.0584C1.60858 11.0082 1.67564 10.9915 1.75947 10.9915Z" fill="black"/>
<path id="Vector_12" d="M2.4133 10.1893L1.37387 9.50391H1.34034L1.30681 9.67108L2.09477 10.1559L1.20622 10.4233L1.18945 10.5404L2.4133 10.2395V10.1893Z" fill="black"/>
<path id="Vector_13" d="M2.29575 6.72876L2.22869 6.89593L2.5137 7.364L1.99398 7.41415L1.91016 7.56461L2.64782 7.48102L3.13401 7.71506L3.1843 7.59804L2.69812 7.364L2.29575 6.72876Z" fill="black"/>
<path id="Vector_14" d="M2.66508 8.50069L1.70947 8.13291L1.65918 8.26665L2.74891 8.68457L2.93333 8.13291L2.81597 8.08276L2.66508 8.50069Z" fill="black"/>
<path id="Vector_15" d="M2.24549 12.2119L2.32931 12.6466L1.30664 12.797L1.34017 12.9642L2.46343 12.7803L2.37961 12.2119H2.24549Z" fill="black"/>
<path id="Vector_16" d="M2.4133 9.33648L2.01093 9.21946L2.14505 8.70123L2.01093 8.65108L1.89358 9.20274L1.57504 9.10244L1.70916 8.5675L1.57504 8.55078L1.39062 9.20274L2.51389 9.50365L2.66477 8.83497L2.53065 8.80154L2.4133 9.33648Z" fill="black"/>
<path id="Vector_17" d="M9.10237 3.15197C9.15266 3.1854 9.20296 3.1854 9.25325 3.1854H9.30355C9.38737 3.1854 9.45443 3.13525 9.53826 3.05166C9.58856 2.96808 9.62209 2.90121 9.62209 2.81763C9.62209 2.76748 9.58856 2.68389 9.53826 2.63374C9.48796 2.55015 9.40414 2.5 9.30355 2.44985C9.20296 2.3997 9.15266 2.36627 9.15266 2.34955C9.11913 2.31612 9.10237 2.2994 9.10237 2.26597C9.10237 2.23253 9.06884 2.21582 9.06884 2.18238C9.06884 2.14895 9.06884 2.0988 9.10237 2.08208C9.11913 2.06536 9.15266 2.03193 9.20296 2.03193C9.23649 2.03193 9.25325 2.03193 9.30355 2.06536C9.35384 2.0988 9.38737 2.11551 9.43767 2.16566L9.53826 2.06536C9.48796 2.01521 9.43767 1.96506 9.38737 1.93163C9.33708 1.89819 9.28678 1.89819 9.23649 1.89819C9.18619 1.89819 9.1359 1.93163 9.10237 1.94834C9.05207 1.98178 9.01854 2.03193 9.00178 2.04865C8.91795 2.14895 8.90119 2.1991 8.91795 2.24925C8.91795 2.33283 8.95148 2.38299 9.00178 2.43314C9.05207 2.48329 9.1359 2.53344 9.20296 2.56687C9.28678 2.61702 9.35384 2.66717 9.40414 2.71732C9.40414 2.76748 9.43767 2.80091 9.43767 2.85106C9.43767 2.88449 9.43767 2.90121 9.40414 2.95136C9.37061 2.9848 9.37061 3.00151 9.35384 3.03495C9.32031 3.03495 9.30355 3.03495 9.27002 3.06838C9.18619 3.06838 9.11913 3.01823 9.03531 2.91793L8.93472 3.00151C8.96825 3.06838 9.01854 3.13525 9.10237 3.15197Z" fill="black"/>
<path id="Vector_18" d="M8.34735 3.20218L8.22999 2.78426L8.74971 2.68396L8.73294 2.5335L8.21323 2.66724L8.16293 2.31618L8.68265 2.21588L8.64912 2.06543L7.99528 2.21588H7.97852L8.22999 3.36935V3.38607L8.88383 3.23562L8.86706 3.10188L8.34735 3.20218Z" fill="black"/>
<path id="Vector_19" d="M14.2987 4.23848L14.349 2.93456L14.3155 2.90112L13.3096 3.72025L13.4437 3.80384L13.7622 3.53637L14.1814 3.73697V4.15489L14.2987 4.23848ZM14.1981 3.18531L14.1646 3.60324L13.8461 3.45278L14.1981 3.18531Z" fill="black"/>
<path id="Vector_20" d="M5.49824 4.75704L5.59883 4.67345L5.29706 4.23881L5.33059 4.20538L5.95089 4.40598L6.08502 4.30568L5.46471 4.10508C5.515 4.05492 5.5653 4.00477 5.61559 3.95462C5.64912 3.90447 5.66589 3.85432 5.66589 3.77074C5.66589 3.72059 5.63236 3.637 5.61559 3.58685C5.5653 3.5367 5.515 3.48655 5.46471 3.45311C5.38088 3.41968 5.33059 3.41968 5.26353 3.48655C5.1797 3.51998 5.11264 3.57013 5.06235 3.62028L4.87793 3.75402L5.49824 4.75704ZM5.02882 3.82089L5.1797 3.72058C5.23 3.68715 5.28029 3.67043 5.33059 3.637C5.36412 3.637 5.41441 3.637 5.43118 3.637C5.46471 3.637 5.48147 3.67043 5.515 3.68715C5.54853 3.72058 5.54853 3.7373 5.54853 3.78745C5.54853 3.82089 5.54853 3.87104 5.515 3.88775C5.48147 3.93791 5.43118 3.97134 5.38088 3.98806L5.23 4.08836L5.02882 3.82089Z" fill="black"/>
<path id="Vector_21" d="M4.77705 5.39171L4.87764 5.29141L4.54234 4.87349L4.59264 4.82333C4.67646 4.77318 4.74352 4.6896 4.79382 4.62273C4.84411 4.57258 4.87764 4.489 4.84411 4.42213C4.84411 4.33854 4.81058 4.28839 4.76029 4.23824C4.70999 4.18809 4.6597 4.13794 4.57587 4.13794C4.49205 4.13794 4.44175 4.13794 4.39146 4.17137C4.30763 4.22152 4.24057 4.27168 4.19028 4.32183L4.00586 4.47228L4.77705 5.39171ZM4.22381 4.47228L4.37469 4.33854C4.42499 4.30511 4.45852 4.25496 4.50881 4.23824C4.54234 4.23824 4.59264 4.23824 4.6094 4.23824C4.64293 4.23824 4.6597 4.27168 4.69323 4.28839C4.72676 4.33854 4.72676 4.38869 4.72676 4.42213C4.72676 4.45556 4.72676 4.50571 4.69323 4.52243C4.6597 4.57258 4.6094 4.60601 4.59264 4.65617L4.45852 4.75647L4.22381 4.47228Z" fill="black"/>
<path id="Vector_22" d="M6.30292 4.00429C6.35321 4.03773 6.43704 4.03773 6.48733 4.03773C6.58792 4.03773 6.67175 4.00429 6.77234 3.95414C7.05734 3.80369 7.19147 3.43592 7.05734 3.11829C6.97352 2.96784 6.85616 2.85082 6.68851 2.80067C6.53763 2.75052 6.35321 2.76724 6.20233 2.85082C6.01791 2.95112 5.88379 3.16844 5.88379 3.36905C5.88379 3.46935 5.91732 3.60308 5.96761 3.68667C6.01791 3.85384 6.15203 3.95414 6.30292 4.00429ZM6.01791 3.38576C6.01791 3.30218 6.05144 3.23531 6.10174 3.15173C6.15203 3.06814 6.20233 3.01799 6.28615 3.00127C6.36998 2.95112 6.43704 2.95112 6.52086 2.95112C6.60469 2.95112 6.67175 2.98456 6.75557 3.03471C6.88969 3.13501 6.95675 3.30218 6.95675 3.46935C6.95675 3.55293 6.92322 3.6198 6.87293 3.70339C6.82263 3.78697 6.77234 3.83712 6.68851 3.85384C6.4538 3.98758 6.20233 3.88727 6.0682 3.65324C6.05144 3.56965 6.01791 3.46935 6.01791 3.38576Z" fill="black"/>
<path id="Vector_23" d="M12.7059 2.61704L13.125 3.65349L13.1753 3.67021L13.5106 2.53346L13.41 2.50002L13.1586 3.33587L12.7059 2.26598L12.6556 2.24927L12.3203 3.38602L12.4544 3.43617L12.7059 2.61704Z" fill="black"/>
<path id="Vector_24" d="M7.50946 3.61996L7.64358 3.56981L7.47593 3.01815L7.89505 2.86769L7.84476 2.73396L7.42563 2.90113L7.32504 2.55007L7.76093 2.43305L7.71064 2.29932L7.14062 2.4832L7.50946 3.58652V3.61996Z" fill="black"/>
<path id="Vector_25" d="M11.5155 3.25191C11.5491 3.25191 11.5994 3.25191 11.6161 3.25191C11.9514 3.25191 12.2197 2.96773 12.2197 2.63339C12.2197 2.49965 12.1694 2.36591 12.1191 2.26561C12.0185 2.13188 11.8844 2.03158 11.7335 1.99814C11.5155 1.96471 11.2976 2.06501 11.1467 2.21546C11.0629 2.29905 11.0461 2.39935 11.0126 2.49965C10.979 2.6501 11.0126 2.83399 11.1132 2.96773C11.197 3.13489 11.3646 3.2352 11.5155 3.25191ZM11.1467 2.5498C11.1802 2.46622 11.197 2.39935 11.2473 2.31576C11.2976 2.2489 11.3814 2.21546 11.4652 2.16531C11.5155 2.13188 11.5658 2.13188 11.6161 2.13188C11.6496 2.13188 11.6664 2.13188 11.6999 2.13188C11.7838 2.16531 11.8508 2.18203 11.9011 2.23218C12.0352 2.33248 12.0855 2.51637 12.052 2.70025C12.0185 2.78384 12.0017 2.85071 11.9514 2.93429C11.9011 2.98444 11.8173 3.03459 11.7502 3.06803C11.6832 3.10146 11.5994 3.10146 11.5155 3.10146C11.2808 3.06803 11.1299 2.81727 11.1467 2.5498Z" fill="black"/>
<path id="Vector_26" d="M14.9694 4.55603L14.6174 4.28856L15.1371 3.41928L15.0197 3.33569L14.4329 4.33871H14.3994L14.9024 4.65633L14.9694 4.55603Z" fill="black"/>
<path id="Vector_27" d="M10.1413 2.43312C10.0407 2.34954 10.0072 2.33282 9.99041 2.33282C9.95688 2.29939 9.95688 2.26595 9.92335 2.24924C9.92335 2.2158 9.92335 2.19909 9.92335 2.16565C9.92335 2.13222 9.92335 2.08207 9.95688 2.06535C9.99041 2.03192 10.0072 2.0152 10.0575 2.0152C10.091 2.0152 10.1078 2.0152 10.1581 2.04863C10.2084 2.08207 10.2419 2.13222 10.2587 2.14893L10.376 2.06535C10.3257 2.0152 10.2754 1.96505 10.2251 1.9149C10.1748 1.88146 10.1245 1.86475 10.0742 1.86475C10.0239 1.86475 9.97365 1.89818 9.92335 1.9149C9.87306 1.94833 9.83953 1.96505 9.82276 2.0152C9.78923 2.06535 9.78923 2.1155 9.78923 2.16565C9.78923 2.24924 9.82276 2.29939 9.83953 2.34954C9.88982 2.39969 9.94012 2.44984 10.0239 2.49999C10.1078 2.55014 10.1581 2.60029 10.2084 2.68388C10.2419 2.71731 10.2419 2.76746 10.2419 2.78418C10.2419 2.86776 10.2084 2.91791 10.1413 2.93463C10.1078 2.96807 10.0575 2.96807 10.0407 2.96807C9.95688 2.96807 9.88982 2.91791 9.806 2.78418L9.67188 2.86776C9.70541 2.95135 9.77247 3.0015 9.82276 3.05165C9.87306 3.08508 9.95688 3.1018 10.0072 3.1018C10.091 3.1018 10.1916 3.06837 10.2419 3.0015C10.2922 2.95135 10.3425 2.85105 10.3425 2.76746C10.3425 2.68388 10.3089 2.63373 10.2922 2.58358C10.2587 2.55014 10.2084 2.48327 10.1413 2.43312Z" fill="black"/>
<path id="Vector_28" d="M10.8115 1.96507L10.6774 1.93164L10.6104 3.10183V3.13526H10.7277L10.8115 1.96507Z" fill="black"/>
<path id="Vector_29" d="M19.2603 11.2756C19.2268 11.2255 19.21 11.1921 19.1597 11.1753C19.1094 11.1419 19.0759 11.1252 19.0256 11.1252C18.9753 11.1252 18.8915 11.1586 18.8412 11.1753C18.7909 11.2255 18.7406 11.2756 18.6903 11.3592C18.64 11.4428 18.5897 11.493 18.5059 11.5431C18.4723 11.5765 18.4221 11.5765 18.4053 11.5765C18.3718 11.5765 18.355 11.5765 18.3215 11.5431C18.2879 11.5097 18.2712 11.493 18.2712 11.4595C18.2376 11.4261 18.2376 11.3759 18.2376 11.3592C18.2376 11.2756 18.2879 11.2088 18.4221 11.1252L18.3382 10.9915C18.2544 11.0249 18.2041 11.0918 18.1538 11.1419C18.1203 11.1921 18.1035 11.2756 18.1035 11.3425C18.1035 11.4428 18.137 11.5264 18.1873 11.61C18.2376 11.6936 18.3215 11.7103 18.3885 11.7103C18.4388 11.7103 18.5226 11.6769 18.5729 11.6601C18.6568 11.61 18.7238 11.5264 18.7741 11.4595C18.8579 11.3592 18.8747 11.3258 18.8747 11.3091C18.9082 11.2756 18.925 11.2589 18.9585 11.2589C18.9921 11.2589 19.0088 11.2255 19.0424 11.2255C19.0759 11.2255 19.1262 11.2589 19.143 11.2756C19.1765 11.3091 19.1765 11.3592 19.1765 11.3759C19.1765 11.4094 19.1765 11.4595 19.143 11.4762C19.1094 11.5264 19.0591 11.5598 19.0424 11.5765L19.1262 11.7103C19.1765 11.6601 19.2268 11.61 19.2771 11.5598C19.3106 11.5097 19.3274 11.4595 19.3274 11.4094C19.2938 11.3759 19.2938 11.3258 19.2603 11.2756Z" fill="black"/>
<path id="Vector_30" d="M18.1035 11.9275V12.0779L19.21 12.1615H19.2435V12.0278L18.1203 11.9275H18.1035Z" fill="black"/>
<path id="Vector_31" d="M17.1145 6.31098L17.6677 5.87634L17.5839 5.77604L17.0306 6.21068C16.9803 6.26083 16.9468 6.29426 16.8965 6.31098C16.863 6.34441 16.8127 6.34441 16.7959 6.34441C16.7624 6.34441 16.7121 6.34441 16.6953 6.31098C16.6786 6.27755 16.645 6.26083 16.6115 6.2274C16.578 6.19396 16.5612 6.14381 16.5612 6.09366C16.5277 6.01008 16.5612 5.94321 16.6115 5.89306C16.645 5.85962 16.6953 5.80947 16.7121 5.79275L17.2653 5.35811L17.1815 5.25781L16.6283 5.69245C16.5444 5.7426 16.4941 5.79275 16.4438 5.87634C16.3936 5.95992 16.3936 6.02679 16.3936 6.11038C16.3936 6.19396 16.4438 6.29426 16.4941 6.34441C16.5444 6.428 16.6283 6.44472 16.6786 6.47815C16.7121 6.47815 16.7289 6.47815 16.7624 6.47815C16.8127 6.47815 16.8462 6.47815 16.8965 6.44472C16.9803 6.428 17.0642 6.37785 17.1145 6.31098Z" fill="black"/>
<path id="Vector_32" d="M18.0363 9.97207L18.1704 9.95535L18.1034 9.43712L18.489 9.33682L18.5895 9.87176L18.7237 9.85505L18.6231 9.30339L18.9584 9.25324L19.059 9.78818L19.1931 9.77146L19.059 9.10278L17.9189 9.30339L18.0363 9.97207Z" fill="black"/>
<path id="Vector_33" d="M18.3384 7.06364L18.2714 6.94663L17.5505 7.38127L17.9193 6.29466L17.8858 6.26123L16.8966 6.84632L16.8799 6.86304L16.9469 6.96334L17.6846 6.54542L17.3158 7.6153L17.3493 7.66546L18.3384 7.06364Z" fill="black"/>
<path id="Vector_34" d="M19.0264 12.6463L18.0373 12.4624L18.0205 12.5961L19.0096 12.78L18.9761 13.0308L19.1102 13.0642L19.2108 12.4122L19.0935 12.3955L19.0264 12.6463Z" fill="black"/>
<path id="Vector_35" d="M18.0703 10.3062L18.59 10.256V10.3062L18.1038 10.7742L18.1374 10.9581L18.6236 10.4901C18.6236 10.5736 18.6571 10.6238 18.6739 10.6907C18.7074 10.7408 18.7577 10.791 18.808 10.8244C18.8583 10.8578 18.9086 10.8578 18.9924 10.8578C19.0762 10.8578 19.1265 10.8244 19.1768 10.7742C19.2271 10.7241 19.2606 10.6739 19.2606 10.5904C19.2606 10.5068 19.2606 10.4065 19.2606 10.3229L19.2271 10.0554L18.0871 10.1557L18.0703 10.3062ZM18.8583 10.6739C18.8247 10.6405 18.808 10.6238 18.7744 10.5904C18.7409 10.5402 18.7409 10.4901 18.7409 10.4399L18.7074 10.256L19.0762 10.2226L19.1097 10.4065C19.1097 10.4566 19.1097 10.5068 19.1097 10.5569C19.1097 10.5904 19.0762 10.6071 19.0595 10.6405C19.0259 10.6739 19.0092 10.6739 18.9589 10.6739C18.9253 10.7074 18.875 10.7074 18.8583 10.6739Z" fill="black"/>
<path id="Vector_36" d="M17.8862 13.2649L17.8359 13.3986L18.3892 13.5658L18.8586 14.084L18.9089 13.9168L18.5401 13.5323L19.0598 13.3819L19.0933 13.198L18.406 13.432L17.8862 13.2649Z" fill="black"/>
<path id="Vector_37" d="M18.9753 8.75155L18.925 8.63453L17.9862 8.55095L18.6735 7.89899H18.6903L18.64 7.74854L17.7012 8.63453L17.7347 8.68468L18.9586 8.75155H18.9753Z" fill="black"/>
<path id="Vector_38" d="M18.5403 7.51435L18.49 7.38062L17.4505 7.88212L17.417 7.89884L17.5008 8.03258L18.5067 7.51435H18.5403Z" fill="black"/>
<path id="Vector_39" d="M14.2484 18.0955L14.2148 18.1289L14.349 19.4495L14.4831 19.3659L14.4496 18.948L14.8687 18.6806L15.204 18.9146L15.3381 18.831L14.2484 18.0955ZM14.7178 18.597L14.3993 18.7809L14.3657 18.3629L14.7178 18.597Z" fill="black"/>
<path id="Vector_40" d="M10.7275 20.3522C10.694 20.2184 10.6773 20.0847 10.6773 19.9677C10.6773 19.8172 10.6773 19.6835 10.7108 19.533C10.7443 19.3993 10.7611 19.2656 10.8114 19.1653V19.1318H10.6605C10.6102 19.2656 10.5767 19.3993 10.5599 19.5163C10.5264 19.6668 10.5264 19.8005 10.5264 19.951C10.5264 20.0847 10.5599 20.2184 10.5767 20.3355C10.6102 20.4358 10.627 20.5695 10.6773 20.6698H10.8281V20.6364C10.8114 20.5862 10.7611 20.4525 10.7275 20.3522Z" fill="black"/>
<path id="Vector_41" d="M11.0801 19.1653L11.1974 19.1318L11.298 20.3355H11.1471L11.0801 19.1653Z" fill="black"/>
<path id="Vector_42" d="M13.3606 18.8308C13.2767 18.7472 13.1594 18.7305 13.042 18.7305C12.9079 18.7305 12.8073 18.7639 12.6732 18.8141L12.4385 18.8976L12.8241 20.0177L13.1594 19.8839C13.26 19.8505 13.3606 19.7836 13.4444 19.7001C13.4947 19.6165 13.545 19.5496 13.5785 19.4326C13.6456 19.2153 13.545 18.9812 13.3606 18.8308ZM12.9247 19.8338L12.6397 18.9812L12.69 18.9478C12.7905 18.8976 12.8911 18.8642 13.0253 18.8642C13.1091 18.8642 13.2097 18.8976 13.2935 18.9478C13.3773 18.9979 13.4276 19.0982 13.4444 19.1818C13.4779 19.2654 13.4947 19.3657 13.4779 19.466C13.4444 19.5496 13.3941 19.6165 13.3438 19.6666C13.26 19.7168 13.1594 19.7669 13.0588 19.8004L12.9247 19.8338Z" fill="black"/>
<path id="Vector_43" d="M12.1363 18.9479L12.3207 19.8172L11.4321 19.115L11.3818 19.1318L11.6165 20.2852V20.3019L11.7507 20.2518L11.5998 19.4159L12.4548 20.1181H12.4716L12.5051 20.1013L12.2704 18.9312L12.1363 18.9479Z" fill="black"/>
<path id="Vector_44" d="M5.21278 17.7948C5.31337 17.6945 5.31337 17.5273 5.24631 17.4103C5.19601 17.3267 5.11219 17.2765 5.06189 17.2264L4.87748 17.0759L4.12305 17.9786L4.22364 18.0789L4.55894 17.661L4.60923 17.7112C4.69306 17.7948 4.76012 17.8449 4.84395 17.8951C4.89424 17.9285 4.97807 17.9452 5.04513 17.9285C5.09542 17.8616 5.16248 17.8449 5.21278 17.7948ZM5.14572 17.5774C5.14572 17.6109 5.11219 17.661 5.09542 17.6777C5.06189 17.7112 5.04513 17.7279 5.0116 17.7279C4.97807 17.7279 4.92777 17.7279 4.91101 17.7279C4.86071 17.6945 4.81042 17.6777 4.77689 17.6276L4.64276 17.4939L4.87748 17.2097L5.0116 17.3434C5.06189 17.3768 5.09542 17.427 5.11219 17.4771C5.14572 17.5273 5.14572 17.5607 5.14572 17.5774Z" fill="black"/>
<path id="Vector_45" d="M15.6228 18.5132C15.5725 18.3795 15.4886 18.2457 15.4216 18.1454C15.3378 18.0451 15.2707 17.9448 15.1533 17.8278C15.0695 17.7442 14.9689 17.6773 14.8851 17.6272L14.751 17.7108H14.7845C14.8851 17.7609 14.9689 17.8445 15.0527 17.9114C15.1533 18.0117 15.2372 18.0953 15.321 18.229C15.4048 18.3293 15.4719 18.463 15.5222 18.5968C15.5725 18.7305 15.6228 18.8308 15.6563 18.9646V18.998L15.7904 18.8977C15.7234 18.764 15.6731 18.6469 15.6228 18.5132Z" fill="black"/>
<path id="Vector_46" d="M13.6449 18.4128L13.5107 18.463L13.9802 19.5496L14.1143 19.4994L13.6449 18.4128Z" fill="black"/>
<path id="Vector_47" d="M7.0567 18.5467L6.6711 19.3157L6.41962 18.1957V18.179H6.36933L5.84961 19.2154L5.96697 19.299L6.3358 18.5133L6.60404 19.6333L6.65433 19.65L7.17405 18.5969L7.0567 18.5467Z" fill="black"/>
<path id="Vector_48" d="M6.05153 17.995L5.66593 18.5968C5.6324 18.6469 5.61564 18.6971 5.56534 18.7305C5.53181 18.764 5.51505 18.7807 5.46475 18.7807C5.43122 18.7807 5.38093 18.7807 5.36416 18.7807C5.33063 18.7807 5.28034 18.7472 5.26357 18.7472C5.23004 18.7138 5.21328 18.6971 5.17975 18.6469C5.14622 18.6135 5.14622 18.5633 5.14622 18.5466C5.14622 18.4965 5.14622 18.463 5.17975 18.4463C5.21328 18.3962 5.23004 18.3627 5.26357 18.3126L5.64917 17.7108L5.54858 17.6272L5.16298 18.229C5.11269 18.3126 5.07916 18.3627 5.02886 18.4296C4.99533 18.5132 4.99533 18.5801 5.06239 18.6636C5.09592 18.7472 5.14622 18.8141 5.21328 18.8643C5.26357 18.9144 5.3474 18.9478 5.41446 18.9478H5.43122C5.51505 18.9478 5.56534 18.9144 5.61564 18.8643C5.66593 18.8141 5.74976 18.7305 5.76652 18.6636L6.15212 18.0618L6.05153 17.995Z" fill="black"/>
<path id="Vector_49" d="M7.66035 18.7473L7.42564 19.4996C7.39211 19.5497 7.39211 19.6333 7.34182 19.6835C7.30829 19.7336 7.24122 19.767 7.19093 19.7336C7.1574 19.7336 7.14063 19.7002 7.14063 19.7002C7.09034 19.6667 7.05681 19.6166 7.04004 19.5664L6.93945 19.65C6.97298 19.7002 7.02328 19.7503 7.04004 19.7838C7.05681 19.8172 7.12387 19.8339 7.17416 19.8673C7.20769 19.8673 7.25799 19.9008 7.27475 19.9008C7.35858 19.9008 7.42564 19.8673 7.45917 19.8005C7.50947 19.7169 7.543 19.65 7.55976 19.5664L7.79447 18.8142L7.66035 18.7473Z" fill="black"/>
<path id="Vector_50" d="M9.67158 19.7835C9.63805 19.7501 9.58775 19.7334 9.57099 19.7C9.65482 19.6498 9.72187 19.5662 9.72187 19.4659C9.72187 19.4158 9.72188 19.3656 9.68835 19.3155C9.65482 19.2653 9.63805 19.2152 9.58775 19.1817C9.53746 19.1483 9.45363 19.1316 9.38657 19.1316L9.15186 19.0981L9.00098 20.2683L9.31951 20.3185C9.35304 20.3185 9.36981 20.3185 9.40334 20.3185C9.48716 20.3185 9.55422 20.285 9.60452 20.2349C9.68835 20.1847 9.73864 20.1012 9.73864 20.0009C9.73864 19.9507 9.73864 19.9006 9.73864 19.8671C9.72188 19.8671 9.68834 19.8337 9.67158 19.7835ZM9.25245 19.7501C9.33628 19.7501 9.38657 19.7835 9.43687 19.8003C9.48716 19.8337 9.52069 19.8504 9.57099 19.9006C9.60452 19.934 9.60452 19.9841 9.60452 20.0343C9.60452 20.0677 9.57099 20.1179 9.55422 20.1346C9.52069 20.168 9.50393 20.1847 9.45363 20.1847C9.40334 20.1847 9.31951 20.1847 9.26922 20.1847L9.16863 20.1513L9.21892 19.7334H9.25245V19.7501ZM9.53746 19.5829C9.50393 19.6164 9.48716 19.6331 9.45363 19.6331C9.40334 19.6331 9.35304 19.6331 9.30275 19.6331H9.25245L9.30275 19.2987L9.43687 19.3322C9.48716 19.3322 9.53746 19.3656 9.58775 19.3823C9.62128 19.4158 9.63805 19.4659 9.62128 19.5161C9.55422 19.5161 9.55422 19.5495 9.53746 19.5829Z" fill="black"/>
<path id="Vector_51" d="M8.46488 18.9813L7.66016 20.0178L7.81104 20.0512L8.07928 19.7169L8.54871 19.8172L8.63253 20.2351L8.78342 20.2685L8.51518 18.9646L8.46488 18.9813ZM8.49841 19.6834L8.16311 19.5998L8.43135 19.2655L8.49841 19.6834Z" fill="black"/>
<path id="Vector_52" fill-rule="evenodd" clip-rule="evenodd" d="M3.13454 15.6882C3.31911 15.6882 3.45335 15.8388 3.45335 16.0229C3.45335 16.2069 3.30233 16.3575 3.13454 16.3575C2.94996 16.3575 2.81573 16.2069 2.81573 16.0229C2.79895 15.8388 2.94996 15.6882 3.13454 15.6882Z" fill="#1D1D1B"/>
<path id="Vector_53" d="M3.13442 16.391C2.94984 16.391 2.79883 16.2404 2.79883 16.0229C2.79883 15.8221 2.94984 15.6548 3.13442 15.6548C3.31899 15.6548 3.47 15.8054 3.47 16.0229C3.47 16.2069 3.31899 16.391 3.13442 16.391ZM3.13442 15.705C2.9834 15.705 2.84917 15.8388 2.84917 16.0229C2.84917 16.2069 2.9834 16.3408 3.16798 16.3408C3.31899 16.3408 3.45323 16.2069 3.45323 16.0229C3.41967 15.8388 3.28543 15.705 3.13442 15.705Z" fill="#1D1D1B"/>
<path id="Vector_54" fill-rule="evenodd" clip-rule="evenodd" d="M17.2153 15.6882C17.3999 15.6882 17.5341 15.8388 17.5341 16.0229C17.5341 16.2069 17.3831 16.3575 17.2153 16.3575C17.0307 16.3575 16.8965 16.2069 16.8965 16.0229C16.8965 15.8388 17.0307 15.6882 17.2153 15.6882Z" fill="#1D1D1B"/>
<path id="Vector_55" d="M17.2155 16.391C17.0309 16.391 16.8799 16.2404 16.8799 16.0229C16.8799 15.8054 17.0309 15.6548 17.2155 15.6548C17.4 15.6548 17.5511 15.8054 17.5511 16.0229C17.5846 16.2069 17.4168 16.391 17.2155 16.391ZM17.2155 15.705C17.0645 15.705 16.9302 15.8388 16.9302 16.0229C16.9302 16.2069 17.0645 16.3408 17.249 16.3408C17.4 16.3408 17.5343 16.2069 17.5343 16.0229C17.5175 15.8388 17.4 15.705 17.2155 15.705Z" fill="#1D1D1B"/>
<path id="Vector_56" d="M25.0769 7.71519H28.3625V9.60402H23.1826V1.56396H25.0769V7.71519Z" fill="#EF7D00"/>
<path id="Vector_57" d="M32.6203 1.49707C34.4642 1.49707 35.3862 3.00145 35.3527 4.42225C35.3192 5.82633 34.414 7.23041 32.6203 7.23041H31.363V9.6207H29.4688V1.49707H32.6203ZM32.6203 5.39173C33.2238 5.39173 33.5087 4.90699 33.5087 4.43896C33.5087 3.97093 33.2238 3.45276 32.6203 3.45276H31.363V5.39173H32.6203Z" fill="#EF7D00"/>
<path id="Vector_58" d="M36.4092 7.01315V1.56396H38.3034V7.01315C38.3034 8.23337 40.5162 8.19993 40.5162 7.01315V1.56396H42.4105V7.01315C42.4105 8.83512 40.9018 9.73774 39.3931 9.70431C37.9011 9.6876 36.4092 8.83512 36.4092 7.01315Z" fill="#EF7D00"/>
<path id="Vector_59" d="M47.7582 1.44674C49.971 1.41331 51.7647 3.23528 51.7982 5.52527C51.7982 5.5587 51.7982 5.57542 51.7982 5.60885C51.7982 7.94899 50.0045 9.73753 47.7582 9.73753C45.5287 9.73753 43.7182 7.96571 43.7182 5.60885C43.6847 3.31885 45.4616 1.48017 47.6409 1.46346C47.7079 1.44674 47.7247 1.44674 47.7582 1.44674ZM47.7079 7.88213C48.7976 7.88213 49.8704 7.12994 49.8704 5.62556C49.8704 4.08776 48.7808 3.31885 47.7079 3.33557C46.6351 3.369 45.6293 4.12119 45.6293 5.62556C45.6293 7.12994 46.6686 7.8487 47.7079 7.88213Z" fill="#231F20"/>
<path id="Vector_60" d="M54.2623 3.38608V4.0046C54.6814 3.45294 55.4023 3.30249 56.0394 3.30249C57.7494 3.33592 58.2188 4.62313 58.2021 6.17781V9.60478H56.425V6.19452C56.425 5.35868 55.9556 4.97419 55.4861 4.97419C54.8323 5.00762 54.3126 5.54256 54.3461 6.22796V9.58807H52.502V3.36936L54.2623 3.38608Z" fill="#231F20"/>
<path id="Vector_61" d="M61.0347 1.56396V9.60402H59.2578V1.56396H61.0347Z" fill="#231F20"/>
<path id="Vector_62" d="M63.0128 0.979004C63.5325 0.979004 64.1024 1.31331 64.1024 2.04878C64.1024 2.71739 63.6163 3.03498 63.0799 3.06842C62.5602 3.06842 61.9902 2.75082 61.9902 2.04878C61.9902 1.34674 62.5099 0.979004 63.0128 0.979004ZM62.1746 3.38601V9.62081H63.9348V3.38601H62.1746Z" fill="#231F20"/>
<path id="Vector_63" d="M66.8853 3.38608V4.0046C67.3045 3.45294 68.0254 3.30249 68.6624 3.30249C70.3725 3.33592 70.8419 4.62313 70.8251 6.17781V9.60478H69.048V6.19452C69.048 5.35868 68.5786 4.97419 68.1092 4.97419C67.4553 5.00762 66.9356 5.54256 66.9692 6.22796V9.58807H65.125V3.36936L66.8853 3.38608Z" fill="#231F20"/>
<path id="Vector_64" d="M77.8821 7.19754H73.5567C73.7579 7.76592 74.3112 8.05011 74.8644 8.08354C75.25 8.08354 75.6188 7.9498 75.8871 7.66562H77.7815C77.3121 9.03641 76.038 9.7218 74.7973 9.68837C73.2549 9.65493 71.7461 8.60177 71.7461 6.49543C71.7461 4.37238 73.3052 3.30249 74.8979 3.30249C76.4403 3.30249 77.9659 4.37238 77.9659 6.49543C77.9659 6.72947 77.9324 6.9635 77.8821 7.19754ZM76.038 5.79332C75.8871 5.17479 75.3841 4.8906 74.8141 4.8906C74.2609 4.85717 73.7747 5.25837 73.6405 5.79332H76.038Z" fill="#231F20"/>
<path id="Vector_65" d="M78.1165 11.9773H22.9648" stroke="black" stroke-width="1.49009" stroke-miterlimit="10"/>
<g id="Group_2">
<path id="Vector_66" d="M24.809 14.6518C24.7587 14.3843 24.4737 14.2673 24.2055 14.2673C24.0043 14.2673 23.8199 14.3508 23.6857 14.5013C23.6354 14.5849 23.6019 14.6852 23.6019 14.7855C23.6354 15.1031 23.9372 15.1198 24.2558 15.1533C24.6413 15.2034 25.1443 15.3037 25.2784 15.8052C25.2784 15.8888 25.312 15.939 25.312 16.0058C25.312 16.5742 24.7587 16.9085 24.2222 16.9085C23.7863 16.9085 23.2331 16.6244 23.1828 16.1061V16.0225H23.6019V16.0727V16.0393C23.6354 16.3234 23.9707 16.4572 24.2222 16.4572C24.5408 16.4572 24.8761 16.2733 24.8761 15.9724C24.8761 15.939 24.8761 15.8888 24.8425 15.8721C24.7922 15.6381 24.5072 15.6046 24.1887 15.5879C23.7528 15.5378 23.1996 15.4374 23.1493 14.8022C23.1157 14.6016 23.1828 14.3843 23.3001 14.2338C23.5013 13.9664 23.8534 13.8159 24.1887 13.8493C24.6246 13.8493 25.094 14.0834 25.1778 14.635L24.809 14.6518Z" fill="#231F20"/>
<path id="Vector_67" d="M28.1114 14.5848V16.9252H27.6923V16.6076C27.5414 16.8751 27.1726 16.9419 26.8876 16.9754C26.0996 16.9754 25.6973 16.407 25.6973 15.755C25.6973 15.1031 26.1332 14.5681 26.8876 14.5681C27.1726 14.5681 27.5079 14.6517 27.6923 14.9025V14.5848H28.1114ZM26.8876 14.8857C26.4685 14.8523 26.0996 15.2034 26.0996 15.638C26.0996 15.6714 26.0996 15.6882 26.0996 15.6882C26.0661 16.1562 26.4182 16.5407 26.8541 16.5407C27.29 16.5741 27.6588 16.2064 27.6923 15.7383C27.6923 15.7049 27.6923 15.6882 27.6923 15.6882C27.6923 15.2535 27.357 14.8523 26.9044 14.8523C26.9211 14.8857 26.8876 14.8857 26.8876 14.8857Z" fill="#231F20"/>
<path id="Vector_68" d="M29.1507 14.5347V14.869C29.2849 14.6684 29.5363 14.5347 29.771 14.5347C30.0896 14.5347 30.3746 14.6183 30.5255 14.9526C30.6764 14.6851 30.9446 14.5347 31.2464 14.5347C31.8667 14.5347 32.1349 14.9693 32.1349 15.5711V16.8918H31.7158V15.5711C31.7158 15.2368 31.632 14.9192 31.2464 14.9192C30.8608 14.9192 30.6428 15.2033 30.6428 15.5878V16.9085H30.2405V15.6046C30.2405 15.2702 30.1063 14.9359 29.7543 14.9359C29.3854 14.9359 29.134 15.2033 29.134 15.638V16.9085H28.7148V14.5514L29.1507 14.5347Z" fill="#231F20"/>
<path id="Vector_69" d="M34.9513 15.8219H33.0568C33.0568 16.2899 33.4759 16.5407 33.8113 16.5407C34.0963 16.5741 34.3645 16.407 34.4819 16.1562H34.901C34.7501 16.6243 34.2974 16.9419 33.8113 16.9085C33.2412 16.9085 32.6377 16.4906 32.6377 15.7216C32.6377 14.9359 33.2077 14.5347 33.8113 14.5347C34.3645 14.5347 34.901 14.9024 34.9513 15.6213C34.9513 15.6881 34.9513 15.7717 34.9513 15.8219ZM34.5489 15.4875C34.4651 15.0696 34.1633 14.9192 33.828 14.9192C33.4927 14.9192 33.1742 15.0696 33.0736 15.4875H34.5489Z" fill="#231F20"/>
<path id="Vector_70" d="M37.6156 13.8496C38.5712 13.8496 39.0406 14.6353 39.0406 15.3876C39.0406 16.1398 38.5545 16.8921 37.6156 16.8921H36.5762V13.8496H37.6156ZM37.6156 16.4407C38.2862 16.4407 38.6383 15.8891 38.6383 15.3709C38.6383 14.8192 38.303 14.2843 37.6156 14.2843H36.9953V16.4407H37.6156Z" fill="#231F20"/>
<path id="Vector_71" d="M41.7403 15.8219H39.8459C39.8459 16.2899 40.265 16.5407 40.6003 16.5407C40.8853 16.5741 41.1536 16.407 41.2709 16.1562H41.69C41.5392 16.6243 41.0865 16.9419 40.6003 16.9085C40.0303 16.9085 39.4268 16.4906 39.4268 15.7216C39.4268 14.9359 39.9968 14.5347 40.6003 14.5347C41.1536 14.5347 41.69 14.9024 41.7403 15.6213C41.7403 15.6881 41.7403 15.7717 41.7403 15.8219ZM41.338 15.4875C41.2542 15.0696 40.9524 14.9192 40.6171 14.9192C40.2818 14.9192 39.9632 15.0696 39.8626 15.4875H41.338Z" fill="#231F20"/>
<path id="Vector_72" d="M43.2824 17.7946C42.7124 17.7946 42.1927 17.5606 42.1927 17.0423H42.5783C42.5783 17.3265 42.9639 17.4268 43.2489 17.4268C43.6177 17.4268 44.0033 17.2429 44.0033 16.8083V16.5408C43.8022 16.8083 43.5172 16.8752 43.2489 16.8752C42.4945 16.8752 42.0586 16.3569 42.0586 15.7384C42.0586 15.1199 42.4777 14.5181 43.2489 14.5181C43.5339 14.5181 43.8525 14.6184 44.0033 14.8524V14.5348H44.3889V16.7581C44.456 17.5438 43.8525 17.7946 43.2824 17.7946ZM44.0369 15.6715C44.0704 15.287 43.7686 14.9193 43.383 14.8858C43.3495 14.8858 43.3327 14.8858 43.2992 14.8858C42.8633 14.8524 42.4945 15.2202 42.4945 15.6715C42.4945 15.705 42.4945 15.705 42.4945 15.7217C42.4945 16.1396 42.813 16.5074 43.2154 16.5074C43.2489 16.5074 43.2489 16.5074 43.2657 16.5074C43.7854 16.5241 44.0369 16.1062 44.0369 15.6715Z" fill="#231F20"/>
<path id="Vector_73" d="M45.461 14.585V14.8692C45.6621 14.5516 46.0142 14.4847 46.3663 14.5516V14.9193C45.9974 14.7856 45.6118 15.0196 45.4777 15.3874C45.4442 15.471 45.4442 15.5379 45.4442 15.6215V16.8919H45.0586V14.5516H45.4442V14.585H45.461Z" fill="#231F20"/>
<path id="Vector_74" d="M48.9484 15.8219H47.0539C47.0539 16.2899 47.473 16.5407 47.8083 16.5407C48.0933 16.5741 48.3616 16.407 48.4789 16.1562H48.8981C48.7472 16.6243 48.2945 16.9419 47.8083 16.9085C47.2383 16.9085 46.6348 16.4906 46.6348 15.7216C46.6348 14.9359 47.2048 14.5347 47.8083 14.5347C48.3616 14.5347 48.8981 14.9024 48.9484 15.6213C48.9819 15.6881 48.9819 15.7717 48.9484 15.8219ZM48.546 15.4875C48.4622 15.0696 48.1604 14.9192 47.8251 14.9192C47.5066 14.9192 47.1712 15.0696 47.0707 15.4875H48.546Z" fill="#231F20"/>
<path id="Vector_75" d="M51.6808 15.8219H49.7863C49.7863 16.2899 50.2054 16.5407 50.5407 16.5407C50.8257 16.5741 51.094 16.407 51.2113 16.1562H51.6305C51.4796 16.6243 51.0269 16.9419 50.5407 16.9085C49.9707 16.9085 49.3672 16.4906 49.3672 15.7216C49.3672 14.9359 49.9372 14.5347 50.5407 14.5347C51.094 14.5347 51.6305 14.9024 51.6808 15.6213C51.7143 15.6881 51.7143 15.7717 51.6808 15.8219ZM51.2784 15.4875C51.1946 15.0696 50.8928 14.9192 50.5575 14.9192C50.2222 14.9192 49.9037 15.0696 49.8031 15.4875H51.2784Z" fill="#231F20"/>
<path id="Vector_76" d="M51.8984 17.3271L52.2172 16.5408H52.6535L52.2676 17.3271H51.8984Z" fill="#231F20"/>
<path id="Vector_77" d="M54.2285 16.8921V13.8831H54.5471L55.9553 16.0061V13.8831H56.3744V16.8921H56.0391L54.6309 14.7858V16.8921H54.2285Z" fill="#231F20"/>
<path id="Vector_78" d="M58.1679 16.9419C57.5643 16.9419 56.9775 16.524 56.9775 15.755C56.9775 14.986 57.5811 14.5681 58.2014 14.5681C58.8217 14.5681 59.3917 14.986 59.3917 15.755C59.3917 16.524 58.7882 16.9419 58.1679 16.9419ZM58.1679 16.5574C58.6038 16.5574 58.9726 16.1897 58.9726 15.7216C58.9726 15.2535 58.6038 14.8857 58.1679 14.8857C57.732 14.8857 57.3631 15.2535 57.3631 15.7216C57.3631 16.1562 57.6817 16.524 58.1176 16.5574C58.1343 16.5574 58.1343 16.5574 58.1679 16.5574Z" fill="#231F20"/>
<path id="Vector_79" d="M60.1628 14.585L60.3472 15.2369L60.6154 16.2232L61.0513 14.585H61.4202L61.8561 16.2232L62.1243 15.2369L62.3087 14.585H62.7278L62.0069 16.9253H61.6884L61.4034 16.0226L61.2022 15.3205L61.0178 16.0226L60.7328 16.9253H60.4143L59.6934 14.585H60.1628Z" fill="#231F20"/>
<path id="Vector_80" d="M65.5772 13.8328C66.4155 13.8328 67.0861 14.5349 67.0861 15.3874C67.0861 16.24 66.4155 16.9421 65.5772 16.9421C64.739 16.9421 64.0684 16.24 64.0684 15.3874C64.0684 14.5349 64.7557 13.8328 65.5772 13.8328ZM65.5772 16.4908C66.1808 16.4908 66.6669 16.006 66.6669 15.3707C66.6669 14.7355 66.1975 14.2674 65.6107 14.2674C65.0072 14.2674 64.521 14.7522 64.521 15.3874C64.4875 16.006 64.9904 16.4908 65.5772 16.4908Z" fill="#231F20"/>
<path id="Vector_81" d="M67.9745 14.5845V14.8686C68.1254 14.6012 68.3936 14.551 68.6786 14.551C69.3492 14.551 69.6677 14.9857 69.6677 15.6711V16.9248H69.2486V15.6711C69.2486 15.2364 69.148 14.9522 68.6786 14.9522C68.2427 14.9522 68.008 15.2699 68.008 15.6711V16.9416H67.5889V14.6012H67.9745V14.5845Z" fill="#231F20"/>
<path id="Vector_82" d="M70.673 16.8921H70.2539V13.8831H70.673V16.8921Z" fill="#231F20"/>
<path id="Vector_83" d="M71.7796 13.9834C71.7796 14.3178 71.2934 14.3178 71.2934 13.9834C71.2766 13.6491 71.7796 13.6491 71.7796 13.9834ZM71.746 14.5518H71.3269V16.9089H71.746V14.5518Z" fill="#231F20"/>
<path id="Vector_84" d="M72.8358 14.5845V14.8686C72.9867 14.6012 73.2549 14.551 73.5399 14.551C74.2105 14.551 74.5291 14.9857 74.5291 15.6711V16.9248H74.1435V15.6711C74.1435 15.2364 74.0429 14.9522 73.5399 14.9522C73.104 14.9522 72.8693 15.2699 72.8693 15.6711V16.9416H72.4502V14.6012H72.8358V14.5845Z" fill="#231F20"/>
<path id="Vector_85" d="M77.295 15.8219H75.4006C75.4006 16.2899 75.8197 16.5407 76.155 16.5407C76.44 16.5741 76.7082 16.407 76.8256 16.1562H77.2447C77.0938 16.6243 76.6412 16.9419 76.155 16.9085C75.585 16.9085 74.9814 16.4906 74.9814 15.7216C74.9814 14.9359 75.5515 14.5347 76.155 14.5347C76.7082 14.5347 77.2447 14.9024 77.295 15.6213C77.295 15.6881 77.295 15.7717 77.295 15.8219ZM76.8759 15.4875C76.7921 15.0696 76.4903 14.9192 76.155 14.9192C75.8365 14.9192 75.5012 15.0696 75.4006 15.4875H76.8759Z" fill="#231F20"/>
<path id="Vector_86" d="M78.2008 16.658C78.2008 16.8085 78.0666 16.9257 77.9156 16.8922C77.7813 16.8922 77.6807 16.7918 77.6807 16.658C77.6807 16.5074 77.7813 16.3735 77.9156 16.3735C78.0498 16.3735 78.184 16.4739 78.2008 16.6078C78.2008 16.6245 78.2008 16.6245 78.2008 16.658Z" fill="#231F20"/>
</g>
<g id="Group_3">
<path id="Vector_87" d="M57.1454 20.3857H58.0339V20.6699H56.8604V18.6638H58.0339V18.948H57.1454V19.4997H58.0004V19.7839H57.1454V20.3857Z" fill="#231F20"/>
<path id="Vector_88" d="M58.6882 19.1319V19.3158C58.7888 19.1654 58.9732 19.0818 59.1241 19.1152C59.5599 19.1152 59.7779 19.3994 59.7779 19.8341V20.6699H59.5097V19.8675C59.5097 19.5833 59.4258 19.3994 59.1241 19.3827C58.8893 19.3493 58.6882 19.5666 58.6882 19.8006C58.6882 19.8341 58.6882 19.8508 58.6882 19.8508V20.6866H58.4199V19.1487H58.6882V19.1319Z" fill="#231F20"/>
<path id="Vector_89" d="M60.5817 18.7979V19.1322H60.9003V19.3328H60.5817V20.1854C60.5817 20.4194 60.7158 20.4194 60.917 20.386V20.62C60.5482 20.6534 60.3135 20.5698 60.3135 20.1854V19.3328H60.1123V19.1322H60.3135V18.848L60.5817 18.7979Z" fill="#231F20"/>
<path id="Vector_90" d="M61.5547 18.7474C61.5547 18.8477 61.4709 18.9313 61.4038 18.9313C61.3033 18.9313 61.253 18.8477 61.253 18.7474C61.2027 18.5468 61.5547 18.5468 61.5547 18.7474ZM61.5212 19.1151H61.253V20.6531H61.5212V19.1151Z" fill="#231F20"/>
<path id="Vector_91" d="M62.3591 18.7979V19.1322H62.6776V19.3328H62.3591V20.1854C62.3591 20.4194 62.4932 20.4194 62.6944 20.386V20.62C62.3255 20.6534 62.0908 20.5698 62.0908 20.1854V19.3328H61.8896V19.1322H62.0908V18.848L62.3591 18.7979Z" fill="#231F20"/>
<path id="Vector_92" d="M63.2643 20.6699H62.9961V18.6973H63.2643V20.6699Z" fill="#231F20"/>
<path id="Vector_93" d="M65.1584 19.9677H63.901C63.9346 20.2351 64.1358 20.4525 64.3872 20.4357C64.5717 20.4357 64.7225 20.3522 64.8231 20.1683H65.1081C64.9573 20.5862 64.5046 20.7701 64.119 20.6029C63.834 20.4692 63.6496 20.185 63.6328 19.8841C63.6328 19.4494 63.9681 19.0984 64.4208 19.0984C64.8064 19.0984 65.1249 19.416 65.1752 19.8005C65.192 19.8841 65.192 19.9175 65.1584 19.9677ZM64.907 19.7336C64.8567 19.4996 64.6722 19.3491 64.4375 19.3659C64.2028 19.3324 64.0016 19.5163 63.9513 19.7336H64.907Z" fill="#231F20"/>
<path id="Vector_94" d="M66.7839 18.6973H67.0522V20.6699H66.7839V20.4525C66.6498 20.603 66.4654 20.6866 66.2977 20.6866C65.778 20.6866 65.5098 20.3522 65.5098 19.8842C65.5098 19.4161 65.7948 19.0985 66.2977 19.0985C66.4821 19.065 66.6666 19.1821 66.7839 19.3325V18.6973ZM66.2642 19.3492C65.9792 19.3492 65.7445 19.5833 65.7445 19.9009C65.7445 20.1851 65.9792 20.4191 66.2642 20.4191C66.5492 20.4191 66.7504 20.1516 66.7504 19.8675C66.7504 19.5833 66.5492 19.3659 66.2642 19.3492Z" fill="#231F20"/>
<path id="Vector_95" d="M68.528 19.3492C68.6621 19.1988 68.8465 19.1152 69.0142 19.1152C69.3998 19.0818 69.7351 19.3994 69.7686 19.8173C69.7686 19.8507 69.7686 19.8675 69.7686 19.9009C69.7686 20.3188 69.5004 20.7033 69.0142 20.7033C68.8298 20.7033 68.6454 20.6197 68.528 20.4693V20.6699H68.2598V18.6973H68.528V19.3492ZM68.9974 20.4358C69.2824 20.4693 69.5507 20.2352 69.5674 19.951C69.601 19.6334 69.383 19.3827 69.098 19.3492C68.813 19.3158 68.5448 19.5498 68.528 19.834C68.528 19.8675 68.528 19.8675 68.528 19.8842C68.4945 20.1684 68.7124 20.4024 68.9639 20.4358H68.9974Z" fill="#231F20"/>
<path id="Vector_96" d="M70.8075 19.7842L71.0757 19.1155H71.3607L70.5728 21.1382H70.2878L70.489 20.5866L69.9189 19.1322H70.2039L70.4722 19.8009L70.6231 20.2857L70.8075 19.7842Z" fill="#231F20"/>
<path id="Vector_97" d="M72.4004 20.0679V18.6637H72.6854V20.0679C72.6854 20.2685 72.9201 20.3855 73.1045 20.3855C73.2889 20.3855 73.5237 20.2852 73.5237 20.0512V18.647H73.8087V20.0512C73.8087 20.4357 73.4398 20.653 73.1045 20.653C72.786 20.6697 72.4004 20.4524 72.4004 20.0679Z" fill="#231F20"/>
<path id="Vector_98" d="M75.7524 19.3999C75.6685 19.0822 75.3668 18.9652 75.132 18.9652C74.7464 18.9986 74.4279 19.333 74.4614 19.7175C74.495 20.102 74.78 20.3862 75.132 20.4196C75.4003 20.4196 75.6518 20.2691 75.7356 20.0017H74.9979V19.7175H76.0374C76.0374 19.8512 76.0038 19.9515 75.9871 20.0518C75.8362 20.4363 75.5009 20.6703 75.0985 20.7038C74.5453 20.7038 74.1094 20.2357 74.1094 19.684C74.1094 19.1157 74.5453 18.6643 75.0985 18.6643C75.4673 18.6643 75.9368 18.8482 76.0374 19.3831L75.7524 19.3999Z" fill="#231F20"/>
<path id="Vector_99" d="M76.6411 18.9819C76.8255 18.798 77.0603 18.6977 77.3117 18.6643C77.7309 18.6643 78.1165 18.9819 78.2003 19.3831H77.932C77.8482 19.0989 77.5967 18.9151 77.3117 18.9485C77.1273 18.9485 76.9429 19.0321 76.8255 19.1491C76.5573 19.4333 76.5573 19.8679 76.8255 20.1688C76.9597 20.3026 77.1441 20.3694 77.3117 20.3694C77.5967 20.3694 77.865 20.1855 77.932 19.9014H78.2003C78.0997 20.4196 77.5967 20.7372 77.1106 20.6202C76.9261 20.57 76.7752 20.4865 76.6411 20.3527C76.3058 19.9849 76.3058 19.3664 76.6411 18.9819Z" fill="#231F20"/>
</g>
</g>
</g>
<defs>
<clipPath id="clip0_577_3575">
<rect width="78.3187" height="20.3425" fill="white" transform="translate(0.234375 0.895996)"/>
</clipPath>
</defs>
</svg>
