<svg width="22" height="22" viewBox="0 0 22 22" fill="none" xmlns="http://www.w3.org/2000/svg">
<g clip-path="url(#clip0_1677_30125)">
<path d="M15.1191 12.6313L12.1654 10.416V5.90349C12.1654 5.44976 11.7986 5.08301 11.3449 5.08301C10.8912 5.08301 10.5244 5.44976 10.5244 5.90349V10.8263C10.5244 11.0848 10.6459 11.3285 10.8526 11.4827L14.1345 13.9441C14.2821 14.0549 14.4545 14.1082 14.6259 14.1082C14.8762 14.1082 15.1223 13.9958 15.2831 13.7792C15.5556 13.4173 15.4817 12.9029 15.1191 12.6313Z" fill="black"/>
<path d="M11.3447 0.168457C5.50376 0.168457 0.752441 4.91978 0.752441 10.7607C0.752441 16.6016 5.50376 21.3529 11.3447 21.3529C17.1856 21.3529 21.9369 16.6016 21.9369 10.7607C21.9369 4.91978 17.1856 0.168457 11.3447 0.168457ZM11.3447 19.712C6.40957 19.712 2.39337 15.6958 2.39337 10.7607C2.39337 5.82558 6.40957 1.80939 11.3447 1.80939C16.2806 1.80939 20.296 5.82558 20.296 10.7607C20.296 15.6958 16.2798 19.712 11.3447 19.712Z" fill="black"/>
</g>
<defs>
<clipPath id="clip0_1677_30125">
<rect width="21.1845" height="21.1845" fill="white" transform="translate(0.752441 0.168457)"/>
</clipPath>
</defs>
</svg>
