<svg width="22" height="22" viewBox="0 0 22 22" fill="none" xmlns="http://www.w3.org/2000/svg">
<g clip-path="url(#clip0_1677_30104)">
<path d="M21.1803 9.95728H8.96748C8.55719 8.34521 6.91773 7.37099 5.30562 7.78128C4.23653 8.05338 3.40173 8.88818 3.12962 9.95728H1.50904C1.09118 9.95728 0.752441 10.296 0.752441 10.7139C0.752441 11.1317 1.09118 11.4704 1.50904 11.4704H3.12966C3.53995 13.0825 5.17941 14.0567 6.79152 13.6464C7.86062 13.3743 8.69542 12.5395 8.96752 11.4704H21.1803C21.5982 11.4704 21.9369 11.1317 21.9369 10.7138C21.9369 10.296 21.5982 9.95728 21.1803 9.95728ZM6.04857 12.227C5.21288 12.227 4.53541 11.5496 4.53541 10.7139C4.53541 9.87819 5.21288 9.20072 6.04857 9.20072C6.88426 9.20072 7.56173 9.87819 7.56173 10.7139C7.56173 11.5496 6.88426 12.227 6.04857 12.227Z" fill="black"/>
<path d="M21.1803 2.39136H18.8031C18.3929 0.779297 16.7534 -0.194929 15.1413 0.215358C14.0722 0.487463 13.2374 1.32227 12.9653 2.39136H1.50904C1.09118 2.39136 0.752441 2.7301 0.752441 3.14796C0.752441 3.56583 1.09118 3.90457 1.50904 3.90457H12.9653C13.3756 5.51663 15.015 6.49086 16.6271 6.08057C17.6962 5.80846 18.531 4.97366 18.8031 3.90457H21.1803C21.5982 3.90457 21.9369 3.56583 21.9369 3.14796C21.9369 2.7301 21.5982 2.39136 21.1803 2.39136ZM15.8842 4.66113C15.0485 4.66113 14.3711 3.98365 14.3711 3.14796C14.3711 2.31227 15.0485 1.6348 15.8842 1.6348C16.7199 1.6348 17.3974 2.31227 17.3974 3.14796C17.3974 3.98365 16.7199 4.66113 15.8842 4.66113Z" fill="black"/>
<path d="M21.1803 17.5232H17.2899C16.8796 15.9111 15.2402 14.9369 13.6281 15.3472C12.559 15.6193 11.7242 16.4541 11.4521 17.5232H1.50904C1.09118 17.5232 0.752441 17.8619 0.752441 18.2798C0.752441 18.6976 1.09118 19.0364 1.50904 19.0364H11.4521C11.8624 20.6484 13.5019 21.6226 15.114 21.2124C16.1831 20.9403 17.0179 20.1055 17.29 19.0364H21.1803C21.5982 19.0364 21.9369 18.6976 21.9369 18.2798C21.9369 17.8619 21.5982 17.5232 21.1803 17.5232ZM14.371 19.793C13.5353 19.793 12.8579 19.1155 12.8579 18.2798C12.8579 17.4441 13.5353 16.7666 14.371 16.7666C15.2067 16.7666 15.8842 17.4441 15.8842 18.2798C15.8842 19.1155 15.2068 19.793 14.371 19.793Z" fill="black"/>
</g>
<defs>
<clipPath id="clip0_1677_30104">
<rect width="21.1845" height="21.1845" fill="white" transform="translate(0.752441 0.121582)"/>
</clipPath>
</defs>
</svg>
