<svg width="22" height="22" viewBox="0 0 22 22" fill="none" xmlns="http://www.w3.org/2000/svg">
<path d="M21.9369 10.5922C21.9369 4.77332 17.2196 0.038586 11.409 0.00302632C11.4052 0.00302632 11.4022 0.00302632 11.3984 0.00302632C11.3802 0.00302632 11.3628 0 11.3447 0C11.3265 0 11.3091 0.00226973 11.2902 0.00302632C11.2864 0.00302632 11.2834 0.00302632 11.2796 0.00302632C5.46901 0.038586 0.752441 4.77332 0.752441 10.5922C0.752441 16.4112 5.50382 21.1845 11.3439 21.1845C17.184 21.1845 21.9354 16.4331 21.9354 10.5922H21.9369ZM11.3447 19.3974C9.66733 17.7957 8.72764 15.9655 8.20862 14.3752H14.4807C13.9617 15.9655 13.022 17.7957 11.3447 19.3974ZM7.81141 12.862C7.592 11.768 7.56174 10.9274 7.56174 10.5922C7.56174 9.78647 7.65026 9.03291 7.78947 8.32247H14.8991C15.0391 9.03291 15.1269 9.78647 15.1269 10.5922C15.1269 10.9274 15.0974 11.768 14.8772 12.862H7.81141ZM2.26562 10.5922C2.26562 9.80766 2.37608 9.04956 2.56447 8.32247H6.24754C6.12346 9.03821 6.04856 9.79328 6.04856 10.5922C6.04856 10.9395 6.07731 11.771 6.27478 12.862H2.56447C2.37608 12.1349 2.26562 11.3768 2.26562 10.5922ZM11.3447 1.78706C12.1784 2.6072 13.6591 4.3239 14.5004 6.8093H8.18895C9.03028 4.32466 10.5109 2.60796 11.3447 1.78706ZM16.4418 8.32247H20.1249C20.3133 9.04956 20.4237 9.80766 20.4237 10.5922C20.4237 11.3768 20.3133 12.1349 20.1249 12.862H16.4146C16.6121 11.771 16.6408 10.9395 16.6408 10.5922C16.6408 9.79328 16.5667 9.03821 16.4418 8.32247ZM19.587 6.8093H16.0824C15.4242 4.60157 14.2999 2.88866 13.3504 1.74394C16.1278 2.37342 18.4203 4.27775 19.587 6.8093ZM9.33821 1.74394C8.38869 2.88866 7.2644 4.60157 6.60617 6.8093H3.10165C4.26831 4.27775 6.56077 2.37342 9.33821 1.74394ZM3.10165 14.3752H6.63265C7.08357 15.9315 7.87951 17.7412 9.29433 19.4292C6.53732 18.7891 4.26226 16.8931 3.10165 14.3752ZM13.3943 19.4292C14.8091 17.7412 15.605 15.9315 16.056 14.3752H19.587C18.4263 16.8931 16.152 18.7891 13.3943 19.4292Z" fill="black"/>
</svg>
