<svg width="21" height="21" viewBox="0 0 21 21" fill="none" xmlns="http://www.w3.org/2000/svg">
<path d="M19.0363 3.95871H10.3121L10.0529 1.87918C9.93966 0.973217 9.16577 0.290039 8.25276 0.290039H2.0234C1.02307 0.290039 0.209229 1.10388 0.209229 2.10421V15.4485C0.209229 16.4488 1.02307 17.2627 2.0234 17.2627H7.12257L7.37849 19.3422C7.49153 20.2463 8.26542 20.9313 9.17867 20.9313H19.0363C20.0367 20.9313 20.8505 20.1175 20.8505 19.1172V5.77288C20.8505 4.77254 20.0367 3.95871 19.0363 3.95871ZM2.0234 16.0532C1.68996 16.0532 1.41868 15.7819 1.41868 15.4485V2.10421C1.41868 1.77077 1.68996 1.49949 2.0234 1.49949H8.25276C8.5571 1.49949 8.81507 1.72719 8.85277 2.02899C8.94041 2.73192 10.5141 15.3559 10.601 16.0532H2.0234ZM8.54331 18.9055L8.34113 17.2627H9.96357L8.54331 18.9055ZM19.6411 19.1172C19.6411 19.4506 19.3698 19.7219 19.0363 19.7219H9.43629L11.7384 17.0589C11.8563 16.926 11.9091 16.7496 11.8847 16.5742L10.4629 5.16816H19.0363C19.3698 5.16816 19.6411 5.43944 19.6411 5.77288V19.1172Z" fill="black"/>
</svg>
