<svg width="20" height="20" viewBox="0 0 20 20" fill="none" xmlns="http://www.w3.org/2000/svg">
<g id="at">
<path id="Vector" d="M9.99984 12.5001C10.6748 12.5001 11.2498 12.2501 11.7582 11.7584C12.2498 11.2501 12.4998 10.6751 12.4998 10.0001C12.4998 9.32508 12.2498 8.75008 11.7582 8.24175C11.2498 7.75008 10.6748 7.50008 9.99984 7.50008C9.32484 7.50008 8.74984 7.75008 8.2415 8.24175C7.74984 8.75008 7.49984 9.32508 7.49984 10.0001C7.49984 10.6751 7.74984 11.2501 8.2415 11.7584C8.74984 12.2501 9.32484 12.5001 9.99984 12.5001ZM9.99984 1.66675C12.2915 1.66675 14.2498 2.50008 15.8748 4.12508C17.4998 5.75008 18.3332 7.70841 18.3332 10.0001V11.2084C18.3332 12.0417 18.0415 12.7501 17.4998 13.3334C16.9165 13.8917 16.2498 14.1667 15.4165 14.1667C14.4165 14.1667 13.5915 13.7501 12.9665 12.9167C12.1332 13.7501 11.1498 14.1667 9.99984 14.1667C8.85817 14.1667 7.87484 13.7501 7.04984 12.9501C6.24984 12.1251 5.83317 11.1501 5.83317 10.0001C5.83317 8.85841 6.24984 7.87508 7.04984 7.05008C7.87484 6.25008 8.85817 5.83341 9.99984 5.83341C11.1498 5.83341 12.1248 6.25008 12.9498 7.05008C13.7498 7.87508 14.1665 8.85841 14.1665 10.0001V11.2084C14.1665 11.5501 14.2998 11.8501 14.5498 12.1084C14.7998 12.3667 15.0915 12.5001 15.4165 12.5001C15.7665 12.5001 16.0582 12.3667 16.3082 12.1084C16.5582 11.8501 16.6665 11.5501 16.6665 11.2084V10.0001C16.6665 8.17508 16.0248 6.60841 14.7082 5.29175C13.3915 3.97508 11.8248 3.33341 9.99984 3.33341C8.17484 3.33341 6.60817 3.97508 5.2915 5.29175C3.97484 6.60841 3.33317 8.17508 3.33317 10.0001C3.33317 11.8251 3.97484 13.3917 5.2915 14.7084C6.60817 16.0251 8.17484 16.6667 9.99984 16.6667H14.1665V18.3334H9.99984C7.70817 18.3334 5.74984 17.5001 4.12484 15.8751C2.49984 14.2501 1.6665 12.2917 1.6665 10.0001C1.6665 7.70841 2.49984 5.75008 4.12484 4.12508C5.74984 2.50008 7.70817 1.66675 9.99984 1.66675Z" fill="white"/>
</g>
</svg>
