<svg width="21" height="21" viewBox="0 0 21 21" fill="none" xmlns="http://www.w3.org/2000/svg">
<g id="facebook-svgrepo-com" clip-path="url(#clip0_469_22050)">
<path id="Vector" d="M18.1464 0H2.89249C1.33846 0 0.0786133 1.2598 0.0786133 2.81388V18.0679C0.0786133 19.622 1.33841 20.8818 2.89249 20.8818H10.4157L10.4285 13.4198H8.48985C8.23791 13.4198 8.03343 13.216 8.03246 12.9641L8.02316 10.5588C8.02219 10.3055 8.22729 10.0996 8.48061 10.0996H10.4157V7.77546C10.4157 5.07831 12.063 3.60969 14.469 3.60969H16.4433C16.6959 3.60969 16.9008 3.81448 16.9008 4.06713V6.09531C16.9008 6.34786 16.6961 6.5526 16.4436 6.55275L15.232 6.55332C13.9235 6.55332 13.6701 7.17509 13.6701 8.08758V10.0997H16.5453C16.8193 10.0997 17.0318 10.3389 16.9995 10.6109L16.7144 13.0163C16.6872 13.2464 16.492 13.4199 16.2602 13.4199H13.6829L13.6701 20.8819H18.1465C19.7006 20.8819 20.9604 19.6221 20.9604 18.0681V2.81388C20.9603 1.2598 19.7005 0 18.1464 0Z" fill="#111E2C"/>
</g>
<defs>
<clipPath id="clip0_469_22050">
<rect width="20.8819" height="20.8819" fill="white" transform="translate(0.0786133)"/>
</clipPath>
</defs>
</svg>
