<svg width="21" height="21" viewBox="0 0 21 21" fill="none" xmlns="http://www.w3.org/2000/svg">
<g id="instagram-svgrepo-com" clip-path="url(#clip0_469_22045)">
<g id="XMLID_13_">
<path id="XMLID_17_" d="M14.7006 0H6.26038C2.8302 0 0.0395508 2.79065 0.0395508 6.22083V14.6611C0.0395508 18.0912 2.8302 20.8819 6.26038 20.8819H14.7006C18.1308 20.8819 20.9214 18.0912 20.9214 14.6611V6.22083C20.9214 2.79065 18.1308 0 14.7006 0ZM18.8207 14.6611C18.8207 16.9365 16.9761 18.7812 14.7006 18.7812H6.26038C3.98492 18.7812 2.14027 16.9365 2.14027 14.6611V6.22083C2.14027 3.94533 3.98492 2.10072 6.26038 2.10072H14.7006C16.9761 2.10072 18.8207 3.94533 18.8207 6.22083V14.6611Z" fill="#111E2C"/>
<path id="XMLID_81_" d="M10.4804 5.04004C7.50238 5.04004 5.07959 7.46283 5.07959 10.4408C5.07959 13.4188 7.50238 15.8416 10.4804 15.8416C13.4584 15.8416 15.8812 13.4188 15.8812 10.4408C15.8812 7.46279 13.4584 5.04004 10.4804 5.04004ZM10.4804 13.7409C8.65779 13.7409 7.18031 12.2634 7.18031 10.4408C7.18031 8.61824 8.65782 7.14075 10.4804 7.14075C12.303 7.14075 13.7805 8.61824 13.7805 10.4408C13.7805 12.2634 12.3029 13.7409 10.4804 13.7409Z" fill="#111E2C"/>
<path id="XMLID_83_" d="M15.8918 6.37483C16.6065 6.37483 17.1859 5.79544 17.1859 5.08073C17.1859 4.36601 16.6065 3.78662 15.8918 3.78662C15.177 3.78662 14.5977 4.36601 14.5977 5.08073C14.5977 5.79544 15.177 6.37483 15.8918 6.37483Z" fill="#111E2C"/>
</g>
</g>
<defs>
<clipPath id="clip0_469_22045">
<rect width="20.8819" height="20.8819" fill="white" transform="translate(0.0395508)"/>
</clipPath>
</defs>
</svg>
