<svg width="21" height="21" viewBox="0 0 21 21" fill="none" xmlns="http://www.w3.org/2000/svg">
<g id="linkedin-svgrepo-com" clip-path="url(#clip0_469_22052)">
<path id="Vector" d="M19.1111 0H2.0071C0.963881 0 0.118164 0.845717 0.118164 1.88894V18.9929C0.118164 20.0362 0.963881 20.8819 2.0071 20.8819H19.1111C20.1543 20.8819 21.0001 20.0362 21.0001 18.9929V1.88894C21.0001 0.845717 20.1543 0 19.1111 0ZM6.57991 18.0308C6.57991 18.3344 6.33381 18.5805 6.0302 18.5805H3.69022C3.38662 18.5805 3.14052 18.3344 3.14052 18.0308V8.22172C3.14052 7.91812 3.38662 7.67202 3.69022 7.67202H6.0302C6.33381 7.67202 6.57991 7.91812 6.57991 8.22172V18.0308ZM4.86021 6.74736C3.6325 6.74736 2.63722 5.75209 2.63722 4.52437C2.63722 3.29666 3.6325 2.30138 4.86021 2.30138C6.08792 2.30138 7.0832 3.29666 7.0832 4.52437C7.0832 5.75209 6.08798 6.74736 4.86021 6.74736ZM18.8085 18.0751C18.8085 18.3542 18.5822 18.5805 18.3031 18.5805H15.7922C15.513 18.5805 15.2867 18.3542 15.2867 18.0751V13.4741C15.2867 12.7877 15.4881 10.4664 13.493 10.4664C11.9455 10.4664 11.6316 12.0552 11.5686 12.7683V18.0751C11.5686 18.3542 11.3423 18.5805 11.0632 18.5805H8.63464C8.35552 18.5805 8.12921 18.3542 8.12921 18.0751V8.17745C8.12921 7.89833 8.35552 7.67202 8.63464 7.67202H11.0632C11.3423 7.67202 11.5686 7.89833 11.5686 8.17745V9.03322C12.1424 8.17209 12.9952 7.50742 14.8109 7.50742C18.8316 7.50742 18.8085 11.2638 18.8085 13.3277V18.0751Z" fill="#111E2C"/>
</g>
<defs>
<clipPath id="clip0_469_22052">
<rect width="20.8819" height="20.8819" fill="white" transform="translate(0.118164)"/>
</clipPath>
</defs>
</svg>
