<svg width="20" height="20" viewBox="0 0 20 20" fill="none" xmlns="http://www.w3.org/2000/svg">
<g id="map-marker-radius">
<path id="Vector" d="M10.0002 1.66675C12.7585 1.66675 15.0002 3.88341 15.0002 6.62508C15.0002 10.3417 10.0002 15.8334 10.0002 15.8334C10.0002 15.8334 5.00016 10.3417 5.00016 6.62508C5.00016 3.88341 7.24183 1.66675 10.0002 1.66675ZM10.0002 5.00008C9.55814 5.00008 9.13421 5.17568 8.82165 5.48824C8.50909 5.8008 8.3335 6.22472 8.3335 6.66675C8.3335 7.10878 8.50909 7.5327 8.82165 7.84526C9.13421 8.15782 9.55814 8.33341 10.0002 8.33341C10.4422 8.33341 10.8661 8.15782 11.1787 7.84526C11.4912 7.5327 11.6668 7.10878 11.6668 6.66675C11.6668 6.22472 11.4912 5.8008 11.1787 5.48824C10.8661 5.17568 10.4422 5.00008 10.0002 5.00008ZM16.6668 15.8334C16.6668 17.6751 13.6835 19.1667 10.0002 19.1667C6.31683 19.1667 3.3335 17.6751 3.3335 15.8334C3.3335 14.7584 4.35016 13.8001 5.92516 13.1917L6.4585 13.9501C5.5585 14.3251 5.00016 14.8417 5.00016 15.4167C5.00016 16.5667 7.24183 17.5001 10.0002 17.5001C12.7585 17.5001 15.0002 16.5667 15.0002 15.4167C15.0002 14.8417 14.4418 14.3251 13.5418 13.9501L14.0752 13.1917C15.6502 13.8001 16.6668 14.7584 16.6668 15.8334Z" fill="white"/>
</g>
</svg>
