<svg width="21" height="21" viewBox="0 0 21 21" fill="none" xmlns="http://www.w3.org/2000/svg">
<g id="twitter-svgrepo-com" clip-path="url(#clip0_469_22043)">
<path id="Vector" d="M20.4086 3.86566C20.0806 4.01114 19.7433 4.13395 19.3987 4.23367C19.8067 3.77223 20.1178 3.2293 20.3077 2.63519C20.3502 2.50203 20.3061 2.35626 20.1966 2.26914C20.0873 2.18199 19.9354 2.17155 19.8151 2.24288C19.0832 2.67695 18.2936 2.98891 17.4657 3.1713C16.6317 2.35638 15.4989 1.89258 14.3279 1.89258C11.8561 1.89258 9.84514 3.90351 9.84514 6.37523C9.84514 6.5699 9.85746 6.76351 9.88185 6.95442C6.81459 6.68512 3.96299 5.17751 2.00484 2.77549C1.93505 2.68988 1.82754 2.64371 1.71747 2.65256C1.60735 2.66117 1.50836 2.72328 1.45273 2.81876C1.05557 3.50023 0.845609 4.27967 0.845609 5.07273C0.845609 6.15288 1.23123 7.17768 1.91246 7.97849C1.70531 7.90674 1.50432 7.8171 1.31247 7.71061C1.20949 7.65327 1.08379 7.65416 0.981463 7.71281C0.879093 7.7715 0.814898 7.87938 0.812165 7.99733C0.811676 8.01719 0.811676 8.03705 0.811676 8.0572C0.811676 9.66946 1.67941 11.121 3.0061 11.9122C2.89211 11.9008 2.77824 11.8843 2.66506 11.8627C2.54837 11.8404 2.42843 11.8813 2.34975 11.9703C2.27096 12.0592 2.24485 12.1831 2.28119 12.2963C2.77224 13.8294 4.03653 14.9571 5.56494 15.3009C4.29727 16.0949 2.84761 16.5108 1.32581 16.5108C1.00826 16.5108 0.688914 16.4921 0.37638 16.4552C0.221112 16.4367 0.0726553 16.5284 0.0197574 16.676C-0.0331405 16.8238 0.0229386 16.9885 0.155 17.0731C2.11002 18.3266 4.37056 18.9892 6.69215 18.9892C11.2561 18.9892 14.1112 16.837 15.7026 15.0316C17.687 12.7803 18.8251 9.80046 18.8251 6.85621C18.8251 6.7332 18.8233 6.60901 18.8195 6.48519C19.6024 5.89532 20.2765 5.18142 20.825 4.36091C20.9083 4.23632 20.8993 4.07159 20.8028 3.9569C20.7065 3.84201 20.5458 3.8049 20.4086 3.86566Z" fill="#111E2C"/>
</g>
<defs>
<clipPath id="clip0_469_22043">
<rect width="20.8819" height="20.8819" fill="white"/>
</clipPath>
</defs>
</svg>
