<svg width="15" height="19" viewBox="0 0 15 19" fill="none" xmlns="http://www.w3.org/2000/svg">
<path fill-rule="evenodd" clip-rule="evenodd" d="M2.14286 8.42871V6.28585C2.14286 3.32719 4.54134 0.928711 7.5 0.928711C10.4586 0.928711 12.8571 3.32719 12.8571 6.28585V8.42871C14.0406 8.42871 15 9.3881 15 10.5716V15.9287C15 17.1122 14.0406 18.0716 12.8571 18.0716H2.14286C0.959389 18.0716 0 17.1122 0 15.9287V10.5716C0 9.3881 0.959389 8.42871 2.14286 8.42871ZM10.7143 6.28585V8.42871H4.28571V6.28585C4.28571 4.51066 5.7248 3.07157 7.5 3.07157C9.27525 3.07157 10.7143 4.51066 10.7143 6.28585Z" fill="#2B63E1"/>
</svg>
